<svg width="70" height="16" viewBox="0 0 70 16" fill="none" xmlns="http://www.w3.org/2000/svg">
<path d="M5.9975 12.24C4.83483 12.24 3.81883 12 2.9495 11.52C2.08017 11.04 1.40283 10.3627 0.9175 9.488C0.4375 8.608 0.1975 7.58133 0.1975 6.408C0.1975 5.55467 0.338833 4.77333 0.6215 4.064C0.9095 3.34933 1.31217 2.73067 1.8295 2.208C2.35217 1.68533 2.96817 1.28 3.6775 0.992C4.38683 0.704 5.1655 0.559999 6.0135 0.559999C6.86683 0.559999 7.60283 0.666666 8.2215 0.879999C8.8455 1.09333 9.3895 1.39733 9.8535 1.792L8.9255 3.256C8.5735 2.93067 8.16283 2.688 7.6935 2.528C7.22417 2.368 6.70683 2.288 6.1415 2.288C5.5175 2.288 4.95483 2.384 4.4535 2.576C3.95217 2.768 3.52283 3.04267 3.1655 3.4C2.8135 3.752 2.5415 4.18133 2.3495 4.688C2.16283 5.18933 2.0695 5.75733 2.0695 6.392C2.0695 7.256 2.2375 7.99467 2.5735 8.608C2.91483 9.22133 3.39483 9.69067 4.0135 10.016C4.6375 10.336 5.3735 10.496 6.2215 10.496C6.78683 10.496 7.33083 10.4133 7.8535 10.248C8.3815 10.0773 8.87483 9.80267 9.3335 9.424L10.1655 10.936C9.62683 11.3573 9.01083 11.68 8.3175 11.904C7.6295 12.128 6.85617 12.24 5.9975 12.24ZM12.4978 15.584C12.2098 15.584 11.9271 15.552 11.6497 15.488C11.3724 15.424 11.1004 15.3147 10.8338 15.16L11.2338 13.656C11.3991 13.7627 11.5804 13.8427 11.7778 13.896C11.9751 13.9493 12.1511 13.976 12.3058 13.976C12.6791 13.976 12.9724 13.888 13.1858 13.712C13.3991 13.536 13.5671 13.264 13.6898 12.896L13.9538 12.128L10.8338 4.08H12.7618L14.9538 10.224L17.0898 4.08H18.9538L15.5298 13.144C15.2844 13.7787 15.0098 14.272 14.7057 14.624C14.4018 14.9813 14.0658 15.2293 13.6978 15.368C13.3298 15.512 12.9298 15.584 12.4978 15.584ZM24.9414 12.24C24.4134 12.24 23.936 12.1627 23.5094 12.008C23.088 11.8533 22.7227 11.64 22.4134 11.368C22.104 11.0907 21.8534 10.7733 21.6614 10.416L21.9174 10.024V12H20.3334V0.48H22.0854V5.904L21.7254 5.512C22.0774 5 22.5174 4.59467 23.0454 4.296C23.5734 3.992 24.1974 3.84 24.9174 3.84C25.7067 3.84 26.4 4.02933 26.9974 4.408C27.6 4.78133 28.0694 5.28533 28.4054 5.92C28.7414 6.55467 28.9094 7.26133 28.9094 8.04C28.9094 8.64267 28.8107 9.2 28.6134 9.712C28.4214 10.224 28.1494 10.6693 27.7974 11.048C27.4454 11.4213 27.0267 11.7147 26.5414 11.928C26.056 12.136 25.5227 12.24 24.9414 12.24ZM24.6214 10.68C25.1067 10.68 25.5387 10.5733 25.9174 10.36C26.3014 10.1413 26.6027 9.83467 26.8214 9.44C27.04 9.04533 27.1494 8.57867 27.1494 8.04C27.1494 7.50133 27.04 7.03467 26.8214 6.64C26.608 6.24 26.3094 5.93333 25.9254 5.72C25.5467 5.50667 25.112 5.4 24.6214 5.4C24.1307 5.4 23.6934 5.50667 23.3094 5.72C22.9307 5.93333 22.632 6.24 22.4134 6.64C22.1947 7.03467 22.0854 7.50133 22.0854 8.04C22.0854 8.57867 22.1947 9.04533 22.4134 9.44C22.632 9.83467 22.9307 10.1413 23.3094 10.36C23.6934 10.5733 24.1307 10.68 24.6214 10.68ZM32.1465 12V2.44H28.9945V0.799999H37.0905V2.44H33.9385V12H32.1465ZM38.9716 12V0.799999H46.2116V2.384H40.7636V5.408H45.4676V6.904H40.7636V10.4H46.2596V12H38.9716ZM48.7685 12V0.799999H50.5605V6.536L55.1925 0.799999H57.4005L53.3045 5.872L58.0165 12H55.7045L52.1285 7.24L50.5605 9.096V12H48.7685ZM59.8935 12V0.799999H61.6855V6.536L66.3175 0.799999H68.5255L64.4295 5.872L69.1415 12H66.8295L63.2535 7.24L61.6855 9.096V12H59.8935Z" fill="url(#paint0_linear_3520_26050)"/>
<defs>
<linearGradient id="paint0_linear_3520_26050" x1="-1" y1="6" x2="70" y2="6" gradientUnits="userSpaceOnUse">
<stop offset="0.0233082" stop-color="#6893F4"/>
<stop offset="1" stop-color="#C932FB"/>
</linearGradient>
</defs>
</svg>

