<svg width="226" height="32" viewBox="0 0 226 32" fill="none" xmlns="http://www.w3.org/2000/svg">
<g style="mix-blend-mode:luminosity">
<g clip-path="url(#clip0_3520_26007)">
<path d="M99.7996 32H3.79961C2.03961 32 0.599609 30.56 0.599609 28.8V3.2C0.599609 1.44 2.03961 0 3.79961 0H99.7996C101.56 0 103 1.44 103 3.2V28.8C103 30.56 101.56 32 99.7996 32Z" fill="black"/>
<path d="M22.1996 15.8402C22.1996 13.3602 24.2796 12.1602 24.3596 12.0802C23.1596 10.4002 21.3996 10.1602 20.7596 10.0802C19.2396 9.92021 17.7196 10.9602 16.9996 10.9602C16.1996 10.9602 14.9996 10.0802 13.7196 10.0802C12.0396 10.0802 10.5196 11.0402 9.63961 12.5602C7.87961 15.6002 9.15961 20.0802 10.8396 22.5602C11.7196 23.7602 12.6796 25.1202 13.9596 25.0402C15.2396 24.9602 15.7196 24.2402 17.2396 24.2402C18.7596 24.2402 19.1596 25.0402 20.5196 25.0402C21.8796 25.0402 22.7596 23.8402 23.5596 22.6402C24.5196 21.2802 24.9196 19.9202 24.9196 19.8402C24.8396 19.7602 22.1996 18.8002 22.1996 15.8402Z" fill="white"/>
<path d="M19.7191 8.4793C20.3591 7.5993 20.8391 6.4793 20.7591 5.2793C19.7991 5.3593 18.5191 5.9193 17.8791 6.7993C17.2391 7.5193 16.6791 8.7193 16.8391 9.8393C17.8791 9.9193 18.9991 9.2793 19.7191 8.4793Z" fill="white"/>
<path d="M40.4398 24.8805H38.6798L37.7198 21.8405H34.3598L33.4798 24.8805H31.7998L35.1598 14.5605H37.2398L40.4398 24.8805ZM37.3998 20.5605L36.5198 17.8405C36.4398 17.6005 36.2798 16.8805 35.9598 15.9205C35.8798 16.3205 35.7198 17.0405 35.4798 17.8405L34.5998 20.5605H37.3998Z" fill="white"/>
<path d="M48.9998 21.1204C48.9998 22.4004 48.6798 23.3604 47.9598 24.1604C47.3198 24.8004 46.5998 25.1204 45.6398 25.1204C44.6798 25.1204 43.9598 24.8004 43.5598 24.0804V28.0004H41.8798V20.0004C41.8798 19.2004 41.8798 18.4004 41.7998 17.5204H43.2398L43.3198 18.7204C43.8798 17.8404 44.6798 17.3604 45.7998 17.3604C46.6798 17.3604 47.3998 17.6804 47.9598 18.4004C48.6798 19.0404 48.9998 19.9204 48.9998 21.1204ZM47.3198 21.1204C47.3198 20.4004 47.1598 19.7604 46.8398 19.3604C46.5198 18.8804 46.0398 18.6404 45.3998 18.6404C44.9998 18.6404 44.5998 18.8004 44.2798 19.0404C43.9598 19.2804 43.7198 19.6804 43.6398 20.0804C43.5598 20.3204 43.5598 20.4804 43.5598 20.5604V21.8404C43.5598 22.4004 43.7198 22.8004 44.0398 23.2004C44.3598 23.6004 44.8398 23.7604 45.3198 23.7604C45.9598 23.7604 46.4398 23.5204 46.7598 23.0404C47.1598 22.5604 47.3198 21.9204 47.3198 21.1204Z" fill="white"/>
<path d="M57.5594 21.1204C57.5594 22.4004 57.2394 23.3604 56.5194 24.1604C55.8794 24.8004 55.1594 25.1204 54.1994 25.1204C53.2394 25.1204 52.5194 24.8004 52.1194 24.0804V28.0004H50.4394V20.0004C50.4394 19.2004 50.4394 18.4004 50.3594 17.5204H51.7994L51.8794 18.7204C52.4394 17.8404 53.2394 17.3604 54.3594 17.3604C55.2394 17.3604 55.9594 17.6804 56.5194 18.4004C57.2394 19.0404 57.5594 19.9204 57.5594 21.1204ZM55.8794 21.1204C55.8794 20.4004 55.7194 19.7604 55.3994 19.3604C55.0794 18.8804 54.5994 18.6404 53.9594 18.6404C53.5594 18.6404 53.1594 18.8004 52.8394 19.0404C52.5194 19.2804 52.2794 19.6804 52.1994 20.0804C52.1194 20.3204 52.1194 20.4804 52.1194 20.5604V21.8404C52.1194 22.4004 52.2794 22.8004 52.5994 23.2004C52.9194 23.6004 53.3994 23.7604 53.8794 23.7604C54.5194 23.7604 54.9994 23.5204 55.3194 23.0404C55.7194 22.5604 55.8794 21.9204 55.8794 21.1204Z" fill="white"/>
<path d="M67.1589 21.9995C67.1589 22.8795 66.8389 23.5995 66.2789 24.1595C65.6389 24.7995 64.6789 25.0395 63.4789 25.0395C62.3589 25.0395 61.4789 24.7995 60.8389 24.3995L61.2389 23.0395C61.9589 23.4395 62.7589 23.6795 63.6389 23.6795C64.2789 23.6795 64.7589 23.5195 65.0789 23.2795C65.3989 22.9595 65.5589 22.6395 65.5589 22.1595C65.5589 21.7595 65.3989 21.3595 65.1589 21.1195C64.8389 20.7995 64.3589 20.5595 63.7189 20.3195C61.8789 19.6795 60.9989 18.6395 60.9989 17.3595C60.9989 16.4795 61.3189 15.8395 61.9589 15.2795C62.5989 14.7195 63.3989 14.4795 64.5189 14.4795C65.4789 14.4795 66.1989 14.6395 66.8389 14.9595L66.4389 16.3195C65.8789 15.9995 65.2389 15.8395 64.4389 15.8395C63.8789 15.8395 63.3989 15.9995 63.0789 16.2395C62.8389 16.4795 62.6789 16.7995 62.6789 17.1995C62.6789 17.5995 62.8389 17.9195 63.1589 18.2395C63.3989 18.4795 63.9589 18.7195 64.6789 19.0395C65.5589 19.3595 66.1989 19.8395 66.6789 20.3195C66.9189 20.7195 67.1589 21.2795 67.1589 21.9995Z" fill="white"/>
<path d="M72.5991 18.7196H70.7591V22.3196C70.7591 23.1996 71.0791 23.6796 71.7191 23.6796C72.0391 23.6796 72.2791 23.6796 72.4391 23.5996L72.5191 24.8796C72.1991 25.0396 71.7991 25.0396 71.2391 25.0396C70.5991 25.0396 70.0391 24.8796 69.7191 24.4796C69.3191 24.0796 69.1591 23.4396 69.1591 22.4796V18.7196H68.0391V17.4396H69.1591V16.0796L70.7591 15.5996V17.4396H72.5991V18.7196Z" fill="white"/>
<path d="M80.8396 21.1193C80.8396 22.2393 80.5196 23.1993 79.8796 23.9193C79.1596 24.6393 78.2796 25.0393 77.1596 25.0393C76.0396 25.0393 75.1596 24.6393 74.5196 23.9193C73.8796 23.1993 73.5596 22.3193 73.5596 21.1993C73.5596 20.0793 73.8796 19.1193 74.5996 18.3993C75.2396 17.6793 76.1996 17.2793 77.3196 17.2793C78.4396 17.2793 79.3196 17.6793 79.9596 18.3993C80.5196 19.1193 80.8396 19.9993 80.8396 21.1193ZM79.0796 21.1993C79.0796 20.4793 78.9196 19.9193 78.5996 19.4393C78.2796 18.8793 77.7196 18.5593 77.0796 18.5593C76.4396 18.5593 75.8796 18.8793 75.5596 19.4393C75.2396 19.9193 75.0796 20.5593 75.0796 21.1993C75.0796 21.9193 75.2396 22.4793 75.5596 22.9593C75.8796 23.5193 76.4396 23.8393 77.0796 23.8393C77.7196 23.8393 78.1996 23.5193 78.5996 22.9593C78.9196 22.4793 79.0796 21.8393 79.0796 21.1993Z" fill="white"/>
<path d="M86.2001 18.8802C86.0401 18.8802 85.8801 18.8002 85.6401 18.8002C85.0801 18.8002 84.6001 19.0402 84.2801 19.4402C84.0401 19.8402 83.8801 20.3202 83.8801 20.8802V24.8002H82.2001V19.6802C82.2001 18.8002 82.2001 18.0802 82.1201 17.3602H83.5601L83.6401 18.8002H83.7201C83.8801 18.3202 84.2001 17.9202 84.5201 17.6002C84.9201 17.3602 85.3201 17.2002 85.7201 17.2002C85.8801 17.2002 86.0401 17.2002 86.1201 17.2002V18.8802H86.2001Z" fill="white"/>
<path d="M93.5589 20.7993C93.5589 21.1193 93.5589 21.3593 93.4789 21.5193H88.5189C88.5189 22.2393 88.7589 22.7993 89.2389 23.1993C89.6389 23.5193 90.1989 23.7593 90.8389 23.7593C91.5589 23.7593 92.2789 23.6793 92.8389 23.4393L93.0789 24.5593C92.3589 24.8793 91.5589 25.0393 90.5989 25.0393C89.4789 25.0393 88.5189 24.7193 87.8789 23.9993C87.2389 23.3593 86.9189 22.3993 86.9189 21.2793C86.9189 20.1593 87.2389 19.1993 87.7989 18.4793C88.4389 17.6793 89.3189 17.2793 90.4389 17.2793C91.4789 17.2793 92.3589 17.6793 92.8389 18.4793C93.3989 19.1193 93.5589 19.9193 93.5589 20.7993ZM92.0389 20.3993C92.0389 19.9193 91.9589 19.5193 91.7189 19.1193C91.3989 18.6393 90.9989 18.3993 90.4389 18.3993C89.8789 18.3993 89.4789 18.6393 89.1589 19.0393C88.9189 19.3593 88.7589 19.8393 88.6789 20.3193H92.0389V20.3993Z" fill="white"/>
<path d="M36.9198 8.23984C36.9198 9.11984 36.6798 9.83984 36.1198 10.3198C35.6398 10.7198 34.9198 10.9598 33.9598 10.9598C33.4798 10.9598 33.0798 10.9598 32.7598 10.8798V5.91984C33.1598 5.83984 33.6398 5.83984 34.1998 5.83984C35.0798 5.83984 35.7198 5.99984 36.1998 6.39984C36.5998 6.79984 36.9198 7.43984 36.9198 8.23984ZM36.0398 8.23984C36.0398 7.67984 35.8798 7.19984 35.5598 6.87984C35.2398 6.55984 34.7598 6.39984 34.1998 6.39984C33.9598 6.39984 33.7198 6.39984 33.5598 6.47984V10.2398C33.6398 10.2398 33.8798 10.2398 34.1198 10.2398C34.7598 10.2398 35.2398 10.0798 35.5598 9.75984C35.8798 9.43984 36.0398 8.87984 36.0398 8.23984Z" fill="white"/>
<path d="M41.3998 9.04012C41.3998 9.60012 41.2398 10.0801 40.9198 10.4001C40.5998 10.8001 40.1198 10.9601 39.5598 10.9601C38.9998 10.9601 38.5998 10.8001 38.2798 10.4001C37.9598 10.0801 37.7998 9.60012 37.7998 9.04012C37.7998 8.48012 37.9598 8.00012 38.2798 7.68012C38.5998 7.28012 39.0798 7.12012 39.6398 7.12012C40.1998 7.12012 40.5998 7.28012 40.9198 7.68012C41.2398 8.00012 41.3998 8.48012 41.3998 9.04012ZM40.5998 9.04012C40.5998 8.72012 40.5198 8.40012 40.3598 8.16012C40.1998 7.84012 39.9598 7.76012 39.6398 7.76012C39.3198 7.76012 39.0798 7.92012 38.9198 8.16012C38.7598 8.40012 38.6798 8.72012 38.6798 9.04012C38.6798 9.36012 38.7598 9.68012 38.9198 9.92012C39.0798 10.2401 39.3198 10.3201 39.6398 10.3201C39.9598 10.3201 40.1998 10.1601 40.3598 9.84012C40.5198 9.68012 40.5998 9.36012 40.5998 9.04012Z" fill="white"/>
<path d="M47.5592 7.2002L46.4392 10.8802H45.7192L45.2392 9.2802C45.0792 8.8802 44.9992 8.4802 44.9192 8.0802C44.8392 8.4802 44.7592 8.8802 44.5992 9.2802L44.1192 10.8802H43.3992L42.1992 7.2002H42.9992L43.3992 8.9602C43.4792 9.3602 43.5592 9.7602 43.6392 10.1602C43.7192 9.8402 43.7992 9.4402 43.9592 8.9602L44.4392 7.2002H45.0792L45.5592 8.8802C45.7192 9.2802 45.7992 9.6802 45.8792 10.0802C45.9592 9.6802 46.0392 9.2802 46.1192 8.8802L46.5992 7.2002H47.5592Z" fill="white"/>
<path d="M51.7196 10.88H50.9196V8.80004C50.9196 8.16004 50.6796 7.84004 50.1996 7.84004C49.9596 7.84004 49.7996 7.92004 49.6396 8.08004C49.4796 8.24004 49.3996 8.48004 49.3996 8.72004V10.88H48.5996V8.24004C48.5996 7.92004 48.5996 7.60004 48.5996 7.20004H49.3196V7.76004C49.3996 7.60004 49.5596 7.44004 49.7196 7.28004C49.9596 7.12004 50.1996 7.04004 50.4396 7.04004C50.7596 7.04004 51.0796 7.12004 51.3196 7.36004C51.6396 7.60004 51.7196 8.00004 51.7196 8.56004V10.88Z" fill="white"/>
<path d="M53.9592 10.8805H53.1592V5.52051H53.9592V10.8805Z" fill="white"/>
<path d="M58.7592 9.04012C58.7592 9.60012 58.5992 10.0801 58.2792 10.4001C57.9592 10.8001 57.4792 10.9601 56.9192 10.9601C56.3592 10.9601 55.9592 10.8001 55.6392 10.4001C55.3192 10.0801 55.1592 9.60012 55.1592 9.04012C55.1592 8.48012 55.3192 8.00012 55.6392 7.68012C55.9592 7.36012 56.4392 7.12012 56.9992 7.12012C57.5592 7.12012 57.9592 7.28012 58.2792 7.68012C58.5992 8.00012 58.7592 8.48012 58.7592 9.04012ZM57.9592 9.04012C57.9592 8.72012 57.8792 8.40012 57.7192 8.16012C57.5592 7.84012 57.3192 7.76012 56.9992 7.76012C56.6792 7.76012 56.4392 7.92012 56.2792 8.16012C56.1192 8.40012 56.0392 8.72012 56.0392 9.04012C56.0392 9.36012 56.1192 9.68012 56.2792 9.92012C56.4392 10.2401 56.6792 10.3201 56.9992 10.3201C57.3192 10.3201 57.5592 10.1601 57.7192 9.84012C57.8792 9.68012 57.9592 9.36012 57.9592 9.04012Z" fill="white"/>
<path d="M62.6797 10.8801H61.9597L61.8797 10.4801C61.6397 10.8001 61.2397 10.9601 60.8397 10.9601C60.5197 10.9601 60.1997 10.8801 60.0397 10.6401C59.8797 10.4001 59.7197 10.1601 59.7197 9.92012C59.7197 9.44012 59.8797 9.12012 60.2797 8.88012C60.6797 8.64012 61.1597 8.56012 61.8797 8.56012V8.48012C61.8797 8.00012 61.6397 7.76012 61.1597 7.76012C60.7597 7.76012 60.5197 7.84012 60.1997 8.00012L60.0397 7.44012C60.3597 7.20012 60.7597 7.12012 61.3197 7.12012C62.2797 7.12012 62.7597 7.60012 62.7597 8.64012V10.0001C62.6797 10.4001 62.6797 10.6401 62.6797 10.8801ZM61.8797 9.60012V9.04012C60.9997 9.04012 60.5197 9.28012 60.5197 9.76012C60.5197 9.92012 60.5997 10.0801 60.6797 10.1601C60.7597 10.2401 60.9197 10.3201 61.0797 10.3201C61.2397 10.3201 61.3997 10.2401 61.5597 10.1601C61.7197 10.0801 61.7997 9.92012 61.8797 9.76012C61.8797 9.76012 61.8797 9.68012 61.8797 9.60012Z" fill="white"/>
<path d="M67.3189 10.8796H66.5989V10.3196C66.3589 10.7996 65.9589 10.9596 65.3989 10.9596C64.9189 10.9596 64.5989 10.7996 64.2789 10.4796C63.9589 10.1596 63.8789 9.67961 63.8789 9.11961C63.8789 8.55961 64.0389 8.07961 64.3589 7.67961C64.6789 7.35961 65.0789 7.19961 65.4789 7.19961C65.9589 7.19961 66.2789 7.35961 66.5189 7.67961V5.59961H67.3189V9.91961C67.3189 10.2396 67.3189 10.5596 67.3189 10.8796ZM66.5189 9.35961V8.71961C66.5189 8.63961 66.5189 8.55961 66.5189 8.47961C66.4389 8.31961 66.3589 8.15961 66.1989 7.99961C66.0389 7.83961 65.8789 7.83961 65.6389 7.83961C65.3189 7.83961 65.0789 7.99961 64.9189 8.23961C64.7589 8.47961 64.6789 8.79961 64.6789 9.19961C64.6789 9.59961 64.7589 9.83961 64.9189 10.0796C65.0789 10.3196 65.3189 10.4796 65.6389 10.4796C65.8789 10.4796 66.1189 10.3996 66.2789 10.1596C66.4389 9.83961 66.5189 9.59961 66.5189 9.35961Z" fill="white"/>
<path d="M74.2787 9.04012C74.2787 9.60012 74.1187 10.0801 73.7987 10.4001C73.4787 10.8001 72.9987 10.9601 72.4387 10.9601C71.8787 10.9601 71.4787 10.8001 71.1587 10.4001C70.8387 10.0801 70.6787 9.60012 70.6787 9.04012C70.6787 8.48012 70.8387 8.00012 71.1587 7.68012C71.4787 7.28012 71.9587 7.12012 72.5187 7.12012C73.0787 7.12012 73.4787 7.28012 73.7987 7.68012C74.1187 8.00012 74.2787 8.48012 74.2787 9.04012ZM73.3987 9.04012C73.3987 8.72012 73.3187 8.40012 73.1587 8.16012C72.9987 7.84012 72.7587 7.76012 72.4387 7.76012C72.1187 7.76012 71.8787 7.92012 71.7187 8.16012C71.5587 8.40012 71.4787 8.72012 71.4787 9.04012C71.4787 9.36012 71.5587 9.68012 71.7187 9.92012C71.8787 10.2401 72.1187 10.3201 72.4387 10.3201C72.7587 10.3201 72.9987 10.1601 73.1587 9.84012C73.3187 9.68012 73.3987 9.36012 73.3987 9.04012Z" fill="white"/>
<path d="M78.6796 10.88H77.8796V8.80004C77.8796 8.16004 77.6396 7.84004 77.1596 7.84004C76.9196 7.84004 76.7596 7.92004 76.5996 8.08004C76.4396 8.24004 76.3596 8.48004 76.3596 8.72004V10.88H75.5596V8.24004C75.5596 7.92004 75.5596 7.60004 75.5596 7.20004H76.2796V7.76004C76.3596 7.60004 76.5196 7.44004 76.6796 7.28004C76.9196 7.12004 77.1596 7.04004 77.3996 7.04004C77.7196 7.04004 78.0396 7.12004 78.2796 7.36004C78.5996 7.60004 78.6796 8.00004 78.6796 8.56004V10.88Z" fill="white"/>
<path d="M83.239 7.84031V9.60031C83.239 10.0803 83.399 10.2403 83.719 10.2403C83.879 10.2403 83.959 10.2403 84.119 10.2403V10.8803C83.959 10.9603 83.719 10.9603 83.479 10.9603C83.159 10.9603 82.919 10.8803 82.759 10.6403C82.599 10.4803 82.519 10.0803 82.519 9.68031V7.84031H81.959V7.20031H82.519V6.56031L83.319 6.32031V7.20031H84.199V7.84031H83.239Z" fill="white"/>
<path d="M88.4393 10.8805H87.6393V8.80051C87.6393 8.16051 87.3993 7.84051 86.9193 7.84051C86.5193 7.84051 86.2793 8.00051 86.1193 8.40051C86.1193 8.48051 86.1193 8.56051 86.1193 8.72051V10.8805H85.3193V5.52051H86.1193V7.76051C86.3593 7.36051 86.7593 7.12051 87.2393 7.12051C87.5593 7.12051 87.8793 7.20051 88.0393 7.44051C88.2793 7.68051 88.4393 8.16051 88.4393 8.64051V10.8805Z" fill="white"/>
<path d="M92.8396 8.8802C92.8396 9.0402 92.8396 9.1202 92.8396 9.2802H90.4396C90.4396 9.6802 90.5996 9.9202 90.7596 10.0802C90.9996 10.2402 91.2396 10.3202 91.5596 10.3202C91.9596 10.3202 92.2796 10.2402 92.5196 10.1602L92.6796 10.7202C92.3596 10.8802 91.9596 10.9602 91.4796 10.9602C90.9196 10.9602 90.4396 10.8002 90.1196 10.4802C89.7996 10.1602 89.6396 9.68019 89.6396 9.12019C89.6396 8.56019 89.7996 8.0802 90.1196 7.7602C90.4396 7.3602 90.8396 7.2002 91.3996 7.2002C91.9596 7.2002 92.3596 7.3602 92.5996 7.7602C92.7596 8.0002 92.8396 8.4002 92.8396 8.8802ZM92.1196 8.6402C92.1196 8.4002 92.0396 8.1602 91.9596 8.0002C91.7996 7.7602 91.6396 7.6802 91.3196 7.6802C91.0796 7.6802 90.8396 7.7602 90.6796 8.0002C90.5196 8.1602 90.4396 8.4002 90.4396 8.6402H92.1196Z" fill="white"/>
</g>
<g clip-path="url(#clip1_3520_26007)">
<path d="M222.199 32H126.199C124.439 32 122.999 30.56 122.999 28.8V3.2C122.999 1.44 124.439 0 126.199 0H222.199C223.959 0 225.399 1.44 225.399 3.2V28.8C225.399 30.56 223.959 32 222.199 32Z" fill="black"/>
<path fill-rule="evenodd" clip-rule="evenodd" d="M130.841 7.28039C130.841 6.80039 131.241 6.40039 131.641 6.40039C132.041 6.40039 132.201 6.48039 132.441 6.64039L147.881 15.1204C148.201 15.2804 148.361 15.5204 148.361 15.7604C148.361 16.0004 148.201 16.2404 147.881 16.4004L132.441 24.8804C132.281 24.9604 132.041 25.1204 131.641 25.1204C131.241 25.1204 130.841 24.7204 130.841 24.2404V7.28039Z" fill="url(#paint0_linear_3520_26007)"/>
<path fill-rule="evenodd" clip-rule="evenodd" d="M140.839 15.7604L131.479 6.40039C131.559 6.40039 131.559 6.40039 131.639 6.40039C132.039 6.40039 132.199 6.48039 132.439 6.64039L143.799 12.8804L140.839 15.7604Z" fill="url(#paint1_linear_3520_26007)"/>
<path fill-rule="evenodd" clip-rule="evenodd" d="M143.721 18.5607L140.841 15.6807L143.801 12.7207L147.881 14.9607C148.201 15.1207 148.361 15.3607 148.361 15.6007C148.361 15.8407 148.201 16.0807 147.881 16.2407L143.721 18.5607Z" fill="url(#paint2_linear_3520_26007)"/>
<path fill-rule="evenodd" clip-rule="evenodd" d="M131.56 24.9597L140.84 15.6797L143.72 18.5597L132.44 24.7197C132.2 24.8797 132.04 24.9597 131.56 24.9597C131.64 24.9597 131.64 24.9597 131.56 24.9597Z" fill="url(#paint3_linear_3520_26007)"/>
<path fill-rule="evenodd" clip-rule="evenodd" d="M179.879 27.1204C179.479 26.8004 179.159 26.2404 178.999 25.9204L180.279 25.3604C180.359 25.5204 180.519 25.7604 180.679 26.0004C180.999 26.3204 181.479 26.6404 181.959 26.6404C182.439 26.6404 182.999 26.4004 183.319 26.0004C183.559 25.6004 183.719 25.2004 183.719 24.6404V24.1604C182.759 25.3604 180.759 25.2004 179.639 23.9204C178.439 22.6404 178.439 20.4804 179.639 19.2004C180.839 18.0004 182.599 17.8404 183.639 18.9604V18.4004H184.999V24.4004C184.999 25.9204 184.439 26.8004 183.719 27.3604C183.239 27.7604 182.519 27.9204 181.879 27.9204C181.159 27.8404 180.439 27.6004 179.879 27.1204ZM213.399 27.4404L214.759 24.2404L212.359 18.7204H213.719L215.399 22.6404L217.079 18.7204H218.439L214.759 27.4404H213.399ZM206.919 24.4004C206.519 24.0004 206.359 23.4404 206.359 22.8804C206.359 22.4004 206.519 21.9204 206.839 21.6004C207.399 21.0404 208.199 20.8004 209.079 20.8004C209.639 20.8004 210.119 20.8804 210.519 21.1204C210.519 20.1604 209.719 19.7604 209.079 19.7604C208.519 19.7604 207.959 20.0804 207.719 20.6404L206.519 20.1604C206.759 19.6004 207.399 18.5604 208.999 18.5604C209.799 18.5604 210.599 18.8004 211.079 19.3604C211.559 19.9204 211.719 20.5604 211.719 21.4404V24.8004H210.359V24.2404C210.199 24.4804 209.879 24.6404 209.639 24.8004C209.319 24.9604 208.919 25.0404 208.519 25.0404C208.039 24.9604 207.319 24.8004 206.919 24.4004ZM164.279 21.5204C164.279 19.9204 165.479 18.1604 167.639 18.1604C169.719 18.1604 170.999 19.9204 170.999 21.5204C170.999 23.1204 169.799 24.8804 167.639 24.8804C165.479 24.8804 164.279 23.1204 164.279 21.5204ZM171.479 21.5204C171.479 19.9204 172.679 18.1604 174.839 18.1604C176.919 18.1604 178.199 19.9204 178.199 21.5204C178.199 23.1204 176.999 24.8804 174.839 24.8804C172.759 24.8804 171.479 23.1204 171.479 21.5204ZM155.239 23.2804C153.239 21.2804 153.319 18.0004 155.319 15.9204C156.359 14.8804 157.639 14.4004 158.999 14.4004C160.279 14.4004 161.559 14.8804 162.519 15.8404L161.559 16.8804C160.119 15.4404 157.799 15.5204 156.439 16.9604C154.999 18.4804 154.999 20.8004 156.439 22.3204C157.879 23.8404 160.279 23.9204 161.719 22.4004C162.199 21.9204 162.359 21.2804 162.439 20.6404H159.079V19.2004H163.799C163.879 19.5204 163.879 19.9204 163.879 20.3204C163.879 21.5204 163.399 22.7204 162.599 23.5204C161.719 24.4004 160.439 24.8804 159.159 24.8804C157.719 24.8004 156.279 24.3204 155.239 23.2804ZM189.079 23.8404C187.879 22.5604 187.879 20.4004 189.079 19.0404C190.279 17.7604 192.279 17.7604 193.399 19.0404C193.799 19.4404 194.039 20.0004 194.279 20.5604L189.879 22.4004C190.119 22.9604 190.679 23.4404 191.479 23.4404C192.199 23.4404 192.679 23.2004 193.159 22.4804L194.359 23.2804C194.199 23.4404 194.039 23.6004 193.959 23.7604C192.599 25.1204 190.279 25.1204 189.079 23.8404ZM197.399 24.8004V15.9204H200.279C201.959 15.9204 203.319 17.1204 203.319 18.5604C203.319 20.0004 202.119 21.2004 200.599 21.2004H198.839V24.7204H197.399V24.8004ZM204.119 24.8004V15.9204H205.479V24.8004H204.119ZM186.039 24.6404V14.7204H187.479V24.6404H186.039ZM210.439 22.1604C210.119 21.9204 209.639 21.8404 209.159 21.8404C208.199 21.8404 207.639 22.3204 207.639 22.8804C207.639 23.4404 208.199 23.7604 208.759 23.7604C209.559 23.7604 210.439 23.1204 210.439 22.1604ZM169.479 21.5204C169.479 20.5604 168.839 19.5204 167.639 19.5204C166.439 19.5204 165.799 20.5604 165.799 21.5204C165.799 22.4804 166.439 23.5204 167.639 23.5204C168.759 23.5204 169.479 22.4804 169.479 21.5204ZM176.679 21.5204C176.679 20.5604 176.039 19.5204 174.839 19.5204C173.639 19.5204 172.999 20.5604 172.999 21.5204C172.999 22.4804 173.639 23.5204 174.839 23.5204C176.039 23.5204 176.679 22.4804 176.679 21.5204ZM183.799 22.0804C183.799 22.0004 183.799 21.9204 183.879 21.8404C183.879 21.7604 183.879 21.6004 183.879 21.5204C183.879 21.4404 183.879 21.2804 183.879 21.2004V21.1204C183.879 21.0404 183.799 20.8804 183.799 20.8004C183.559 20.0004 182.839 19.4404 182.119 19.4404C181.159 19.4404 180.359 20.4004 180.359 21.4404C180.359 22.5604 181.159 23.4404 182.199 23.4404C182.839 23.5204 183.479 22.9604 183.799 22.0804ZM189.639 21.3604L192.599 20.0804C192.279 19.5204 191.799 19.3604 191.399 19.3604C190.199 19.4404 189.479 20.7204 189.639 21.3604ZM201.879 18.6404C201.879 17.8404 201.239 17.2804 200.359 17.2804H198.759V20.0804H200.439C201.239 20.0804 201.879 19.4404 201.879 18.6404Z" fill="white"/>
<path fill-rule="evenodd" clip-rule="evenodd" d="M214.6 25.8398C214.6 25.7598 214.6 25.7598 214.6 25.8398C214.52 25.7598 214.52 25.7598 214.6 25.8398C214.52 25.8398 214.52 25.8398 214.6 25.8398ZM214.6 25.7598C214.6 25.8398 214.6 25.8398 214.6 25.7598C214.6 25.8398 214.52 25.8398 214.6 25.7598Z" fill="white"/>
<path d="M154.12 8.07977C154.12 6.63977 155.16 5.75977 156.44 5.75977C157.32 5.75977 157.88 6.15977 158.28 6.71977L157.64 7.11977C157.4 6.79977 157 6.55977 156.44 6.55977C155.56 6.55977 154.92 7.19977 154.92 8.15977C154.92 9.11977 155.56 9.75977 156.44 9.75977C156.92 9.75977 157.32 9.51977 157.48 9.35977V8.63977H156.2V7.91977H158.36V9.59977C157.96 10.0798 157.32 10.3998 156.52 10.3998C155.16 10.3998 154.12 9.43977 154.12 8.07977Z" fill="white"/>
<path d="M159.319 10.3198V5.83984H162.359V6.55984H160.039V7.67984H162.279V8.39984H160.039V9.67984H162.359V10.3998L159.319 10.3198Z" fill="white"/>
<path d="M164.599 10.3198V6.55984H163.239V5.83984H166.759V6.55984H165.399V10.3198H164.599Z" fill="white"/>
<path d="M169.479 10.3198V5.83984H170.279V10.3198H169.479Z" fill="white"/>
<path d="M172.439 10.3198V6.55984H171.079V5.83984H174.599V6.55984H173.239V10.3198H172.439Z" fill="white"/>
<path d="M177.159 8.07977C177.159 6.71977 178.119 5.75977 179.479 5.75977C180.839 5.75977 181.799 6.71977 181.799 8.07977C181.799 9.43977 180.839 10.3998 179.479 10.3998C178.119 10.3998 177.159 9.35977 177.159 8.07977ZM180.919 8.07977C180.919 7.11977 180.359 6.47977 179.399 6.47977C178.519 6.47977 177.879 7.19977 177.879 8.07977C177.879 9.03977 178.439 9.67977 179.399 9.67977C180.359 9.67977 180.919 8.95977 180.919 8.07977Z" fill="white"/>
<path d="M185.799 10.3198L183.479 7.11984V10.3198H182.679V5.83984H183.479L185.799 8.95984V5.83984H186.599V10.3198H185.799Z" fill="white"/>
</g>
</g>
<defs>
<linearGradient id="paint0_linear_3520_26007" x1="153.241" y1="-1.95024" x2="155.601" y2="31.1864" gradientUnits="userSpaceOnUse">
<stop stop-color="#006884"/>
<stop offset="1" stop-color="#8AD1D0"/>
</linearGradient>
<linearGradient id="paint1_linear_3520_26007" x1="115.291" y1="5.04326" x2="163.355" y2="68.214" gradientUnits="userSpaceOnUse">
<stop stop-color="#24BBB6"/>
<stop offset="1" stop-color="#DBE692"/>
</linearGradient>
<linearGradient id="paint2_linear_3520_26007" x1="174.14" y1="33.8422" x2="174.14" y2="-1.00007" gradientUnits="userSpaceOnUse">
<stop stop-color="#FCC072"/>
<stop offset="1" stop-color="#F58A5B"/>
</linearGradient>
<linearGradient id="paint3_linear_3520_26007" x1="134.417" y1="37.7075" x2="157.446" y2="-19.5289" gradientUnits="userSpaceOnUse">
<stop stop-color="#712B8F"/>
<stop offset="1" stop-color="#EA1D27"/>
</linearGradient>
<clipPath id="clip0_3520_26007">
<rect width="102.4" height="32" fill="white" transform="translate(0.599609)"/>
</clipPath>
<clipPath id="clip1_3520_26007">
<rect width="102.4" height="32" fill="white" transform="translate(123)"/>
</clipPath>
</defs>
</svg>
