<svg width="24" height="24" viewBox="0 0 24 24" fill="none" xmlns="http://www.w3.org/2000/svg">
<path d="M9 23.3701H15C20 23.3701 22 21.3701 22 16.3701V10.3701C22 5.37012 20 3.37012 15 3.37012H9C4 3.37012 2 5.37012 2 10.3701V16.3701C2 21.3701 4 23.3701 9 23.3701Z" stroke="#676767" stroke-width="1.2" stroke-linecap="round" stroke-linejoin="round"/>
<path d="M12 16.3936C13.933 16.3936 15.5 14.8266 15.5 12.8936C15.5 10.9606 13.933 9.39355 12 9.39355C10.067 9.39355 8.5 10.9606 8.5 12.8936C8.5 14.8266 10.067 16.3936 12 16.3936Z" stroke="#676767" stroke-width="1.2" stroke-linecap="round" stroke-linejoin="round"/>
<path d="M17.6348 8.37012H17.6464" stroke="#676767" stroke-width="1.2" stroke-linecap="round" stroke-linejoin="round"/>
</svg>
