<svg width="24" height="24" viewBox="0 0 24 24" fill="none" xmlns="http://www.w3.org/2000/svg">
<path fill-rule="evenodd" clip-rule="evenodd" d="M13.7993 9.57695V10.3968C14.5918 9.9054 15.5066 9.619 16.8966 9.619C21.4208 9.619 22 12.9942 22 15.9345V23.954L16.769 24V16.33C16.769 15.0424 16.3069 14.7981 15.4526 14.7981C14.6405 14.7981 14.1363 15.0542 14.1363 16.33V24L8.83683 23.954V9.57694L13.7993 9.57695ZM6.26527 9.56829V23.994H1V9.5683H6.26527V9.56829ZM4.94895 10.8821H2.31632V22.6801H4.94895V10.8821V10.8821ZM12.483 10.8908H10.1531V22.652L12.82 22.6757V16.33C12.82 13.8534 14.4693 13.4842 15.4526 13.4842C16.6531 13.4842 18.0853 13.9782 18.0853 16.33V22.6757L20.6837 22.652V15.9345C20.6837 12.2887 19.6583 10.9328 16.8966 10.9328C15.2368 10.9328 14.5181 11.4242 13.8138 12.0154L13.6309 12.1704H12.483V10.8908ZM3.63263 3C5.08454 3 6.26527 4.17849 6.26527 5.62763C6.26527 7.07677 5.08454 8.25525 3.63263 8.25525C2.18074 8.25525 1 7.07677 1 5.62763C1 4.17849 2.18074 3 3.63263 3ZM3.63263 4.31381C2.90734 4.31381 2.31632 4.90372 2.31632 5.62763C2.31632 6.35153 2.90734 6.94144 3.63263 6.94144C4.35792 6.94144 4.94895 6.35153 4.94895 5.62763C4.94895 4.90372 4.35792 4.31381 3.63263 4.31381Z" fill="#676767"/>
</svg>
