<svg width="228" height="227" viewBox="0 0 228 227" fill="none" xmlns="http://www.w3.org/2000/svg">
<rect x="54" y="129" width="119" height="41" fill="#EEEEEE"/>
<path fill-rule="evenodd" clip-rule="evenodd" d="M50.1566 95.1001V75.667C50.1566 40.4071 78.7404 11.8232 114 11.8232C149.26 11.8232 177.844 40.4071 177.844 75.667V95.1001C188.388 95.888 195.254 97.8752 200.273 102.895C208.584 111.206 208.584 124.582 208.584 151.334C208.584 178.086 208.584 191.462 200.273 199.773C191.962 208.084 178.586 208.084 151.834 208.084H76.167C49.4148 208.084 36.0387 208.084 27.7278 199.773C19.417 191.462 19.417 178.086 19.417 151.334C19.417 124.582 19.417 111.206 27.7278 102.895C32.7467 97.8752 39.6129 95.888 50.1566 95.1001ZM64.3441 75.667C64.3441 48.2426 86.576 26.0107 114 26.0107C141.425 26.0107 163.657 48.2426 163.657 75.667V94.6177C160.034 94.5837 156.104 94.5837 151.834 94.5837H76.167C71.8965 94.5837 67.9667 94.5837 64.3441 94.6177V75.667ZM76.167 160.792C81.3906 160.792 85.6253 156.558 85.6253 151.334C85.6253 146.11 81.3906 141.875 76.167 141.875C70.9433 141.875 66.7087 146.11 66.7087 151.334C66.7087 156.558 70.9433 160.792 76.167 160.792ZM114 160.792C119.224 160.792 123.459 156.558 123.459 151.334C123.459 146.11 119.224 141.875 114 141.875C108.776 141.875 104.542 146.11 104.542 151.334C104.542 156.558 108.776 160.792 114 160.792ZM161.292 151.334C161.292 156.558 157.058 160.792 151.834 160.792C146.61 160.792 142.375 156.558 142.375 151.334C142.375 146.11 146.61 141.875 151.834 141.875C157.058 141.875 161.292 146.11 161.292 151.334Z" fill="url(#paint0_linear_2369_22058)"/>
<defs>
<linearGradient id="paint0_linear_2369_22058" x1="19" y1="12" x2="209" y2="208" gradientUnits="userSpaceOnUse">
<stop stop-color="#557FFE"/>
<stop offset="1" stop-color="#292929"/>
</linearGradient>
</defs>
</svg>
