<svg width="237" height="182" viewBox="0 0 237 182" fill="none" xmlns="http://www.w3.org/2000/svg">
    <path
        d="M4.625 67.6694C4.625 62.1079 7.70212 57.0029 12.6199 54.4056L108.653 3.68751C113.023 1.37931 118.25 1.37224 122.627 3.66863L219.344 54.4144C224.282 57.0051 227.375 62.121 227.375 67.6971V104.774C227.375 113.058 220.659 119.774 212.375 119.774H19.625C11.3407 119.774 4.625 113.058 4.625 104.774V67.6694Z"
        fill="#212121" />
    <rect x="27.2656" y="18.9883" width="173.088" height="132.92" rx="10" fill="white" />
    <g filter="url(#filter0_d_2345_22100)">
        <path
            d="M4.625 74.2839C4.625 66.7532 12.6342 61.9247 19.2938 65.4407L118.214 117.666C120.753 119.006 122.593 121.373 123.267 124.164L134.202 169.507C135.72 175.799 130.952 181.852 124.481 181.852H14.625C9.10214 181.852 4.625 177.375 4.625 171.852V74.2839Z"
            fill="#323232" />
    </g>
    <g filter="url(#filter1_d_2345_22100)">
        <path
            d="M227.375 74.436C227.375 66.8698 219.297 62.0444 212.635 65.6307L119.434 115.8C116.195 117.544 114.174 120.926 114.174 124.605V171.852C114.174 177.375 118.651 181.852 124.174 181.852H217.375C222.898 181.852 227.375 177.375 227.375 171.852V74.436Z"
            fill="#323232" />
    </g>
    <g clip-path="url(#clip0_2345_22100)">
        <rect x="90.8027" y="57.6963" width="46.741" height="46.741" rx="23.3705" fill="#557FFE" />
        <path
            d="M114.173 57.6963C101.266 57.6963 90.8027 68.1597 90.8027 81.0668C90.8027 93.9746 101.266 104.437 114.173 104.437C127.081 104.437 137.544 93.9746 137.544 81.0668C137.544 68.1597 127.081 57.6963 114.173 57.6963ZM114.173 101.562C102.898 101.562 93.724 92.3423 93.724 81.0667C93.724 69.7912 102.898 60.6175 114.173 60.6175C125.449 60.6175 134.622 69.7912 134.622 81.0667C134.622 92.3422 125.449 101.562 114.173 101.562ZM123.5 72.5154L109.788 86.3135L103.613 80.1385C103.043 79.5681 102.118 79.5681 101.547 80.1385C100.977 80.7089 100.977 81.6335 101.547 82.2039L108.777 89.4341C109.347 90.0038 110.272 90.0038 110.843 89.4341C110.909 89.3684 110.965 89.2968 111.016 89.2224L125.567 74.5814C126.137 74.011 126.137 73.0864 125.567 72.5154C124.996 71.945 124.071 71.945 123.5 72.5154Z"
            fill="white" />
    </g>
    <rect x="95.8027" y="62.6963" width="36.741" height="36.741" rx="18.3705" stroke="#557FFE"
        stroke-width="10" />
    <rect x="49.1758" y="34.3252" width="56.2352" height="4.38197" rx="2" fill="#323232" />
    <rect x="49.1758" y="43.8193" width="46.741" height="4.38197" rx="2" fill="#323232" />
    <rect x="49.1758" y="53.3135" width="32.1344" height="4.38197" rx="2" fill="#323232" />
    <path
        d="M4.625 67.6694C4.625 62.1079 7.70212 57.0029 12.6199 54.4056L108.653 3.68751C113.023 1.37931 118.25 1.37224 122.627 3.66863L219.344 54.4144C224.282 57.0051 227.375 62.121 227.375 67.6971V104.774C227.375 113.058 220.659 119.774 212.375 119.774H19.625C11.3407 119.774 4.625 113.058 4.625 104.774V67.6694Z"
        fill="#212121" />
    <rect x="27.2656" y="18.9883" width="173.088" height="132.92" rx="10" fill="white" />
    <rect x="40" y="34" width="70" height="3" rx="1.46066" fill="#557FFE" />
    <rect x="40" y="41" width="56" height="3" rx="1.46066" fill="#557FFE" />
    <rect x="40" y="49" width="41" height="3" rx="1.46066" fill="#557FFE" />
    <path
        d="M4.625 74.2839C4.625 66.7532 12.6342 61.9247 19.2938 65.4407L118.214 117.666C120.753 119.006 122.593 121.373 123.267 124.164L134.202 169.507C135.72 175.799 130.952 181.852 124.481 181.852H14.625C9.10214 181.852 4.625 177.375 4.625 171.852V74.2839Z"
        fill="#212121" />
    <path
        d="M227.375 74.436C227.375 66.8698 219.297 62.0444 212.635 65.6307L119.434 115.8C116.195 117.544 114.174 120.926 114.174 124.605V171.852C114.174 177.375 118.651 181.852 124.174 181.852H217.375C222.898 181.852 227.375 177.375 227.375 171.852V74.436Z"
        fill="#212121" />
    <g clip-path="url(#clip1_2345_22100)">
        <rect x="93" y="48" width="46.741" height="46.741" rx="23.3705" fill="#557FFE" />
        <path
            d="M116.37 48C103.463 48 93 58.4634 93 71.3705C93 84.2783 103.463 94.741 116.37 94.741C129.278 94.741 139.741 84.2783 139.741 71.3705C139.741 58.4634 129.278 48 116.37 48ZM116.37 91.8657C105.095 91.8657 95.9213 82.646 95.9213 71.3704C95.9213 60.0949 105.095 50.9212 116.37 50.9212C127.646 50.9212 136.82 60.0949 136.82 71.3704C136.82 82.6459 127.646 91.8657 116.37 91.8657ZM125.698 62.8191L111.986 76.6172L105.811 70.4422C105.24 69.8719 104.316 69.8719 103.745 70.4422C103.174 71.0126 103.174 71.9372 103.745 72.5076L110.974 79.7379C111.544 80.3075 112.469 80.3075 113.04 79.7379C113.106 79.6721 113.162 79.6005 113.213 79.5261L127.764 64.8851C128.334 64.3147 128.334 63.3902 127.764 62.8191C127.193 62.2487 126.269 62.2487 125.698 62.8191Z"
            fill="white" />
    </g>
    <rect x="98" y="53" width="36.741" height="36.741" rx="18.3705" stroke="#557FFE"
        stroke-width="10" />
    <defs>
        <filter id="filter0_d_2345_22100" x="0.625" y="56.2705" width="137.861" height="125.581"
            filterUnits="userSpaceOnUse" color-interpolation-filters="sRGB">
            <feFlood flood-opacity="0" result="BackgroundImageFix" />
            <feColorMatrix in="SourceAlpha" type="matrix"
                values="0 0 0 0 0 0 0 0 0 0 0 0 0 0 0 0 0 0 127 0" result="hardAlpha" />
            <feOffset dy="-4" />
            <feGaussianBlur stdDeviation="2" />
            <feComposite in2="hardAlpha" operator="out" />
            <feColorMatrix type="matrix" values="0 0 0 0 0 0 0 0 0 0 0 0 0 0 0 0 0 0 0.25 0" />
            <feBlend mode="normal" in2="BackgroundImageFix" result="effect1_dropShadow_2345_22100" />
            <feBlend mode="normal" in="SourceGraphic" in2="effect1_dropShadow_2345_22100"
                result="shape" />
        </filter>
        <filter id="filter1_d_2345_22100" x="114.174" y="56.4219" width="122.201" height="125.43"
            filterUnits="userSpaceOnUse" color-interpolation-filters="sRGB">
            <feFlood flood-opacity="0" result="BackgroundImageFix" />
            <feColorMatrix in="SourceAlpha" type="matrix"
                values="0 0 0 0 0 0 0 0 0 0 0 0 0 0 0 0 0 0 127 0" result="hardAlpha" />
            <feOffset dx="5" dy="-4" />
            <feGaussianBlur stdDeviation="2" />
            <feComposite in2="hardAlpha" operator="out" />
            <feColorMatrix type="matrix" values="0 0 0 0 0 0 0 0 0 0 0 0 0 0 0 0 0 0 0.25 0" />
            <feBlend mode="normal" in2="BackgroundImageFix" result="effect1_dropShadow_2345_22100" />
            <feBlend mode="normal" in="SourceGraphic" in2="effect1_dropShadow_2345_22100"
                result="shape" />
        </filter>
        <clipPath id="clip0_2345_22100">
            <rect x="90.8027" y="57.6963" width="46.741" height="46.741" rx="23.3705" fill="white" />
        </clipPath>
        <clipPath id="clip1_2345_22100">
            <rect x="93" y="48" width="46.741" height="46.741" rx="23.3705" fill="white" />
        </clipPath>
    </defs>
</svg>
    