<svg width="410" height="106" viewBox="0 0 410 106" fill="none" xmlns="http://www.w3.org/2000/svg">
<rect x="0.5" width="409" height="106" rx="15" fill="white"/>
<path d="M24.324 65.21C23.5867 65.21 22.903 65.0817 22.273 64.825C21.6477 64.5637 21.1017 64.202 20.635 63.74C20.173 63.278 19.8113 62.7367 19.55 62.116C19.2933 61.4953 19.165 60.8233 19.165 60.1C19.165 59.372 19.2933 58.6977 19.55 58.077C19.8113 57.4563 20.173 56.915 20.635 56.453C21.1017 55.991 21.6477 55.6317 22.273 55.375C22.903 55.1183 23.5867 54.99 24.324 54.99C25.0567 54.99 25.7357 55.1207 26.361 55.382C26.9863 55.6433 27.5323 56.0073 27.999 56.474C28.4657 56.9407 28.8273 57.4843 29.084 58.105C29.3453 58.721 29.476 59.386 29.476 60.1C29.476 60.8233 29.3453 61.4953 29.084 62.116C28.8273 62.7367 28.4657 63.278 27.999 63.74C27.5323 64.202 26.9863 64.5637 26.361 64.825C25.7357 65.0817 25.0567 65.21 24.324 65.21ZM24.324 63.726C24.8187 63.726 25.2783 63.642 25.703 63.474C26.1323 63.3013 26.5057 63.0563 26.823 62.739C27.1403 62.417 27.3877 62.0343 27.565 61.591C27.747 61.143 27.838 60.646 27.838 60.1C27.838 59.3673 27.6817 58.7303 27.369 58.189C27.061 57.643 26.641 57.2207 26.109 56.922C25.577 56.6233 24.982 56.474 24.324 56.474C23.8293 56.474 23.3673 56.5603 22.938 56.733C22.5133 56.901 22.14 57.1437 21.818 57.461C21.5007 57.7783 21.251 58.161 21.069 58.609C20.8917 59.0523 20.803 59.5493 20.803 60.1C20.803 60.8327 20.9593 61.472 21.272 62.018C21.5847 62.5593 22.0047 62.9793 22.532 63.278C23.064 63.5767 23.6613 63.726 24.324 63.726ZM31.2058 65V58.07H32.7458V59.029C33.0071 58.595 33.3244 58.2917 33.6978 58.119C34.0711 57.9417 34.4724 57.853 34.9018 57.853C35.0418 57.853 35.1748 57.86 35.3008 57.874C35.4268 57.888 35.5481 57.909 35.6648 57.937L35.4618 59.526C35.3218 59.484 35.1794 59.4513 35.0348 59.428C34.8901 59.4047 34.7454 59.393 34.6008 59.393C34.0641 59.393 33.6208 59.5587 33.2708 59.89C32.9208 60.2167 32.7458 60.6623 32.7458 61.227V65H31.2058ZM39.6882 65.21C39.0116 65.21 38.4119 65.0513 37.8892 64.734C37.3666 64.412 36.9559 63.9757 36.6572 63.425C36.3632 62.8697 36.2162 62.2397 36.2162 61.535C36.2162 61.0263 36.3002 60.5503 36.4682 60.107C36.6362 59.659 36.8742 59.267 37.1822 58.931C37.4949 58.595 37.8636 58.3337 38.2882 58.147C38.7176 57.9557 39.1912 57.86 39.7092 57.86C40.3392 57.86 40.8852 57.986 41.3472 58.238C41.8092 58.49 42.1942 58.84 42.5022 59.288L42.1802 59.631V54.92H43.7202V65H42.3342V63.334L42.5582 63.684C42.3062 64.1227 41.9446 64.4867 41.4732 64.776C41.0066 65.0653 40.4116 65.21 39.6882 65.21ZM39.9682 63.845C40.3976 63.845 40.7779 63.7517 41.1092 63.565C41.4452 63.3737 41.7089 63.1053 41.9002 62.76C42.0916 62.4147 42.1872 62.0063 42.1872 61.535C42.1872 61.0637 42.0916 60.6553 41.9002 60.31C41.7089 59.96 41.4452 59.6917 41.1092 59.505C40.7779 59.3183 40.3976 59.225 39.9682 59.225C39.5389 59.225 39.1586 59.3183 38.8272 59.505C38.4959 59.6917 38.2346 59.96 38.0432 60.31C37.8519 60.6553 37.7562 61.0637 37.7562 61.535C37.7562 62.0063 37.8519 62.4147 38.0432 62.76C38.2346 63.1053 38.4959 63.3737 38.8272 63.565C39.1632 63.7517 39.5436 63.845 39.9682 63.845ZM49.026 65.21C48.2793 65.21 47.6237 65.0583 47.059 64.755C46.4943 64.447 46.0533 64.0177 45.736 63.467C45.4233 62.9163 45.267 62.277 45.267 61.549C45.267 61.017 45.358 60.527 45.54 60.079C45.722 59.6263 45.9787 59.2343 46.31 58.903C46.6413 58.5717 47.0287 58.315 47.472 58.133C47.92 57.951 48.4077 57.86 48.935 57.86C49.509 57.86 50.02 57.9627 50.468 58.168C50.916 58.3687 51.287 58.651 51.581 59.015C51.8797 59.379 52.0897 59.806 52.211 60.296C52.337 60.7813 52.358 61.3087 52.274 61.878H46.744C46.7347 62.2933 46.8257 62.6573 47.017 62.97C47.2083 63.278 47.4813 63.5183 47.836 63.691C48.1953 63.8637 48.6177 63.95 49.103 63.95C49.495 63.95 49.873 63.8917 50.237 63.775C50.6057 63.6537 50.9393 63.4763 51.238 63.243L51.833 64.349C51.609 64.531 51.3383 64.6873 51.021 64.818C50.7037 64.944 50.3723 65.0397 50.027 65.105C49.6817 65.175 49.348 65.21 49.026 65.21ZM46.835 60.744H50.762C50.748 60.2213 50.58 59.8107 50.258 59.512C49.9407 59.2133 49.488 59.064 48.9 59.064C48.3307 59.064 47.857 59.2133 47.479 59.512C47.1057 59.8107 46.891 60.2213 46.835 60.744ZM53.8737 65V58.07H55.4137V59.029C55.6751 58.595 55.9924 58.2917 56.3657 58.119C56.7391 57.9417 57.1404 57.853 57.5697 57.853C57.7097 57.853 57.8427 57.86 57.9687 57.874C58.0947 57.888 58.2161 57.909 58.3327 57.937L58.1297 59.526C57.9897 59.484 57.8474 59.4513 57.7027 59.428C57.5581 59.4047 57.4134 59.393 57.2687 59.393C56.7321 59.393 56.2887 59.5587 55.9387 59.89C55.5887 60.2167 55.4137 60.6623 55.4137 61.227V65H53.8737ZM62.6432 65.21C61.8965 65.21 61.2409 65.0583 60.6762 64.755C60.1115 64.447 59.6705 64.0177 59.3532 63.467C59.0405 62.9163 58.8842 62.277 58.8842 61.549C58.8842 61.017 58.9752 60.527 59.1572 60.079C59.3392 59.6263 59.5959 59.2343 59.9272 58.903C60.2585 58.5717 60.6459 58.315 61.0892 58.133C61.5372 57.951 62.0249 57.86 62.5522 57.86C63.1262 57.86 63.6372 57.9627 64.0852 58.168C64.5332 58.3687 64.9042 58.651 65.1982 59.015C65.4969 59.379 65.7069 59.806 65.8282 60.296C65.9542 60.7813 65.9752 61.3087 65.8912 61.878H60.3612C60.3519 62.2933 60.4429 62.6573 60.6342 62.97C60.8255 63.278 61.0985 63.5183 61.4532 63.691C61.8125 63.8637 62.2349 63.95 62.7202 63.95C63.1122 63.95 63.4902 63.8917 63.8542 63.775C64.2229 63.6537 64.5565 63.4763 64.8552 63.243L65.4502 64.349C65.2262 64.531 64.9555 64.6873 64.6382 64.818C64.3209 64.944 63.9895 65.0397 63.6442 65.105C63.2989 65.175 62.9652 65.21 62.6432 65.21ZM60.4522 60.744H64.3792C64.3652 60.2213 64.1972 59.8107 63.8752 59.512C63.5579 59.2133 63.1052 59.064 62.5172 59.064C61.9479 59.064 61.4742 59.2133 61.0962 59.512C60.7229 59.8107 60.5082 60.2213 60.4522 60.744ZM70.4363 65.21C69.7596 65.21 69.1599 65.0513 68.6373 64.734C68.1146 64.412 67.7039 63.9757 67.4053 63.425C67.1113 62.8697 66.9643 62.2397 66.9643 61.535C66.9643 61.0263 67.0483 60.5503 67.2163 60.107C67.3843 59.659 67.6223 59.267 67.9303 58.931C68.2429 58.595 68.6116 58.3337 69.0363 58.147C69.4656 57.9557 69.9393 57.86 70.4573 57.86C71.0873 57.86 71.6333 57.986 72.0953 58.238C72.5573 58.49 72.9423 58.84 73.2503 59.288L72.9283 59.631V54.92H74.4683V65H73.0823V63.334L73.3063 63.684C73.0543 64.1227 72.6926 64.4867 72.2213 64.776C71.7546 65.0653 71.1596 65.21 70.4363 65.21ZM70.7163 63.845C71.1456 63.845 71.5259 63.7517 71.8573 63.565C72.1933 63.3737 72.4569 63.1053 72.6483 62.76C72.8396 62.4147 72.9353 62.0063 72.9353 61.535C72.9353 61.0637 72.8396 60.6553 72.6483 60.31C72.4569 59.96 72.1933 59.6917 71.8573 59.505C71.5259 59.3183 71.1456 59.225 70.7163 59.225C70.2869 59.225 69.9066 59.3183 69.5753 59.505C69.2439 59.6917 68.9826 59.96 68.7913 60.31C68.5999 60.6553 68.5043 61.0637 68.5043 61.535C68.5043 62.0063 68.5999 62.4147 68.7913 62.76C68.9826 63.1053 69.2439 63.3737 69.5753 63.565C69.9113 63.7517 70.2916 63.845 70.7163 63.845Z" fill="#323232"/>
<path d="M19.865 79.15L19.48 78.29C19.9833 78.23 20.43 78.1183 20.82 77.955C21.21 77.7917 21.545 77.5883 21.825 77.345C22.1083 77.0983 22.3383 76.8267 22.515 76.53C22.695 76.23 22.825 75.9167 22.905 75.59C22.7283 75.8333 22.5017 76.0267 22.225 76.17C21.9517 76.31 21.6517 76.38 21.325 76.38C20.885 76.38 20.4883 76.285 20.135 76.095C19.785 75.905 19.5067 75.6417 19.3 75.305C19.0967 74.965 18.995 74.5767 18.995 74.14C18.995 73.7067 19.1033 73.3183 19.32 72.975C19.54 72.6283 19.8417 72.355 20.225 72.155C20.6117 71.9517 21.0533 71.85 21.55 71.85C22.0633 71.85 22.5183 71.9617 22.915 72.185C23.315 72.405 23.6283 72.725 23.855 73.145C24.085 73.5617 24.2 74.0667 24.2 74.66C24.2 75.26 24.09 75.8133 23.87 76.32C23.6533 76.8233 23.3483 77.27 22.955 77.66C22.565 78.05 22.1067 78.3717 21.58 78.625C21.0533 78.8783 20.4817 79.0533 19.865 79.15ZM21.55 75.47C21.83 75.47 22.08 75.4117 22.3 75.295C22.52 75.1783 22.695 75.0183 22.825 74.815C22.955 74.6117 23.02 74.3833 23.02 74.13C23.02 73.87 22.9567 73.64 22.83 73.44C22.7067 73.24 22.5333 73.0833 22.31 72.97C22.09 72.8567 21.8367 72.8 21.55 72.8C21.2667 72.8 21.0133 72.8567 20.79 72.97C20.5667 73.0833 20.3917 73.24 20.265 73.44C20.1383 73.64 20.075 73.87 20.075 74.13C20.075 74.3833 20.14 74.6117 20.27 74.815C20.4033 75.0183 20.58 75.1783 20.8 75.295C21.0233 75.4117 21.2733 75.47 21.55 75.47ZM27.6341 79.15C27.1507 79.15 26.7641 79.01 26.4741 78.73C26.1841 78.45 26.0391 78.0217 26.0391 77.445V72.605H27.1391V74.05H28.5141V74.96H27.1391V77.205C27.1391 77.5517 27.2041 77.7967 27.3341 77.94C27.4674 78.08 27.6541 78.15 27.8941 78.15C28.0107 78.15 28.1207 78.1367 28.2241 78.11C28.3274 78.0833 28.4207 78.0483 28.5041 78.005L28.6991 78.895C28.5557 78.9683 28.3907 79.0283 28.2041 79.075C28.0207 79.125 27.8307 79.15 27.6341 79.15ZM24.9541 74.96V74.05H26.1841V74.96H24.9541ZM29.8509 79V71.8H30.9509V75.06L30.7259 74.815C30.9459 74.5083 31.2109 74.28 31.5209 74.13C31.8309 73.9767 32.1576 73.9 32.5009 73.9C32.9509 73.9 33.3259 73.9917 33.6259 74.175C33.9259 74.355 34.1509 74.5883 34.3009 74.875C34.4509 75.1617 34.5259 75.46 34.5259 75.77V79H33.4259V76.085C33.4259 75.7383 33.3176 75.4567 33.1009 75.24C32.8843 75.0233 32.5893 74.9133 32.2159 74.91C31.9693 74.91 31.7509 74.965 31.5609 75.075C31.3709 75.1817 31.2209 75.3333 31.1109 75.53C31.0043 75.7267 30.9509 75.955 30.9509 76.215V79H29.8509ZM40.8795 79.15C40.3961 79.15 39.9228 79.0817 39.4595 78.945C38.9995 78.805 38.6111 78.605 38.2945 78.345L38.8445 77.49C39.0111 77.6333 39.2045 77.7567 39.4245 77.86C39.6478 77.9633 39.8845 78.0433 40.1345 78.1C40.3845 78.1533 40.6345 78.18 40.8845 78.18C41.3411 78.18 41.7095 78.0933 41.9895 77.92C42.2728 77.7467 42.4145 77.4933 42.4145 77.16C42.4145 76.91 42.3178 76.6983 42.1245 76.525C41.9345 76.3517 41.5811 76.1917 41.0645 76.045L40.3445 75.835C39.6845 75.645 39.2028 75.3933 38.8995 75.08C38.5995 74.7667 38.4495 74.3767 38.4495 73.91C38.4495 73.6 38.5111 73.32 38.6345 73.07C38.7611 72.82 38.9378 72.6033 39.1645 72.42C39.3945 72.2367 39.6645 72.0967 39.9745 72C40.2845 71.9033 40.6245 71.855 40.9945 71.855C41.4645 71.855 41.9011 71.9233 42.3045 72.06C42.7078 72.1967 43.0411 72.38 43.3045 72.61L42.7345 73.44C42.5911 73.31 42.4228 73.1983 42.2295 73.105C42.0395 73.0117 41.8345 72.94 41.6145 72.89C41.3945 72.84 41.1711 72.815 40.9445 72.815C40.6645 72.815 40.4161 72.8567 40.1995 72.94C39.9861 73.02 39.8195 73.1367 39.6995 73.29C39.5795 73.4433 39.5195 73.63 39.5195 73.85C39.5195 74.01 39.5595 74.15 39.6395 74.27C39.7195 74.39 39.8561 74.5 40.0495 74.6C40.2461 74.6967 40.5161 74.795 40.8595 74.895L41.6195 75.12C42.2661 75.31 42.7395 75.5583 43.0395 75.865C43.3395 76.1683 43.4895 76.5633 43.4895 77.05C43.4895 77.4667 43.3861 77.8333 43.1795 78.15C42.9761 78.4633 42.6795 78.7083 42.2895 78.885C41.8995 79.0617 41.4295 79.15 40.8795 79.15ZM46.9938 79.15C46.4604 79.15 45.9921 79.0417 45.5888 78.825C45.1854 78.605 44.8704 78.2983 44.6438 77.905C44.4204 77.5117 44.3088 77.055 44.3088 76.535C44.3088 76.155 44.3738 75.805 44.5038 75.485C44.6338 75.1617 44.8171 74.8817 45.0538 74.645C45.2904 74.4083 45.5671 74.225 45.8838 74.095C46.2038 73.965 46.5521 73.9 46.9288 73.9C47.3388 73.9 47.7038 73.9733 48.0238 74.12C48.3438 74.2633 48.6088 74.465 48.8188 74.725C49.0321 74.985 49.1821 75.29 49.2688 75.64C49.3588 75.9867 49.3738 76.3633 49.3138 76.77H45.3638C45.3571 77.0667 45.4221 77.3267 45.5588 77.55C45.6954 77.77 45.8904 77.9417 46.1438 78.065C46.4004 78.1883 46.7021 78.25 47.0488 78.25C47.3288 78.25 47.5988 78.2083 47.8588 78.125C48.1221 78.0383 48.3604 77.9117 48.5738 77.745L48.9988 78.535C48.8388 78.665 48.6454 78.7767 48.4188 78.87C48.1921 78.96 47.9554 79.0283 47.7088 79.075C47.4621 79.125 47.2238 79.15 46.9938 79.15ZM45.4288 75.96H48.2338C48.2238 75.5867 48.1038 75.2933 47.8738 75.08C47.6471 74.8667 47.3238 74.76 46.9038 74.76C46.4971 74.76 46.1588 74.8667 45.8888 75.08C45.6221 75.2933 45.4688 75.5867 45.4288 75.96ZM50.4564 81.1V74.05H51.4464V74.745C51.6431 74.495 51.8947 74.2917 52.2014 74.135C52.5081 73.9783 52.8864 73.9 53.3364 73.9C53.8197 73.9 54.2481 74.015 54.6214 74.245C54.9981 74.4717 55.2914 74.7833 55.5014 75.18C55.7114 75.5733 55.8164 76.0217 55.8164 76.525C55.8164 76.8883 55.7564 77.23 55.6364 77.55C55.5164 77.8667 55.3447 78.145 55.1214 78.385C54.9014 78.625 54.6381 78.8133 54.3314 78.95C54.0281 79.0833 53.6914 79.15 53.3214 79.15C52.9347 79.15 52.5947 79.08 52.3014 78.94C52.0081 78.8 51.7581 78.6117 51.5514 78.375V81.1H50.4564ZM53.1364 78.175C53.4431 78.175 53.7147 78.1083 53.9514 77.975C54.1914 77.8383 54.3781 77.6467 54.5114 77.4C54.6481 77.1533 54.7164 76.8617 54.7164 76.525C54.7164 76.1883 54.6481 75.8967 54.5114 75.65C54.3747 75.4 54.1864 75.2083 53.9464 75.075C53.7097 74.9417 53.4397 74.875 53.1364 74.875C52.8297 74.875 52.5564 74.9417 52.3164 75.075C52.0797 75.2083 51.8931 75.4 51.7564 75.65C51.6197 75.8967 51.5514 76.1883 51.5514 76.525C51.5514 76.8617 51.6197 77.1533 51.7564 77.4C51.8931 77.6467 52.0797 77.8383 52.3164 77.975C52.5564 78.1083 52.8297 78.175 53.1364 78.175ZM56.7786 80.51L56.3936 80C56.6436 79.88 56.8636 79.735 57.0536 79.565C57.2469 79.3983 57.3786 79.2333 57.4486 79.07C57.2953 79.08 57.1569 79.0567 57.0336 79C56.9103 78.9467 56.8119 78.8683 56.7386 78.765C56.6653 78.6583 56.6286 78.5333 56.6286 78.39C56.6286 78.1767 56.6986 78.0033 56.8386 77.87C56.9819 77.7333 57.1619 77.665 57.3786 77.665C57.6286 77.665 57.8286 77.7483 57.9786 77.915C58.1319 78.0783 58.2086 78.3033 58.2086 78.59C58.2086 78.81 58.1553 79.0317 58.0486 79.255C57.9419 79.4817 57.7819 79.7 57.5686 79.91C57.3586 80.1233 57.0953 80.3233 56.7786 80.51ZM61.7903 79V78.2L63.3053 76.815C63.7853 76.375 64.172 75.9967 64.4653 75.68C64.7586 75.36 64.972 75.0717 65.1053 74.815C65.2386 74.5583 65.3053 74.2983 65.3053 74.035C65.3053 73.6517 65.1736 73.3533 64.9103 73.14C64.6503 72.9233 64.287 72.815 63.8203 72.815C63.5103 72.815 63.2136 72.8683 62.9303 72.975C62.647 73.0817 62.4053 73.2367 62.2053 73.44L61.7953 72.625C62.0786 72.3717 62.4053 72.18 62.7753 72.05C63.1453 71.9167 63.5336 71.85 63.9403 71.85C64.4236 71.85 64.8453 71.9367 65.2053 72.11C65.5686 72.28 65.8503 72.5217 66.0503 72.835C66.2536 73.145 66.3553 73.5083 66.3553 73.925C66.3553 74.215 66.297 74.505 66.1803 74.795C66.067 75.0817 65.862 75.405 65.5653 75.765C65.272 76.125 64.8553 76.5567 64.3153 77.06L63.2403 78.05H66.5303V79H61.7903ZM69.7335 79.15C69.4435 79.15 69.1568 79.12 68.8735 79.06C68.5935 79 68.3352 78.9183 68.0985 78.815C67.8652 78.7083 67.6735 78.5867 67.5235 78.45L67.8985 77.53C68.1085 77.7267 68.3752 77.8833 68.6985 78C69.0218 78.1167 69.3435 78.175 69.6635 78.175C69.9802 78.175 70.2552 78.1217 70.4885 78.015C70.7218 77.9083 70.9018 77.7583 71.0285 77.565C71.1585 77.3717 71.2235 77.1433 71.2235 76.88C71.2235 76.48 71.0768 76.1683 70.7835 75.945C70.4935 75.7217 70.1068 75.61 69.6235 75.61C69.4935 75.61 69.3585 75.62 69.2185 75.64C69.0785 75.6567 68.9368 75.6817 68.7935 75.715L68.4685 74.98L70.6585 72.94H67.5785V72H71.9885V72.865L69.9035 74.89C70.3202 74.8833 70.7118 74.955 71.0785 75.105C71.4452 75.255 71.7402 75.4833 71.9635 75.79C72.1902 76.0933 72.3035 76.4767 72.3035 76.94C72.3035 77.38 72.1935 77.7667 71.9735 78.1C71.7535 78.43 71.4502 78.6883 71.0635 78.875C70.6768 79.0583 70.2335 79.15 69.7335 79.15Z" fill="#557FFE"/>
<path d="M121.535 79.15C121.015 79.15 120.552 79.0367 120.145 78.81C119.738 78.58 119.418 78.2683 119.185 77.875C118.955 77.4783 118.84 77.0283 118.84 76.525C118.84 76.145 118.908 75.7967 119.045 75.48C119.182 75.16 119.375 74.8817 119.625 74.645C119.875 74.4083 120.168 74.225 120.505 74.095C120.845 73.965 121.213 73.9 121.61 73.9C121.943 73.9 122.252 73.945 122.535 74.035C122.822 74.1217 123.085 74.2567 123.325 74.44L122.795 75.28C122.642 75.1433 122.465 75.0417 122.265 74.975C122.068 74.9083 121.858 74.875 121.635 74.875C121.288 74.875 120.99 74.94 120.74 75.07C120.49 75.2 120.295 75.3883 120.155 75.635C120.018 75.8783 119.95 76.1733 119.95 76.52C119.95 77.0367 120.1 77.4417 120.4 77.735C120.703 78.0283 121.115 78.175 121.635 78.175C121.882 78.175 122.115 78.13 122.335 78.04C122.555 77.9467 122.738 77.825 122.885 77.675L123.41 78.51C123.147 78.71 122.853 78.8667 122.53 78.98C122.207 79.0933 121.875 79.15 121.535 79.15ZM126.579 79.15C126.062 79.15 125.6 79.0317 125.194 78.795C124.79 78.555 124.474 78.2367 124.244 77.84C124.014 77.44 123.899 77.0017 123.899 76.525C123.899 76.1717 123.964 75.8383 124.094 75.525C124.227 75.2083 124.414 74.9283 124.654 74.685C124.897 74.4417 125.182 74.25 125.509 74.11C125.835 73.97 126.194 73.9 126.584 73.9C127.1 73.9 127.56 74.02 127.964 74.26C128.37 74.4967 128.689 74.815 128.919 75.215C129.149 75.6117 129.264 76.0483 129.264 76.525C129.264 76.875 129.197 77.2083 129.064 77.525C128.934 77.8417 128.749 78.1217 128.509 78.365C128.269 78.6083 127.985 78.8 127.659 78.94C127.332 79.08 126.972 79.15 126.579 79.15ZM126.579 78.175C126.885 78.175 127.157 78.1083 127.394 77.975C127.634 77.8383 127.822 77.6467 127.959 77.4C128.095 77.1533 128.164 76.8617 128.164 76.525C128.164 76.1883 128.095 75.8967 127.959 75.65C127.822 75.4 127.634 75.2083 127.394 75.075C127.157 74.9417 126.885 74.875 126.579 74.875C126.272 74.875 125.999 74.9417 125.759 75.075C125.522 75.2083 125.335 75.4 125.199 75.65C125.065 75.8967 124.999 76.1883 124.999 76.525C124.999 76.8617 125.067 77.1533 125.204 77.4C125.34 77.6467 125.527 77.8383 125.764 77.975C126.004 78.1083 126.275 78.175 126.579 78.175ZM130.369 79V74.05H131.469V74.73C131.602 74.5367 131.755 74.38 131.929 74.26C132.102 74.1367 132.285 74.0467 132.479 73.99C132.672 73.93 132.869 73.9 133.069 73.9C133.472 73.9 133.807 73.9883 134.074 74.165C134.344 74.3417 134.534 74.5683 134.644 74.845C134.89 74.485 135.177 74.2383 135.504 74.105C135.83 73.9683 136.159 73.9 136.489 73.9C136.945 73.9 137.31 73.99 137.584 74.17C137.857 74.35 138.054 74.5817 138.174 74.865C138.297 75.1483 138.359 75.44 138.359 75.74V79H137.259V76.06C137.259 75.7167 137.164 75.44 136.974 75.23C136.787 75.0167 136.514 74.91 136.154 74.91C135.917 74.91 135.705 74.9617 135.519 75.065C135.332 75.1683 135.184 75.3117 135.074 75.495C134.967 75.675 134.914 75.8833 134.914 76.12V79H133.814V76.06C133.814 75.7167 133.72 75.44 133.534 75.23C133.347 75.0167 133.072 74.91 132.709 74.91C132.475 74.91 132.264 74.9617 132.074 75.065C131.887 75.1683 131.739 75.3117 131.629 75.495C131.522 75.675 131.469 75.8833 131.469 76.12V79H130.369ZM139.841 81.1V74.05H140.831V74.745C141.028 74.495 141.28 74.2917 141.586 74.135C141.893 73.9783 142.271 73.9 142.721 73.9C143.205 73.9 143.633 74.015 144.006 74.245C144.383 74.4717 144.676 74.7833 144.886 75.18C145.096 75.5733 145.201 76.0217 145.201 76.525C145.201 76.8883 145.141 77.23 145.021 77.55C144.901 77.8667 144.73 78.145 144.506 78.385C144.286 78.625 144.023 78.8133 143.716 78.95C143.413 79.0833 143.076 79.15 142.706 79.15C142.32 79.15 141.98 79.08 141.686 78.94C141.393 78.8 141.143 78.6117 140.936 78.375V81.1H139.841ZM142.521 78.175C142.828 78.175 143.1 78.1083 143.336 77.975C143.576 77.8383 143.763 77.6467 143.896 77.4C144.033 77.1533 144.101 76.8617 144.101 76.525C144.101 76.1883 144.033 75.8967 143.896 75.65C143.76 75.4 143.571 75.2083 143.331 75.075C143.095 74.9417 142.825 74.875 142.521 74.875C142.215 74.875 141.941 74.9417 141.701 75.075C141.465 75.2083 141.278 75.4 141.141 75.65C141.005 75.8967 140.936 76.1883 140.936 76.525C140.936 76.8617 141.005 77.1533 141.141 77.4C141.278 77.6467 141.465 77.8383 141.701 77.975C141.941 78.1083 142.215 78.175 142.521 78.175ZM146.306 79V71.8H147.406V79H146.306ZM151.193 79.15C150.66 79.15 150.191 79.0417 149.788 78.825C149.385 78.605 149.07 78.2983 148.843 77.905C148.62 77.5117 148.508 77.055 148.508 76.535C148.508 76.155 148.573 75.805 148.703 75.485C148.833 75.1617 149.016 74.8817 149.253 74.645C149.49 74.4083 149.766 74.225 150.083 74.095C150.403 73.965 150.751 73.9 151.128 73.9C151.538 73.9 151.903 73.9733 152.223 74.12C152.543 74.2633 152.808 74.465 153.018 74.725C153.231 74.985 153.381 75.29 153.468 75.64C153.558 75.9867 153.573 76.3633 153.513 76.77H149.563C149.556 77.0667 149.621 77.3267 149.758 77.55C149.895 77.77 150.09 77.9417 150.343 78.065C150.6 78.1883 150.901 78.25 151.248 78.25C151.528 78.25 151.798 78.2083 152.058 78.125C152.321 78.0383 152.56 77.9117 152.773 77.745L153.198 78.535C153.038 78.665 152.845 78.7767 152.618 78.87C152.391 78.96 152.155 79.0283 151.908 79.075C151.661 79.125 151.423 79.15 151.193 79.15ZM149.628 75.96H152.433C152.423 75.5867 152.303 75.2933 152.073 75.08C151.846 74.8667 151.523 74.76 151.103 74.76C150.696 74.76 150.358 74.8667 150.088 75.08C149.821 75.2933 149.668 75.5867 149.628 75.96ZM156.687 79.15C156.203 79.15 155.817 79.01 155.527 78.73C155.237 78.45 155.092 78.0217 155.092 77.445V72.605H156.192V74.05H157.567V74.96H156.192V77.205C156.192 77.5517 156.257 77.7967 156.387 77.94C156.52 78.08 156.707 78.15 156.947 78.15C157.063 78.15 157.173 78.1367 157.277 78.11C157.38 78.0833 157.473 78.0483 157.557 78.005L157.752 78.895C157.608 78.9683 157.443 79.0283 157.257 79.075C157.073 79.125 156.883 79.15 156.687 79.15ZM154.007 74.96V74.05H155.237V74.96H154.007ZM161.134 79.15C160.601 79.15 160.133 79.0417 159.729 78.825C159.326 78.605 159.011 78.2983 158.784 77.905C158.561 77.5117 158.449 77.055 158.449 76.535C158.449 76.155 158.514 75.805 158.644 75.485C158.774 75.1617 158.958 74.8817 159.194 74.645C159.431 74.4083 159.708 74.225 160.024 74.095C160.344 73.965 160.693 73.9 161.069 73.9C161.479 73.9 161.844 73.9733 162.164 74.12C162.484 74.2633 162.749 74.465 162.959 74.725C163.173 74.985 163.323 75.29 163.409 75.64C163.499 75.9867 163.514 76.3633 163.454 76.77H159.504C159.498 77.0667 159.563 77.3267 159.699 77.55C159.836 77.77 160.031 77.9417 160.284 78.065C160.541 78.1883 160.843 78.25 161.189 78.25C161.469 78.25 161.739 78.2083 161.999 78.125C162.263 78.0383 162.501 77.9117 162.714 77.745L163.139 78.535C162.979 78.665 162.786 78.7767 162.559 78.87C162.333 78.96 162.096 79.0283 161.849 79.075C161.603 79.125 161.364 79.15 161.134 79.15ZM159.569 75.96H162.374C162.364 75.5867 162.244 75.2933 162.014 75.08C161.788 74.8667 161.464 74.76 161.044 74.76C160.638 74.76 160.299 74.8667 160.029 75.08C159.763 75.2933 159.609 75.5867 159.569 75.96ZM166.701 79.15C166.218 79.15 165.789 79.0367 165.416 78.81C165.043 78.58 164.749 78.2683 164.536 77.875C164.326 77.4783 164.221 77.0283 164.221 76.525C164.221 76.1617 164.281 75.8217 164.401 75.505C164.521 75.185 164.691 74.905 164.911 74.665C165.134 74.425 165.398 74.2383 165.701 74.105C166.008 73.9683 166.346 73.9 166.716 73.9C167.166 73.9 167.556 73.99 167.886 74.17C168.216 74.35 168.491 74.6 168.711 74.92L168.481 75.165V71.8H169.581V79H168.591V77.81L168.751 78.06C168.571 78.3733 168.313 78.6333 167.976 78.84C167.643 79.0467 167.218 79.15 166.701 79.15ZM166.901 78.175C167.208 78.175 167.479 78.1083 167.716 77.975C167.956 77.8383 168.144 77.6467 168.281 77.4C168.418 77.1533 168.486 76.8617 168.486 76.525C168.486 76.1883 168.418 75.8967 168.281 75.65C168.144 75.4 167.956 75.2083 167.716 75.075C167.479 74.9417 167.208 74.875 166.901 74.875C166.594 74.875 166.323 74.9417 166.086 75.075C165.849 75.2083 165.663 75.4 165.526 75.65C165.389 75.8967 165.321 76.1883 165.321 76.525C165.321 76.8617 165.389 77.1533 165.526 77.4C165.663 77.6467 165.849 77.8383 166.086 77.975C166.326 78.1083 166.598 78.175 166.901 78.175Z" fill="#557FFE"/>
<path d="M319.265 79V74.05H320.365V79H319.265ZM319.815 73.165C319.618 73.165 319.448 73.1017 319.305 72.975C319.162 72.8483 319.09 72.6817 319.09 72.475C319.09 72.2717 319.162 72.1067 319.305 71.98C319.448 71.85 319.618 71.785 319.815 71.785C320.012 71.785 320.182 71.85 320.325 71.98C320.468 72.1067 320.54 72.2717 320.54 72.475C320.54 72.6817 320.468 72.8483 320.325 72.975C320.182 73.1017 320.012 73.165 319.815 73.165ZM321.892 79V74.05H322.992V74.68C323.199 74.4033 323.439 74.205 323.712 74.085C323.985 73.9617 324.269 73.9 324.562 73.9C325.015 73.9 325.39 73.99 325.687 74.17C325.984 74.35 326.204 74.5817 326.347 74.865C326.494 75.1483 326.567 75.44 326.567 75.74V79H325.467V76.08C325.467 75.7267 325.36 75.4433 325.147 75.23C324.937 75.0167 324.644 74.91 324.267 74.91C324.02 74.91 323.8 74.965 323.607 75.075C323.417 75.185 323.267 75.3383 323.157 75.535C323.047 75.7283 322.992 75.955 322.992 76.215V79H321.892ZM330.495 81.1V74.05H331.485V74.745C331.682 74.495 331.934 74.2917 332.24 74.135C332.547 73.9783 332.925 73.9 333.375 73.9C333.859 73.9 334.287 74.015 334.66 74.245C335.037 74.4717 335.33 74.7833 335.54 75.18C335.75 75.5733 335.855 76.0217 335.855 76.525C335.855 76.8883 335.795 77.23 335.675 77.55C335.555 77.8667 335.384 78.145 335.16 78.385C334.94 78.625 334.677 78.8133 334.37 78.95C334.067 79.0833 333.73 79.15 333.36 79.15C332.974 79.15 332.634 79.08 332.34 78.94C332.047 78.8 331.797 78.6117 331.59 78.375V81.1H330.495ZM333.175 78.175C333.482 78.175 333.754 78.1083 333.99 77.975C334.23 77.8383 334.417 77.6467 334.55 77.4C334.687 77.1533 334.755 76.8617 334.755 76.525C334.755 76.1883 334.687 75.8967 334.55 75.65C334.414 75.4 334.225 75.2083 333.985 75.075C333.749 74.9417 333.479 74.875 333.175 74.875C332.869 74.875 332.595 74.9417 332.355 75.075C332.119 75.2083 331.932 75.4 331.795 75.65C331.659 75.8967 331.59 76.1883 331.59 76.525C331.59 76.8617 331.659 77.1533 331.795 77.4C331.932 77.6467 332.119 77.8383 332.355 77.975C332.595 78.1083 332.869 78.175 333.175 78.175ZM336.96 79V74.05H338.06V74.735C338.247 74.425 338.474 74.2083 338.74 74.085C339.007 73.9583 339.294 73.895 339.6 73.895C339.7 73.895 339.795 73.9 339.885 73.91C339.975 73.92 340.062 73.935 340.145 73.955L340 75.09C339.9 75.06 339.799 75.0367 339.695 75.02C339.592 75.0033 339.489 74.995 339.385 74.995C339.002 74.995 338.685 75.1133 338.435 75.35C338.185 75.5833 338.06 75.9017 338.06 76.305V79H336.96ZM343.219 79.15C342.703 79.15 342.241 79.0317 341.834 78.795C341.431 78.555 341.114 78.2367 340.884 77.84C340.654 77.44 340.539 77.0017 340.539 76.525C340.539 76.1717 340.604 75.8383 340.734 75.525C340.868 75.2083 341.054 74.9283 341.294 74.685C341.538 74.4417 341.823 74.25 342.149 74.11C342.476 73.97 342.834 73.9 343.224 73.9C343.741 73.9 344.201 74.02 344.604 74.26C345.011 74.4967 345.329 74.815 345.559 75.215C345.789 75.6117 345.904 76.0483 345.904 76.525C345.904 76.875 345.838 77.2083 345.704 77.525C345.574 77.8417 345.389 78.1217 345.149 78.365C344.909 78.6083 344.626 78.8 344.299 78.94C343.973 79.08 343.613 79.15 343.219 79.15ZM343.219 78.175C343.526 78.175 343.798 78.1083 344.034 77.975C344.274 77.8383 344.463 77.6467 344.599 77.4C344.736 77.1533 344.804 76.8617 344.804 76.525C344.804 76.1883 344.736 75.8967 344.599 75.65C344.463 75.4 344.274 75.2083 344.034 75.075C343.798 74.9417 343.526 74.875 343.219 74.875C342.913 74.875 342.639 74.9417 342.399 75.075C342.163 75.2083 341.976 75.4 341.839 75.65C341.706 75.8967 341.639 76.1883 341.639 76.525C341.639 76.8617 341.708 77.1533 341.844 77.4C341.981 77.6467 342.168 77.8383 342.404 77.975C342.644 78.1083 342.916 78.175 343.219 78.175ZM349.218 81.25C348.888 81.25 348.561 81.2183 348.238 81.155C347.918 81.0917 347.613 80.985 347.323 80.835L347.598 79.925C347.851 80.0483 348.11 80.1383 348.373 80.195C348.64 80.2517 348.903 80.28 349.163 80.28C349.736 80.28 350.173 80.1433 350.473 79.87C350.773 79.6 350.923 79.2383 350.923 78.785V77.705L351.073 77.94C350.91 78.2667 350.665 78.5317 350.338 78.735C350.015 78.935 349.61 79.035 349.123 79.035C348.623 79.035 348.185 78.9233 347.808 78.7C347.435 78.4733 347.143 78.1667 346.933 77.78C346.726 77.39 346.623 76.9533 346.623 76.47C346.623 76.1067 346.683 75.77 346.803 75.46C346.923 75.1467 347.093 74.8733 347.313 74.64C347.533 74.4067 347.796 74.225 348.103 74.095C348.41 73.965 348.75 73.9 349.123 73.9C349.61 73.9 350.015 74.0017 350.338 74.205C350.665 74.405 350.91 74.6683 351.073 74.995L350.923 75.23V74.045H351.948V78.54C351.948 79.3967 351.718 80.0617 351.258 80.535C350.798 81.0117 350.118 81.25 349.218 81.25ZM349.288 78.08C349.591 78.08 349.861 78.0133 350.098 77.88C350.335 77.7467 350.52 77.56 350.653 77.32C350.786 77.08 350.853 76.7967 350.853 76.47C350.853 76.1433 350.786 75.8583 350.653 75.615C350.52 75.3717 350.335 75.185 350.098 75.055C349.861 74.9217 349.591 74.855 349.288 74.855C348.981 74.855 348.71 74.9217 348.473 75.055C348.24 75.185 348.056 75.3717 347.923 75.615C347.79 75.8583 347.723 76.1433 347.723 76.47C347.723 76.7967 347.79 77.08 347.923 77.32C348.056 77.56 348.24 77.7467 348.473 77.88C348.71 78.0133 348.981 78.08 349.288 78.08ZM353.474 79V74.05H354.574V74.735C354.761 74.425 354.987 74.2083 355.254 74.085C355.521 73.9583 355.807 73.895 356.114 73.895C356.214 73.895 356.309 73.9 356.399 73.91C356.489 73.92 356.576 73.935 356.659 73.955L356.514 75.09C356.414 75.06 356.312 75.0367 356.209 75.02C356.106 75.0033 356.002 74.995 355.899 74.995C355.516 74.995 355.199 75.1133 354.949 75.35C354.699 75.5833 354.574 75.9017 354.574 76.305V79H353.474ZM359.738 79.15C359.205 79.15 358.736 79.0417 358.333 78.825C357.93 78.605 357.615 78.2983 357.388 77.905C357.165 77.5117 357.053 77.055 357.053 76.535C357.053 76.155 357.118 75.805 357.248 75.485C357.378 75.1617 357.561 74.8817 357.798 74.645C358.035 74.4083 358.311 74.225 358.628 74.095C358.948 73.965 359.296 73.9 359.673 73.9C360.083 73.9 360.448 73.9733 360.768 74.12C361.088 74.2633 361.353 74.465 361.563 74.725C361.776 74.985 361.926 75.29 362.013 75.64C362.103 75.9867 362.118 76.3633 362.058 76.77H358.108C358.101 77.0667 358.166 77.3267 358.303 77.55C358.44 77.77 358.635 77.9417 358.888 78.065C359.145 78.1883 359.446 78.25 359.793 78.25C360.073 78.25 360.343 78.2083 360.603 78.125C360.866 78.0383 361.105 77.9117 361.318 77.745L361.743 78.535C361.583 78.665 361.39 78.7767 361.163 78.87C360.936 78.96 360.7 79.0283 360.453 79.075C360.206 79.125 359.968 79.15 359.738 79.15ZM358.173 75.96H360.978C360.968 75.5867 360.848 75.2933 360.618 75.08C360.391 74.8667 360.068 74.76 359.648 74.76C359.241 74.76 358.903 74.8667 358.633 75.08C358.366 75.2933 358.213 75.5867 358.173 75.96ZM364.871 79.145C364.461 79.145 364.077 79.0867 363.721 78.97C363.364 78.8533 363.064 78.6967 362.821 78.5L363.236 77.695C363.466 77.875 363.724 78.0167 364.011 78.12C364.301 78.2233 364.586 78.275 364.866 78.275C365.189 78.275 365.441 78.2183 365.621 78.105C365.801 77.9917 365.891 77.8333 365.891 77.63C365.891 77.4367 365.812 77.295 365.656 77.205C365.502 77.1117 365.209 77.015 364.776 76.915C364.152 76.785 363.699 76.6017 363.416 76.365C363.136 76.125 362.996 75.7933 362.996 75.37C362.996 75.0733 363.077 74.8117 363.241 74.585C363.407 74.355 363.636 74.175 363.926 74.045C364.216 73.915 364.551 73.85 364.931 73.85C365.301 73.85 365.649 73.9033 365.976 74.01C366.302 74.1133 366.586 74.26 366.826 74.45L366.436 75.26C366.312 75.15 366.169 75.055 366.006 74.975C365.842 74.895 365.669 74.8333 365.486 74.79C365.306 74.7433 365.126 74.72 364.946 74.72C364.666 74.72 364.437 74.775 364.261 74.885C364.087 74.9917 364.001 75.14 364.001 75.33C364.001 75.5267 364.084 75.6717 364.251 75.765C364.417 75.8583 364.704 75.9517 365.111 76.045C365.751 76.185 366.209 76.3717 366.486 76.605C366.762 76.8383 366.901 77.1617 366.901 77.575C366.901 77.8917 366.816 78.1683 366.646 78.405C366.476 78.6383 366.237 78.82 365.931 78.95C365.627 79.08 365.274 79.145 364.871 79.145ZM369.714 79.145C369.304 79.145 368.921 79.0867 368.564 78.97C368.208 78.8533 367.908 78.6967 367.664 78.5L368.079 77.695C368.309 77.875 368.568 78.0167 368.854 78.12C369.144 78.2233 369.429 78.275 369.709 78.275C370.033 78.275 370.284 78.2183 370.464 78.105C370.644 77.9917 370.734 77.8333 370.734 77.63C370.734 77.4367 370.656 77.295 370.499 77.205C370.346 77.1117 370.053 77.015 369.619 76.915C368.996 76.785 368.543 76.6017 368.259 76.365C367.979 76.125 367.839 75.7933 367.839 75.37C367.839 75.0733 367.921 74.8117 368.084 74.585C368.251 74.355 368.479 74.175 368.769 74.045C369.059 73.915 369.394 73.85 369.774 73.85C370.144 73.85 370.493 73.9033 370.819 74.01C371.146 74.1133 371.429 74.26 371.669 74.45L371.279 75.26C371.156 75.15 371.013 75.055 370.849 74.975C370.686 74.895 370.513 74.8333 370.329 74.79C370.149 74.7433 369.969 74.72 369.789 74.72C369.509 74.72 369.281 74.775 369.104 74.885C368.931 74.9917 368.844 75.14 368.844 75.33C368.844 75.5267 368.928 75.6717 369.094 75.765C369.261 75.8583 369.548 75.9517 369.954 76.045C370.594 76.185 371.053 76.3717 371.329 76.605C371.606 76.8383 371.744 77.1617 371.744 77.575C371.744 77.8917 371.659 78.1683 371.489 78.405C371.319 78.6383 371.081 78.82 370.774 78.95C370.471 79.08 370.118 79.145 369.714 79.145Z" fill="#557FFE"/>
<path d="M119.774 65V55.2H122.84C123.815 55.2 124.676 55.41 125.423 55.83C126.17 56.2453 126.753 56.8217 127.173 57.559C127.598 58.2963 127.81 59.1457 127.81 60.107C127.81 60.821 127.689 61.479 127.446 62.081C127.208 62.6783 126.867 63.194 126.424 63.628C125.981 64.062 125.456 64.4003 124.849 64.643C124.242 64.881 123.573 65 122.84 65H119.774ZM121.342 63.537H122.651C123.178 63.537 123.657 63.46 124.086 63.306C124.52 63.1473 124.891 62.9187 125.199 62.62C125.512 62.3213 125.752 61.962 125.92 61.542C126.088 61.1173 126.172 60.639 126.172 60.107C126.172 59.393 126.025 58.7793 125.731 58.266C125.442 57.748 125.033 57.3513 124.506 57.076C123.979 56.796 123.36 56.656 122.651 56.656H121.342V63.537ZM129.551 65V58.07H131.091V65H129.551ZM130.321 56.831C130.046 56.831 129.808 56.7423 129.607 56.565C129.407 56.3877 129.306 56.1543 129.306 55.865C129.306 55.5803 129.407 55.3493 129.607 55.172C129.808 54.99 130.046 54.899 130.321 54.899C130.597 54.899 130.835 54.99 131.035 55.172C131.236 55.3493 131.336 55.5803 131.336 55.865C131.336 56.1543 131.236 56.3877 131.035 56.565C130.835 56.7423 130.597 56.831 130.321 56.831ZM135.567 65.203C134.993 65.203 134.457 65.1213 133.957 64.958C133.458 64.7947 133.038 64.5753 132.697 64.3L133.278 63.173C133.6 63.425 133.962 63.6233 134.363 63.768C134.769 63.9127 135.168 63.985 135.56 63.985C136.013 63.985 136.365 63.9057 136.617 63.747C136.869 63.5883 136.995 63.3667 136.995 63.082C136.995 62.8113 136.886 62.613 136.666 62.487C136.452 62.3563 136.041 62.221 135.434 62.081C134.562 61.899 133.927 61.6423 133.53 61.311C133.138 60.975 132.942 60.5107 132.942 59.918C132.942 59.5027 133.057 59.1363 133.285 58.819C133.519 58.497 133.838 58.245 134.244 58.063C134.65 57.881 135.119 57.79 135.651 57.79C136.169 57.79 136.657 57.8647 137.114 58.014C137.572 58.1587 137.968 58.364 138.304 58.63L137.758 59.764C137.586 59.61 137.385 59.477 137.156 59.365C136.928 59.253 136.685 59.1667 136.428 59.106C136.176 59.0407 135.924 59.008 135.672 59.008C135.28 59.008 134.961 59.085 134.713 59.239C134.471 59.3883 134.349 59.596 134.349 59.862C134.349 60.1373 134.466 60.3403 134.699 60.471C134.933 60.6017 135.334 60.7323 135.903 60.863C136.799 61.059 137.441 61.3203 137.828 61.647C138.216 61.9737 138.409 62.4263 138.409 63.005C138.409 63.4483 138.29 63.8357 138.052 64.167C137.814 64.4937 137.481 64.748 137.051 64.93C136.627 65.112 136.132 65.203 135.567 65.203ZM140.147 67.94V58.07H141.533V59.043C141.809 58.693 142.161 58.4083 142.59 58.189C143.02 57.9697 143.549 57.86 144.179 57.86C144.856 57.86 145.456 58.021 145.978 58.343C146.506 58.6603 146.916 59.0967 147.21 59.652C147.504 60.2027 147.651 60.8303 147.651 61.535C147.651 62.0437 147.567 62.522 147.399 62.97C147.231 63.4133 146.991 63.803 146.678 64.139C146.37 64.475 146.002 64.7387 145.572 64.93C145.148 65.1167 144.676 65.21 144.158 65.21C143.617 65.21 143.141 65.112 142.73 64.916C142.32 64.72 141.97 64.4563 141.68 64.125V67.94H140.147ZM143.899 63.845C144.329 63.845 144.709 63.7517 145.04 63.565C145.376 63.3737 145.638 63.1053 145.824 62.76C146.016 62.4147 146.111 62.0063 146.111 61.535C146.111 61.0637 146.016 60.6553 145.824 60.31C145.633 59.96 145.369 59.6917 145.033 59.505C144.702 59.3183 144.324 59.225 143.899 59.225C143.47 59.225 143.087 59.3183 142.751 59.505C142.42 59.6917 142.159 59.96 141.967 60.31C141.776 60.6553 141.68 61.0637 141.68 61.535C141.68 62.0063 141.776 62.4147 141.967 62.76C142.159 63.1053 142.42 63.3737 142.751 63.565C143.087 63.7517 143.47 63.845 143.899 63.845ZM152.199 65.21C151.509 65.21 150.897 65.0513 150.365 64.734C149.838 64.412 149.423 63.9757 149.119 63.425C148.821 62.8697 148.671 62.2397 148.671 61.535C148.671 61.0077 148.758 60.52 148.93 60.072C149.103 59.624 149.346 59.2343 149.658 58.903C149.971 58.5717 150.344 58.315 150.778 58.133C151.212 57.951 151.686 57.86 152.199 57.86C152.881 57.86 153.45 58.0047 153.907 58.294C154.369 58.5833 154.722 58.9567 154.964 59.414L154.747 59.743V58.07H156.119V65H154.747V63.327L154.964 63.656C154.722 64.1133 154.369 64.4867 153.907 64.776C153.45 65.0653 152.881 65.21 152.199 65.21ZM152.402 63.845C152.822 63.845 153.198 63.7517 153.529 63.565C153.861 63.3737 154.12 63.1053 154.306 62.76C154.498 62.4147 154.593 62.0063 154.593 61.535C154.593 61.0637 154.498 60.6553 154.306 60.31C154.12 59.96 153.861 59.6917 153.529 59.505C153.198 59.3183 152.822 59.225 152.402 59.225C151.978 59.225 151.6 59.3183 151.268 59.505C150.942 59.6917 150.683 59.96 150.491 60.31C150.3 60.6553 150.204 61.0637 150.204 61.535C150.204 62.0063 150.3 62.4147 150.491 62.76C150.683 63.1053 150.942 63.3737 151.268 63.565C151.6 63.7517 151.978 63.845 152.402 63.845ZM161.174 65.21C160.498 65.21 159.956 65.014 159.55 64.622C159.144 64.23 158.941 63.6303 158.941 62.823V56.047H160.481V58.07H162.406V59.344H160.481V62.487C160.481 62.9723 160.572 63.3153 160.754 63.516C160.941 63.712 161.202 63.81 161.538 63.81C161.702 63.81 161.856 63.7913 162 63.754C162.145 63.7167 162.276 63.6677 162.392 63.607L162.665 64.853C162.465 64.9557 162.234 65.0397 161.972 65.105C161.716 65.175 161.45 65.21 161.174 65.21ZM157.422 59.344V58.07H159.144V59.344H157.422ZM167.415 65.21C166.687 65.21 166.038 65.0513 165.469 64.734C164.9 64.412 164.452 63.9757 164.125 63.425C163.803 62.8697 163.642 62.2397 163.642 61.535C163.642 61.003 163.738 60.5153 163.929 60.072C164.12 59.624 164.391 59.2343 164.741 58.903C165.091 58.5717 165.502 58.315 165.973 58.133C166.449 57.951 166.965 57.86 167.52 57.86C167.987 57.86 168.418 57.923 168.815 58.049C169.216 58.1703 169.585 58.3593 169.921 58.616L169.179 59.792C168.964 59.6007 168.717 59.4583 168.437 59.365C168.162 59.2717 167.868 59.225 167.555 59.225C167.07 59.225 166.652 59.316 166.302 59.498C165.952 59.68 165.679 59.9437 165.483 60.289C165.292 60.6297 165.196 61.0427 165.196 61.528C165.196 62.2513 165.406 62.8183 165.826 63.229C166.251 63.6397 166.827 63.845 167.555 63.845C167.9 63.845 168.227 63.782 168.535 63.656C168.843 63.5253 169.1 63.355 169.305 63.145L170.04 64.314C169.671 64.594 169.261 64.8133 168.808 64.972C168.355 65.1307 167.891 65.21 167.415 65.21ZM171.456 65V54.92H172.996V59.484L172.681 59.141C172.989 58.7117 173.36 58.392 173.794 58.182C174.228 57.9673 174.685 57.86 175.166 57.86C175.796 57.86 176.321 57.9883 176.741 58.245C177.161 58.497 177.476 58.8237 177.686 59.225C177.896 59.6263 178.001 60.044 178.001 60.478V65H176.461V60.919C176.461 60.4337 176.309 60.0393 176.006 59.736C175.702 59.4327 175.289 59.2787 174.767 59.274C174.421 59.274 174.116 59.351 173.85 59.505C173.584 59.6543 173.374 59.8667 173.22 60.142C173.07 60.4173 172.996 60.737 172.996 61.101V65H171.456ZM183.233 65.21C182.486 65.21 181.831 65.0583 181.266 64.755C180.701 64.447 180.26 64.0177 179.943 63.467C179.63 62.9163 179.474 62.277 179.474 61.549C179.474 61.017 179.565 60.527 179.747 60.079C179.929 59.6263 180.186 59.2343 180.517 58.903C180.848 58.5717 181.236 58.315 181.679 58.133C182.127 57.951 182.615 57.86 183.142 57.86C183.716 57.86 184.227 57.9627 184.675 58.168C185.123 58.3687 185.494 58.651 185.788 59.015C186.087 59.379 186.297 59.806 186.418 60.296C186.544 60.7813 186.565 61.3087 186.481 61.878H180.951C180.942 62.2933 181.033 62.6573 181.224 62.97C181.415 63.278 181.688 63.5183 182.043 63.691C182.402 63.8637 182.825 63.95 183.31 63.95C183.702 63.95 184.08 63.8917 184.444 63.775C184.813 63.6537 185.146 63.4763 185.445 63.243L186.04 64.349C185.816 64.531 185.545 64.6873 185.228 64.818C184.911 64.944 184.579 65.0397 184.234 65.105C183.889 65.175 183.555 65.21 183.233 65.21ZM181.042 60.744H184.969C184.955 60.2213 184.787 59.8107 184.465 59.512C184.148 59.2133 183.695 59.064 183.107 59.064C182.538 59.064 182.064 59.2133 181.686 59.512C181.313 59.8107 181.098 60.2213 181.042 60.744ZM191.026 65.21C190.349 65.21 189.75 65.0513 189.227 64.734C188.704 64.412 188.294 63.9757 187.995 63.425C187.701 62.8697 187.554 62.2397 187.554 61.535C187.554 61.0263 187.638 60.5503 187.806 60.107C187.974 59.659 188.212 59.267 188.52 58.931C188.833 58.595 189.201 58.3337 189.626 58.147C190.055 57.9557 190.529 57.86 191.047 57.86C191.677 57.86 192.223 57.986 192.685 58.238C193.147 58.49 193.532 58.84 193.84 59.288L193.518 59.631V54.92H195.058V65H193.672V63.334L193.896 63.684C193.644 64.1227 193.282 64.4867 192.811 64.776C192.344 65.0653 191.749 65.21 191.026 65.21ZM191.306 63.845C191.735 63.845 192.116 63.7517 192.447 63.565C192.783 63.3737 193.047 63.1053 193.238 62.76C193.429 62.4147 193.525 62.0063 193.525 61.535C193.525 61.0637 193.429 60.6553 193.238 60.31C193.047 59.96 192.783 59.6917 192.447 59.505C192.116 59.3183 191.735 59.225 191.306 59.225C190.877 59.225 190.496 59.3183 190.165 59.505C189.834 59.6917 189.572 59.96 189.381 60.31C189.19 60.6553 189.094 61.0637 189.094 61.535C189.094 62.0063 189.19 62.4147 189.381 62.76C189.572 63.1053 189.834 63.3737 190.165 63.565C190.501 63.7517 190.881 63.845 191.306 63.845Z" fill="#323232"/>
<path d="M217.647 65L221.455 55.2H223.156L227.062 65H225.291L224.388 62.662H220.237L219.369 65H217.647ZM220.643 61.311H223.968L222.274 57.041L220.643 61.311ZM228.278 65V58.07H229.818V59.029C230.079 58.595 230.397 58.2917 230.77 58.119C231.143 57.9417 231.545 57.853 231.974 57.853C232.114 57.853 232.247 57.86 232.373 57.874C232.499 57.888 232.62 57.909 232.737 57.937L232.534 59.526C232.394 59.484 232.252 59.4513 232.107 59.428C231.962 59.4047 231.818 59.393 231.673 59.393C231.136 59.393 230.693 59.5587 230.343 59.89C229.993 60.2167 229.818 60.6623 229.818 61.227V65H228.278ZM234.02 65V58.07H235.56V59.029C235.822 58.595 236.139 58.2917 236.512 58.119C236.886 57.9417 237.287 57.853 237.716 57.853C237.856 57.853 237.989 57.86 238.115 57.874C238.241 57.888 238.363 57.909 238.479 57.937L238.276 59.526C238.136 59.484 237.994 59.4513 237.849 59.428C237.705 59.4047 237.56 59.393 237.415 59.393C236.879 59.393 236.435 59.5587 236.085 59.89C235.735 60.2167 235.56 60.6623 235.56 61.227V65H234.02ZM239.762 65V58.07H241.302V65H239.762ZM240.532 56.831C240.257 56.831 240.019 56.7423 239.818 56.565C239.618 56.3877 239.517 56.1543 239.517 55.865C239.517 55.5803 239.618 55.3493 239.818 55.172C240.019 54.99 240.257 54.899 240.532 54.899C240.808 54.899 241.046 54.99 241.246 55.172C241.447 55.3493 241.547 55.5803 241.547 55.865C241.547 56.1543 241.447 56.3877 241.246 56.565C241.046 56.7423 240.808 56.831 240.532 56.831ZM245.162 65L242.572 58.07H244.259L246.177 63.677H245.946L247.829 58.07H249.467L246.926 65H245.162ZM253.837 65.21C253.09 65.21 252.434 65.0583 251.87 64.755C251.305 64.447 250.864 64.0177 250.547 63.467C250.234 62.9163 250.078 62.277 250.078 61.549C250.078 61.017 250.169 60.527 250.351 60.079C250.533 59.6263 250.789 59.2343 251.121 58.903C251.452 58.5717 251.839 58.315 252.283 58.133C252.731 57.951 253.218 57.86 253.746 57.86C254.32 57.86 254.831 57.9627 255.279 58.168C255.727 58.3687 256.098 58.651 256.392 59.015C256.69 59.379 256.9 59.806 257.022 60.296C257.148 60.7813 257.169 61.3087 257.085 61.878H251.555C251.545 62.2933 251.636 62.6573 251.828 62.97C252.019 63.278 252.292 63.5183 252.647 63.691C253.006 63.8637 253.428 63.95 253.914 63.95C254.306 63.95 254.684 63.8917 255.048 63.775C255.416 63.6537 255.75 63.4763 256.049 63.243L256.644 64.349C256.42 64.531 256.149 64.6873 255.832 64.818C255.514 64.944 255.183 65.0397 254.838 65.105C254.492 65.175 254.159 65.21 253.837 65.21ZM251.646 60.744H255.573C255.559 60.2213 255.391 59.8107 255.069 59.512C254.751 59.2133 254.299 59.064 253.711 59.064C253.141 59.064 252.668 59.2133 252.29 59.512C251.916 59.8107 251.702 60.2213 251.646 60.744ZM261.63 65.21C260.953 65.21 260.353 65.0513 259.831 64.734C259.308 64.412 258.897 63.9757 258.599 63.425C258.305 62.8697 258.158 62.2397 258.158 61.535C258.158 61.0263 258.242 60.5503 258.41 60.107C258.578 59.659 258.816 59.267 259.124 58.931C259.436 58.595 259.805 58.3337 260.23 58.147C260.659 57.9557 261.133 57.86 261.651 57.86C262.281 57.86 262.827 57.986 263.289 58.238C263.751 58.49 264.136 58.84 264.444 59.288L264.122 59.631V54.92H265.662V65H264.276V63.334L264.5 63.684C264.248 64.1227 263.886 64.4867 263.415 64.776C262.948 65.0653 262.353 65.21 261.63 65.21ZM261.91 63.845C262.339 63.845 262.719 63.7517 263.051 63.565C263.387 63.3737 263.65 63.1053 263.842 62.76C264.033 62.4147 264.129 62.0063 264.129 61.535C264.129 61.0637 264.033 60.6553 263.842 60.31C263.65 59.96 263.387 59.6917 263.051 59.505C262.719 59.3183 262.339 59.225 261.91 59.225C261.48 59.225 261.1 59.3183 260.769 59.505C260.437 59.6917 260.176 59.96 259.985 60.31C259.793 60.6553 259.698 61.0637 259.698 61.535C259.698 62.0063 259.793 62.4147 259.985 62.76C260.176 63.1053 260.437 63.3737 260.769 63.565C261.105 63.7517 261.485 63.845 261.91 63.845Z" fill="#323232"/>
<path d="M318.774 65V55.2H321.84C322.815 55.2 323.676 55.41 324.423 55.83C325.17 56.2453 325.753 56.8217 326.173 57.559C326.598 58.2963 326.81 59.1457 326.81 60.107C326.81 60.821 326.689 61.479 326.446 62.081C326.208 62.6783 325.867 63.194 325.424 63.628C324.981 64.062 324.456 64.4003 323.849 64.643C323.242 64.881 322.573 65 321.84 65H318.774ZM320.342 63.537H321.651C322.178 63.537 322.657 63.46 323.086 63.306C323.52 63.1473 323.891 62.9187 324.199 62.62C324.512 62.3213 324.752 61.962 324.92 61.542C325.088 61.1173 325.172 60.639 325.172 60.107C325.172 59.393 325.025 58.7793 324.731 58.266C324.442 57.748 324.033 57.3513 323.506 57.076C322.979 56.796 322.36 56.656 321.651 56.656H320.342V63.537ZM331.715 65.21C330.969 65.21 330.313 65.0583 329.748 64.755C329.184 64.447 328.743 64.0177 328.425 63.467C328.113 62.9163 327.956 62.277 327.956 61.549C327.956 61.017 328.047 60.527 328.229 60.079C328.411 59.6263 328.668 59.2343 328.999 58.903C329.331 58.5717 329.718 58.315 330.161 58.133C330.609 57.951 331.097 57.86 331.624 57.86C332.198 57.86 332.709 57.9627 333.157 58.168C333.605 58.3687 333.976 58.651 334.27 59.015C334.569 59.379 334.779 59.806 334.9 60.296C335.026 60.7813 335.047 61.3087 334.963 61.878H329.433C329.424 62.2933 329.515 62.6573 329.706 62.97C329.898 63.278 330.171 63.5183 330.525 63.691C330.885 63.8637 331.307 63.95 331.792 63.95C332.184 63.95 332.562 63.8917 332.926 63.775C333.295 63.6537 333.629 63.4763 333.927 63.243L334.522 64.349C334.298 64.531 334.028 64.6873 333.71 64.818C333.393 64.944 333.062 65.0397 332.716 65.105C332.371 65.175 332.037 65.21 331.715 65.21ZM329.524 60.744H333.451C333.437 60.2213 333.269 59.8107 332.947 59.512C332.63 59.2133 332.177 59.064 331.589 59.064C331.02 59.064 330.546 59.2133 330.168 59.512C329.795 59.8107 329.58 60.2213 329.524 60.744ZM336.563 65V54.92H338.103V65H336.563ZM340.241 65V58.07H341.781V65H340.241ZM341.011 56.831C340.736 56.831 340.498 56.7423 340.297 56.565C340.096 56.3877 339.996 56.1543 339.996 55.865C339.996 55.5803 340.096 55.3493 340.297 55.172C340.498 54.99 340.736 54.899 341.011 54.899C341.286 54.899 341.524 54.99 341.725 55.172C341.926 55.3493 342.026 55.5803 342.026 55.865C342.026 56.1543 341.926 56.3877 341.725 56.565C341.524 56.7423 341.286 56.831 341.011 56.831ZM345.641 65L343.051 58.07H344.738L346.656 63.677H346.425L348.308 58.07H349.946L347.405 65H345.641ZM354.315 65.21C353.568 65.21 352.913 65.0583 352.348 64.755C351.783 64.447 351.342 64.0177 351.025 63.467C350.712 62.9163 350.556 62.277 350.556 61.549C350.556 61.017 350.647 60.527 350.829 60.079C351.011 59.6263 351.268 59.2343 351.599 58.903C351.93 58.5717 352.318 58.315 352.761 58.133C353.209 57.951 353.697 57.86 354.224 57.86C354.798 57.86 355.309 57.9627 355.757 58.168C356.205 58.3687 356.576 58.651 356.87 59.015C357.169 59.379 357.379 59.806 357.5 60.296C357.626 60.7813 357.647 61.3087 357.563 61.878H352.033C352.024 62.2933 352.115 62.6573 352.306 62.97C352.497 63.278 352.77 63.5183 353.125 63.691C353.484 63.8637 353.907 63.95 354.392 63.95C354.784 63.95 355.162 63.8917 355.526 63.775C355.895 63.6537 356.228 63.4763 356.527 63.243L357.122 64.349C356.898 64.531 356.627 64.6873 356.31 64.818C355.993 64.944 355.661 65.0397 355.316 65.105C354.971 65.175 354.637 65.21 354.315 65.21ZM352.124 60.744H356.051C356.037 60.2213 355.869 59.8107 355.547 59.512C355.23 59.2133 354.777 59.064 354.189 59.064C353.62 59.064 353.146 59.2133 352.768 59.512C352.395 59.8107 352.18 60.2213 352.124 60.744ZM359.163 65V58.07H360.703V59.029C360.964 58.595 361.281 58.2917 361.655 58.119C362.028 57.9417 362.429 57.853 362.859 57.853C362.999 57.853 363.132 57.86 363.258 57.874C363.384 57.888 363.505 57.909 363.622 57.937L363.419 59.526C363.279 59.484 363.136 59.4513 362.992 59.428C362.847 59.4047 362.702 59.393 362.558 59.393C362.021 59.393 361.578 59.5587 361.228 59.89C360.878 60.2167 360.703 60.6623 360.703 61.227V65H359.163ZM365.691 68.136C365.439 68.136 365.192 68.108 364.949 68.052C364.707 67.996 364.469 67.9003 364.235 67.765L364.585 66.449C364.73 66.5423 364.889 66.6123 365.061 66.659C365.234 66.7057 365.388 66.729 365.523 66.729C365.85 66.729 366.107 66.652 366.293 66.498C366.48 66.344 366.627 66.106 366.734 65.784L366.965 65.112L364.235 58.07H365.922L367.84 63.446L369.709 58.07H371.34L368.344 66.001C368.13 66.5563 367.889 66.988 367.623 67.296C367.357 67.6087 367.063 67.8257 366.741 67.947C366.419 68.073 366.069 68.136 365.691 68.136Z" fill="#323232"/>
<rect x="119" y="24.5" width="19" height="19" rx="9.5" stroke="#557FFE"/>
<rect x="121" y="26.5" width="15" height="15" rx="7.5" fill="#557FFE" stroke="#557FFE"/>
<mask id="path-11-outside-1_2197_27408" maskUnits="userSpaceOnUse" x="124.5" y="29" width="8" height="10" fill="black">
<rect fill="white" x="124.5" y="29" width="8" height="10"/>
<path d="M126.095 38V37.2L127.61 35.815C128.09 35.375 128.477 34.9967 128.77 34.68C129.063 34.36 129.277 34.0717 129.41 33.815C129.543 33.5583 129.61 33.2983 129.61 33.035C129.61 32.6517 129.478 32.3533 129.215 32.14C128.955 31.9233 128.592 31.815 128.125 31.815C127.815 31.815 127.518 31.8683 127.235 31.975C126.952 32.0817 126.71 32.2367 126.51 32.44L126.1 31.625C126.383 31.3717 126.71 31.18 127.08 31.05C127.45 30.9167 127.838 30.85 128.245 30.85C128.728 30.85 129.15 30.9367 129.51 31.11C129.873 31.28 130.155 31.5217 130.355 31.835C130.558 32.145 130.66 32.5083 130.66 32.925C130.66 33.215 130.602 33.505 130.485 33.795C130.372 34.0817 130.167 34.405 129.87 34.765C129.577 35.125 129.16 35.5567 128.62 36.06L127.545 37.05H130.835V38H126.095Z"/>
</mask>
<path d="M126.095 38V37.2L127.61 35.815C128.09 35.375 128.477 34.9967 128.77 34.68C129.063 34.36 129.277 34.0717 129.41 33.815C129.543 33.5583 129.61 33.2983 129.61 33.035C129.61 32.6517 129.478 32.3533 129.215 32.14C128.955 31.9233 128.592 31.815 128.125 31.815C127.815 31.815 127.518 31.8683 127.235 31.975C126.952 32.0817 126.71 32.2367 126.51 32.44L126.1 31.625C126.383 31.3717 126.71 31.18 127.08 31.05C127.45 30.9167 127.838 30.85 128.245 30.85C128.728 30.85 129.15 30.9367 129.51 31.11C129.873 31.28 130.155 31.5217 130.355 31.835C130.558 32.145 130.66 32.5083 130.66 32.925C130.66 33.215 130.602 33.505 130.485 33.795C130.372 34.0817 130.167 34.405 129.87 34.765C129.577 35.125 129.16 35.5567 128.62 36.06L127.545 37.05H130.835V38H126.095Z" fill="white"/>
<path d="M126.095 38H125.095V39H126.095V38ZM126.095 37.2L125.42 36.4619L125.095 36.7593V37.2H126.095ZM127.61 35.815L128.285 36.5531L128.286 36.5522L127.61 35.815ZM128.77 34.68L129.504 35.3596L129.507 35.3557L128.77 34.68ZM129.41 33.815L130.297 34.276L130.297 34.276L129.41 33.815ZM129.215 32.14L128.575 32.9083L128.586 32.917L129.215 32.14ZM127.235 31.975L127.587 32.9109L127.587 32.9109L127.235 31.975ZM126.51 32.44L125.617 32.8894L126.244 34.1365L127.223 33.1412L126.51 32.44ZM126.1 31.625L125.433 30.8795L124.862 31.3901L125.207 32.0744L126.1 31.625ZM127.08 31.05L127.411 31.9935L127.419 31.9908L127.08 31.05ZM129.51 31.11L129.076 32.0111L129.086 32.0158L129.51 31.11ZM130.355 31.835L129.512 32.3731L129.519 32.3835L130.355 31.835ZM130.485 33.795L129.557 33.4218L129.555 33.4273L130.485 33.795ZM129.87 34.765L129.098 34.129L129.095 34.1333L129.87 34.765ZM128.62 36.06L129.297 36.7956L129.302 36.7915L128.62 36.06ZM127.545 37.05L126.868 36.3144L124.983 38.05H127.545V37.05ZM130.835 37.05H131.835V36.05H130.835V37.05ZM130.835 38V39H131.835V38H130.835ZM127.095 38V37.2H125.095V38H127.095ZM126.77 37.9381L128.285 36.5531L126.935 35.0769L125.42 36.4619L126.77 37.9381ZM128.286 36.5522C128.777 36.102 129.185 35.7035 129.504 35.3596L128.036 34.0004C127.768 34.2898 127.403 34.648 126.934 35.0778L128.286 36.5522ZM129.507 35.3557C129.833 34.9999 130.109 34.6389 130.297 34.276L128.523 33.354C128.444 33.5044 128.293 33.7201 128.033 34.0043L129.507 35.3557ZM130.297 34.276C130.497 33.8912 130.61 33.4741 130.61 33.035H128.61C128.61 33.1225 128.589 33.2255 128.523 33.354L130.297 34.276ZM130.61 33.035C130.61 32.3947 130.375 31.7926 129.844 31.363L128.586 32.917C128.59 32.9206 128.593 32.9232 128.594 32.9247C128.596 32.9262 128.596 32.927 128.596 32.927C128.596 32.927 128.596 32.9268 128.596 32.9265C128.596 32.9263 128.596 32.9265 128.596 32.9275C128.597 32.9291 128.61 32.9583 128.61 33.035H130.61ZM129.855 31.3718C129.358 30.9572 128.737 30.815 128.125 30.815V32.815C128.446 32.815 128.552 32.8894 128.575 32.9082L129.855 31.3718ZM128.125 30.815C127.698 30.815 127.281 30.889 126.883 31.0391L127.587 32.9109C127.755 32.8476 127.932 32.815 128.125 32.815V30.815ZM126.883 31.0391C126.472 31.1937 126.105 31.4257 125.797 31.7388L127.223 33.1412C127.315 33.0477 127.431 32.9696 127.587 32.9109L126.883 31.0391ZM127.403 31.9906L126.993 31.1756L125.207 32.0744L125.617 32.8894L127.403 31.9906ZM126.767 32.3705C126.949 32.2072 127.161 32.0815 127.411 31.9935L126.749 30.1065C126.259 30.2785 125.818 30.5361 125.433 30.8795L126.767 32.3705ZM127.419 31.9908C127.677 31.898 127.95 31.85 128.245 31.85V29.85C127.727 29.85 127.223 29.9354 126.741 30.1092L127.419 31.9908ZM128.245 31.85C128.609 31.85 128.877 31.9151 129.076 32.011L129.944 30.209C129.423 29.9583 128.848 29.85 128.245 29.85V31.85ZM129.086 32.0158C129.292 32.112 129.422 32.2322 129.512 32.373L131.198 31.297C130.888 30.8111 130.455 30.448 129.934 30.2042L129.086 32.0158ZM129.519 32.3835C129.602 32.5108 129.66 32.6783 129.66 32.925H131.66C131.66 32.3384 131.514 31.7792 131.191 31.2865L129.519 32.3835ZM129.66 32.925C129.66 33.0774 129.63 33.2411 129.557 33.4218L131.413 34.1682C131.573 33.7689 131.66 33.3526 131.66 32.925H129.66ZM129.555 33.4273C129.494 33.5806 129.359 33.8127 129.098 34.129L130.642 35.401C130.974 34.9973 131.249 34.5828 131.415 34.1627L129.555 33.4273ZM129.095 34.1333C128.842 34.4436 128.462 34.8404 127.938 35.3285L129.302 36.7915C129.858 36.2729 130.311 35.8064 130.645 35.3967L129.095 34.1333ZM127.943 35.3244L126.868 36.3144L128.222 37.7856L129.297 36.7956L127.943 35.3244ZM127.545 38.05H130.835V36.05H127.545V38.05ZM129.835 37.05V38H131.835V37.05H129.835ZM130.835 37H126.095V39H130.835V37Z" fill="#557FFE" mask="url(#path-11-outside-1_2197_27408)"/>
<rect x="118.5" y="24" width="20" height="20" rx="10" fill="#557FFE"/>
<path d="M132.988 30.8642C132.926 30.8017 132.852 30.7521 132.771 30.7183C132.689 30.6844 132.602 30.667 132.514 30.667C132.426 30.667 132.339 30.6844 132.258 30.7183C132.177 30.7521 132.103 30.8017 132.041 30.8642L127.074 35.8375L124.988 33.7442C124.923 33.682 124.847 33.6332 124.764 33.6004C124.681 33.5676 124.592 33.5515 124.503 33.553C124.413 33.5546 124.325 33.5737 124.243 33.6094C124.161 33.645 124.086 33.6965 124.024 33.7609C123.962 33.8252 123.913 33.9012 123.88 33.9844C123.848 34.0676 123.832 34.1565 123.833 34.246C123.835 34.3354 123.854 34.4237 123.889 34.5058C123.925 34.5878 123.977 34.662 124.041 34.7242L126.601 37.2842C126.663 37.3467 126.737 37.3963 126.818 37.4301C126.899 37.464 126.986 37.4814 127.074 37.4814C127.162 37.4814 127.249 37.464 127.331 37.4301C127.412 37.3963 127.486 37.3467 127.548 37.2842L132.988 31.8442C133.055 31.7818 133.109 31.706 133.146 31.6217C133.183 31.5373 133.202 31.4463 133.202 31.3542C133.202 31.2621 133.183 31.1711 133.146 31.0867C133.109 31.0024 133.055 30.9266 132.988 30.8642Z" fill="white"/>
<rect x="18.5" y="24" width="20" height="20" rx="10" fill="#557FFE"/>
<path d="M32.9876 30.8642C32.9256 30.8017 32.8519 30.7521 32.7707 30.7183C32.6894 30.6844 32.6023 30.667 32.5143 30.667C32.4263 30.667 32.3391 30.6844 32.2579 30.7183C32.1767 30.7521 32.1029 30.8017 32.041 30.8642L27.0743 35.8375L24.9876 33.7442C24.9233 33.682 24.8473 33.6332 24.7641 33.6004C24.6808 33.5676 24.592 33.5515 24.5025 33.553C24.4131 33.5546 24.3248 33.5737 24.2427 33.6094C24.1607 33.645 24.0864 33.6965 24.0243 33.7609C23.9621 33.8252 23.9133 33.9012 23.8805 33.9844C23.8476 34.0676 23.8316 34.1565 23.8331 34.246C23.8347 34.3354 23.8538 34.4237 23.8895 34.5058C23.9251 34.5878 23.9766 34.662 24.041 34.7242L26.601 37.2842C26.6629 37.3467 26.7367 37.3963 26.8179 37.4301C26.8991 37.464 26.9863 37.4814 27.0743 37.4814C27.1623 37.4814 27.2494 37.464 27.3307 37.4301C27.4119 37.3963 27.4856 37.3467 27.5476 37.2842L32.9876 31.8442C33.0553 31.7818 33.1093 31.706 33.1462 31.6217C33.1832 31.5373 33.2022 31.4463 33.2022 31.3542C33.2022 31.2621 33.1832 31.1711 33.1462 31.0867C33.1093 31.0024 33.0553 30.9266 32.9876 30.8642Z" fill="white"/>
<line x1="49.5" y1="33" x2="107.5" y2="33" stroke="#557FFE" stroke-width="2" stroke-linecap="round"/>
<line x1="149.5" y1="33" x2="207.5" y2="33" stroke="#557FFE" stroke-width="2" stroke-linecap="round"/>
<rect opacity="0.5" x="218.5" y="24" width="20" height="20" rx="10" fill="#557FFE"/>
<path d="M228.13 38.15C227.84 38.15 227.553 38.12 227.27 38.06C226.99 38 226.732 37.9183 226.495 37.815C226.262 37.7083 226.07 37.5867 225.92 37.45L226.295 36.53C226.505 36.7267 226.772 36.8833 227.095 37C227.418 37.1167 227.74 37.175 228.06 37.175C228.377 37.175 228.652 37.1217 228.885 37.015C229.118 36.9083 229.298 36.7583 229.425 36.565C229.555 36.3717 229.62 36.1433 229.62 35.88C229.62 35.48 229.473 35.1683 229.18 34.945C228.89 34.7217 228.503 34.61 228.02 34.61C227.89 34.61 227.755 34.62 227.615 34.64C227.475 34.6567 227.333 34.6817 227.19 34.715L226.865 33.98L229.055 31.94H225.975V31H230.385V31.865L228.3 33.89C228.717 33.8833 229.108 33.955 229.475 34.105C229.842 34.255 230.137 34.4833 230.36 34.79C230.587 35.0933 230.7 35.4767 230.7 35.94C230.7 36.38 230.59 36.7667 230.37 37.1C230.15 37.43 229.847 37.6883 229.46 37.875C229.073 38.0583 228.63 38.15 228.13 38.15Z" fill="white"/>
<rect x="219" y="24.5" width="19" height="19" rx="9.5" stroke="#557FFE"/>
<rect x="221" y="26.5" width="15" height="15" rx="7.5" fill="#557FFE" stroke="#557FFE"/>
<mask id="path-23-outside-2_2197_27408" maskUnits="userSpaceOnUse" x="224.5" y="30" width="8" height="10" fill="black">
<rect fill="white" x="224.5" y="30" width="8" height="10"/>
<path d="M228.13 38.15C227.84 38.15 227.553 38.12 227.27 38.06C226.99 38 226.732 37.9183 226.495 37.815C226.262 37.7083 226.07 37.5867 225.92 37.45L226.295 36.53C226.505 36.7267 226.772 36.8833 227.095 37C227.418 37.1167 227.74 37.175 228.06 37.175C228.377 37.175 228.652 37.1217 228.885 37.015C229.118 36.9083 229.298 36.7583 229.425 36.565C229.555 36.3717 229.62 36.1433 229.62 35.88C229.62 35.48 229.473 35.1683 229.18 34.945C228.89 34.7217 228.503 34.61 228.02 34.61C227.89 34.61 227.755 34.62 227.615 34.64C227.475 34.6567 227.333 34.6817 227.19 34.715L226.865 33.98L229.055 31.94H225.975V31H230.385V31.865L228.3 33.89C228.717 33.8833 229.108 33.955 229.475 34.105C229.842 34.255 230.137 34.4833 230.36 34.79C230.587 35.0933 230.7 35.4767 230.7 35.94C230.7 36.38 230.59 36.7667 230.37 37.1C230.15 37.43 229.847 37.6883 229.46 37.875C229.073 38.0583 228.63 38.15 228.13 38.15Z"/>
</mask>
<path d="M228.13 38.15C227.84 38.15 227.553 38.12 227.27 38.06C226.99 38 226.732 37.9183 226.495 37.815C226.262 37.7083 226.07 37.5867 225.92 37.45L226.295 36.53C226.505 36.7267 226.772 36.8833 227.095 37C227.418 37.1167 227.74 37.175 228.06 37.175C228.377 37.175 228.652 37.1217 228.885 37.015C229.118 36.9083 229.298 36.7583 229.425 36.565C229.555 36.3717 229.62 36.1433 229.62 35.88C229.62 35.48 229.473 35.1683 229.18 34.945C228.89 34.7217 228.503 34.61 228.02 34.61C227.89 34.61 227.755 34.62 227.615 34.64C227.475 34.6567 227.333 34.6817 227.19 34.715L226.865 33.98L229.055 31.94H225.975V31H230.385V31.865L228.3 33.89C228.717 33.8833 229.108 33.955 229.475 34.105C229.842 34.255 230.137 34.4833 230.36 34.79C230.587 35.0933 230.7 35.4767 230.7 35.94C230.7 36.38 230.59 36.7667 230.37 37.1C230.15 37.43 229.847 37.6883 229.46 37.875C229.073 38.0583 228.63 38.15 228.13 38.15Z" fill="white"/>
<path d="M227.27 38.06L227.06 39.0378L227.063 39.0383L227.27 38.06ZM226.495 37.815L226.079 38.7245L226.087 38.728L226.095 38.7315L226.495 37.815ZM225.92 37.45L224.994 37.0725L224.73 37.719L225.247 38.1892L225.92 37.45ZM226.295 36.53L226.979 35.8001L225.918 34.8065L225.369 36.1525L226.295 36.53ZM227.095 37L226.756 37.9406H226.756L227.095 37ZM229.425 36.565L228.595 36.007L228.589 36.017L229.425 36.565ZM229.18 34.945L228.57 35.7373L228.574 35.7406L229.18 34.945ZM227.615 34.64L227.733 35.633L227.745 35.6316L227.756 35.6299L227.615 34.64ZM227.19 34.715L226.275 35.1194L226.61 35.8765L227.417 35.689L227.19 34.715ZM226.865 33.98L226.183 33.2483L225.663 33.7334L225.95 34.3844L226.865 33.98ZM229.055 31.94L229.737 32.6717L231.596 30.94H229.055V31.94ZM225.975 31.94H224.975V32.94H225.975V31.94ZM225.975 31V30H224.975V31H225.975ZM230.385 31H231.385V30H230.385V31ZM230.385 31.865L231.082 32.5824L231.385 32.2878V31.865H230.385ZM228.3 33.89L227.603 33.1726L225.794 34.9302L228.316 34.8899L228.3 33.89ZM229.475 34.105L229.096 35.0305H229.096L229.475 34.105ZM230.36 34.79L229.552 35.3787L229.559 35.3886L230.36 34.79ZM230.37 37.1L231.202 37.6547L231.205 37.6508L230.37 37.1ZM229.46 37.875L229.888 38.7786L229.895 38.7756L229.46 37.875ZM228.13 37.15C227.91 37.15 227.692 37.1273 227.477 37.0817L227.063 39.0383C227.414 39.1127 227.77 39.15 228.13 39.15V37.15ZM227.48 37.0822C227.258 37.0347 227.064 36.9724 226.895 36.8985L226.095 38.7315C226.399 38.8643 226.722 38.9653 227.06 39.0378L227.48 37.0822ZM226.911 36.9055C226.748 36.8311 226.65 36.7621 226.593 36.7108L225.247 38.1892C225.49 38.4112 225.775 38.5856 226.079 38.7245L226.911 36.9055ZM226.846 37.8275L227.221 36.9075L225.369 36.1525L224.994 37.0725L226.846 37.8275ZM225.611 37.2599C225.938 37.5657 226.329 37.7867 226.756 37.9406L227.434 36.0594C227.214 35.98 227.072 35.8876 226.979 35.8001L225.611 37.2599ZM226.756 37.9406C227.18 38.0937 227.616 38.175 228.06 38.175V36.175C227.864 36.175 227.657 36.1397 227.434 36.0594L226.756 37.9406ZM228.06 38.175C228.487 38.175 228.91 38.1031 229.301 37.9245L228.469 36.1055C228.393 36.1403 228.266 36.175 228.06 36.175V38.175ZM229.301 37.9245C229.686 37.7483 230.02 37.4811 230.261 37.113L228.589 36.017C228.576 36.0356 228.551 36.0684 228.469 36.1055L229.301 37.9245ZM230.255 37.123C230.51 36.7438 230.62 36.3153 230.62 35.88H228.62C228.62 35.9713 228.6 35.9995 228.595 36.007L230.255 37.123ZM230.62 35.88C230.62 35.1984 230.351 34.5796 229.786 34.1494L228.574 35.7406C228.59 35.7526 228.597 35.7608 228.6 35.7643C228.603 35.7675 228.604 35.7696 228.605 35.772C228.606 35.7748 228.62 35.8036 228.62 35.88H230.62ZM229.79 34.1527C229.276 33.7571 228.653 33.61 228.02 33.61V35.61C228.353 35.61 228.504 35.6862 228.57 35.7373L229.79 34.1527ZM228.02 33.61C227.839 33.61 227.656 33.6239 227.474 33.6501L227.756 35.6299C227.854 35.6161 227.941 35.61 228.02 35.61V33.61ZM227.497 33.647C227.319 33.6682 227.141 33.6997 226.963 33.741L227.417 35.689C227.526 35.6636 227.631 35.6451 227.733 35.633L227.497 33.647ZM228.105 34.3106L227.78 33.5756L225.95 34.3844L226.275 35.1194L228.105 34.3106ZM227.547 34.7117L229.737 32.6717L228.373 31.2083L226.183 33.2483L227.547 34.7117ZM229.055 30.94H225.975V32.94H229.055V30.94ZM226.975 31.94V31H224.975V31.94H226.975ZM225.975 32H230.385V30H225.975V32ZM229.385 31V31.865H231.385V31H229.385ZM229.688 31.1476L227.603 33.1726L228.997 34.6074L231.082 32.5824L229.688 31.1476ZM228.316 34.8899C228.605 34.8853 228.861 34.9344 229.096 35.0305L229.854 33.1795C229.355 32.9756 228.829 32.8814 228.284 32.8901L228.316 34.8899ZM229.096 35.0305C229.299 35.1136 229.442 35.2288 229.552 35.3787L231.168 34.2013C230.831 33.7379 230.384 33.3964 229.854 33.1795L229.096 35.0305ZM229.559 35.3886C229.63 35.4834 229.7 35.6431 229.7 35.94H231.7C231.7 35.3102 231.544 34.7033 231.161 34.1914L229.559 35.3886ZM229.7 35.94C229.7 36.2049 229.637 36.3957 229.535 36.5492L231.205 37.6508C231.543 37.1376 231.7 36.5551 231.7 35.94H229.7ZM229.538 36.5453C229.425 36.7144 229.265 36.8589 229.025 36.9744L229.895 38.7756C230.429 38.5178 230.875 38.1456 231.202 37.6547L229.538 36.5453ZM229.032 36.9714C228.8 37.0814 228.507 37.15 228.13 37.15V39.15C228.753 39.15 229.347 39.0352 229.888 38.7786L229.032 36.9714Z" fill="#557FFE" mask="url(#path-23-outside-2_2197_27408)"/>
<rect x="219" y="24.5" width="19" height="19" rx="9.5" stroke="#557FFE"/>
<rect x="221" y="26.5" width="15" height="15" rx="7.5" fill="#557FFE" stroke="#557FFE"/>
<mask id="path-27-outside-3_2197_27408" maskUnits="userSpaceOnUse" x="224.5" y="29" width="8" height="10" fill="black">
<rect fill="white" x="224.5" y="29" width="8" height="10"/>
<path d="M226.095 38V37.2L227.61 35.815C228.09 35.375 228.477 34.9967 228.77 34.68C229.063 34.36 229.277 34.0717 229.41 33.815C229.543 33.5583 229.61 33.2983 229.61 33.035C229.61 32.6517 229.478 32.3533 229.215 32.14C228.955 31.9233 228.592 31.815 228.125 31.815C227.815 31.815 227.518 31.8683 227.235 31.975C226.952 32.0817 226.71 32.2367 226.51 32.44L226.1 31.625C226.383 31.3717 226.71 31.18 227.08 31.05C227.45 30.9167 227.838 30.85 228.245 30.85C228.728 30.85 229.15 30.9367 229.51 31.11C229.873 31.28 230.155 31.5217 230.355 31.835C230.558 32.145 230.66 32.5083 230.66 32.925C230.66 33.215 230.602 33.505 230.485 33.795C230.372 34.0817 230.167 34.405 229.87 34.765C229.577 35.125 229.16 35.5567 228.62 36.06L227.545 37.05H230.835V38H226.095Z"/>
</mask>
<path d="M226.095 38V37.2L227.61 35.815C228.09 35.375 228.477 34.9967 228.77 34.68C229.063 34.36 229.277 34.0717 229.41 33.815C229.543 33.5583 229.61 33.2983 229.61 33.035C229.61 32.6517 229.478 32.3533 229.215 32.14C228.955 31.9233 228.592 31.815 228.125 31.815C227.815 31.815 227.518 31.8683 227.235 31.975C226.952 32.0817 226.71 32.2367 226.51 32.44L226.1 31.625C226.383 31.3717 226.71 31.18 227.08 31.05C227.45 30.9167 227.838 30.85 228.245 30.85C228.728 30.85 229.15 30.9367 229.51 31.11C229.873 31.28 230.155 31.5217 230.355 31.835C230.558 32.145 230.66 32.5083 230.66 32.925C230.66 33.215 230.602 33.505 230.485 33.795C230.372 34.0817 230.167 34.405 229.87 34.765C229.577 35.125 229.16 35.5567 228.62 36.06L227.545 37.05H230.835V38H226.095Z" fill="white"/>
<path d="M226.095 38H225.095V39H226.095V38ZM226.095 37.2L225.42 36.4619L225.095 36.7593V37.2H226.095ZM227.61 35.815L228.285 36.5531L228.286 36.5522L227.61 35.815ZM228.77 34.68L229.504 35.3596L229.507 35.3557L228.77 34.68ZM229.41 33.815L230.297 34.276L230.297 34.276L229.41 33.815ZM229.215 32.14L228.575 32.9083L228.586 32.917L229.215 32.14ZM227.235 31.975L227.587 32.9109L227.587 32.9109L227.235 31.975ZM226.51 32.44L225.617 32.8894L226.244 34.1365L227.223 33.1412L226.51 32.44ZM226.1 31.625L225.433 30.8795L224.862 31.3901L225.207 32.0744L226.1 31.625ZM227.08 31.05L227.411 31.9935L227.419 31.9908L227.08 31.05ZM229.51 31.11L229.076 32.0111L229.086 32.0158L229.51 31.11ZM230.355 31.835L229.512 32.3731L229.519 32.3835L230.355 31.835ZM230.485 33.795L229.557 33.4218L229.555 33.4273L230.485 33.795ZM229.87 34.765L229.098 34.129L229.095 34.1333L229.87 34.765ZM228.62 36.06L229.297 36.7956L229.302 36.7915L228.62 36.06ZM227.545 37.05L226.868 36.3144L224.983 38.05H227.545V37.05ZM230.835 37.05H231.835V36.05H230.835V37.05ZM230.835 38V39H231.835V38H230.835ZM227.095 38V37.2H225.095V38H227.095ZM226.77 37.9381L228.285 36.5531L226.935 35.0769L225.42 36.4619L226.77 37.9381ZM228.286 36.5522C228.777 36.102 229.185 35.7035 229.504 35.3596L228.036 34.0004C227.768 34.2898 227.403 34.648 226.934 35.0778L228.286 36.5522ZM229.507 35.3557C229.833 34.9999 230.109 34.6389 230.297 34.276L228.523 33.354C228.444 33.5044 228.293 33.7201 228.033 34.0043L229.507 35.3557ZM230.297 34.276C230.497 33.8912 230.61 33.4741 230.61 33.035H228.61C228.61 33.1225 228.589 33.2255 228.523 33.354L230.297 34.276ZM230.61 33.035C230.61 32.3947 230.375 31.7926 229.844 31.363L228.586 32.917C228.59 32.9206 228.593 32.9232 228.594 32.9247C228.596 32.9262 228.596 32.927 228.596 32.927C228.596 32.927 228.596 32.9268 228.596 32.9265C228.596 32.9263 228.596 32.9265 228.596 32.9275C228.597 32.9291 228.61 32.9583 228.61 33.035H230.61ZM229.855 31.3718C229.358 30.9572 228.737 30.815 228.125 30.815V32.815C228.446 32.815 228.552 32.8894 228.575 32.9082L229.855 31.3718ZM228.125 30.815C227.698 30.815 227.281 30.889 226.883 31.0391L227.587 32.9109C227.755 32.8476 227.932 32.815 228.125 32.815V30.815ZM226.883 31.0391C226.472 31.1937 226.105 31.4257 225.797 31.7388L227.223 33.1412C227.315 33.0477 227.431 32.9696 227.587 32.9109L226.883 31.0391ZM227.403 31.9906L226.993 31.1756L225.207 32.0744L225.617 32.8894L227.403 31.9906ZM226.767 32.3705C226.949 32.2072 227.161 32.0815 227.411 31.9935L226.749 30.1065C226.259 30.2785 225.818 30.5361 225.433 30.8795L226.767 32.3705ZM227.419 31.9908C227.677 31.898 227.95 31.85 228.245 31.85V29.85C227.727 29.85 227.223 29.9354 226.741 30.1092L227.419 31.9908ZM228.245 31.85C228.609 31.85 228.877 31.9151 229.076 32.011L229.944 30.209C229.423 29.9583 228.848 29.85 228.245 29.85V31.85ZM229.086 32.0158C229.292 32.112 229.422 32.2322 229.512 32.373L231.198 31.297C230.888 30.8111 230.455 30.448 229.934 30.2042L229.086 32.0158ZM229.519 32.3835C229.602 32.5108 229.66 32.6783 229.66 32.925H231.66C231.66 32.3384 231.514 31.7792 231.191 31.2865L229.519 32.3835ZM229.66 32.925C229.66 33.0774 229.63 33.2411 229.557 33.4218L231.413 34.1682C231.573 33.7689 231.66 33.3526 231.66 32.925H229.66ZM229.555 33.4273C229.494 33.5806 229.359 33.8127 229.098 34.129L230.642 35.401C230.974 34.9973 231.249 34.5828 231.415 34.1627L229.555 33.4273ZM229.095 34.1333C228.842 34.4436 228.462 34.8404 227.938 35.3285L229.302 36.7915C229.858 36.2729 230.311 35.8064 230.645 35.3967L229.095 34.1333ZM227.943 35.3244L226.868 36.3144L228.222 37.7856L229.297 36.7956L227.943 35.3244ZM227.545 38.05H230.835V36.05H227.545V38.05ZM229.835 37.05V38H231.835V37.05H229.835ZM230.835 37H226.095V39H230.835V37Z" fill="#557FFE" mask="url(#path-27-outside-3_2197_27408)"/>
<rect x="218.5" y="24" width="20" height="20" rx="10" fill="#557FFE"/>
<path d="M232.988 30.8642C232.926 30.8017 232.852 30.7521 232.771 30.7183C232.689 30.6844 232.602 30.667 232.514 30.667C232.426 30.667 232.339 30.6844 232.258 30.7183C232.177 30.7521 232.103 30.8017 232.041 30.8642L227.074 35.8375L224.988 33.7442C224.923 33.682 224.847 33.6332 224.764 33.6004C224.681 33.5676 224.592 33.5515 224.503 33.553C224.413 33.5546 224.325 33.5737 224.243 33.6094C224.161 33.645 224.086 33.6965 224.024 33.7609C223.962 33.8252 223.913 33.9012 223.88 33.9844C223.848 34.0676 223.832 34.1565 223.833 34.246C223.835 34.3354 223.854 34.4237 223.889 34.5058C223.925 34.5878 223.977 34.662 224.041 34.7242L226.601 37.2842C226.663 37.3467 226.737 37.3963 226.818 37.4301C226.899 37.464 226.986 37.4814 227.074 37.4814C227.162 37.4814 227.249 37.464 227.331 37.4301C227.412 37.3963 227.486 37.3467 227.548 37.2842L232.988 31.8442C233.055 31.7818 233.109 31.706 233.146 31.6217C233.183 31.5373 233.202 31.4463 233.202 31.3542C233.202 31.2621 233.183 31.1711 233.146 31.0867C233.109 31.0024 233.055 30.9266 232.988 30.8642Z" fill="white"/>
<rect opacity="0.5" x="318.5" y="24" width="20" height="20" rx="10" fill="#557FFE"/>
<path d="M329.16 38V36.565H325.675V35.72L328.185 31H329.325L326.85 35.63H329.16V34.075H330.125V35.63H331.205V36.565H330.125V38H329.16Z" fill="white"/>
<rect x="319" y="24.5" width="19" height="19" rx="9.5" stroke="#557FFE"/>
<rect x="321" y="26.5" width="15" height="15" rx="7.5" fill="#557FFE" stroke="#557FFE"/>
<mask id="path-35-outside-4_2197_27408" maskUnits="userSpaceOnUse" x="324.5" y="30" width="8" height="9" fill="black">
<rect fill="white" x="324.5" y="30" width="8" height="9"/>
<path d="M329.16 38V36.565H325.675V35.72L328.185 31H329.325L326.85 35.63H329.16V34.075H330.125V35.63H331.205V36.565H330.125V38H329.16Z"/>
</mask>
<path d="M329.16 38V36.565H325.675V35.72L328.185 31H329.325L326.85 35.63H329.16V34.075H330.125V35.63H331.205V36.565H330.125V38H329.16Z" fill="white"/>
<path d="M329.16 38H328.16V39H329.16V38ZM329.16 36.565H330.16V35.565H329.16V36.565ZM325.675 36.565H324.675V37.565H325.675V36.565ZM325.675 35.72L324.792 35.2505L324.675 35.4706V35.72H325.675ZM328.185 31V30H327.584L327.302 30.5305L328.185 31ZM329.325 31L330.207 31.4714L330.993 30H329.325V31ZM326.85 35.63L325.968 35.1586L325.182 36.63H326.85V35.63ZM329.16 35.63V36.63H330.16V35.63H329.16ZM329.16 34.075V33.075H328.16V34.075H329.16ZM330.125 34.075H331.125V33.075H330.125V34.075ZM330.125 35.63H329.125V36.63H330.125V35.63ZM331.205 35.63H332.205V34.63H331.205V35.63ZM331.205 36.565V37.565H332.205V36.565H331.205ZM330.125 36.565V35.565H329.125V36.565H330.125ZM330.125 38V39H331.125V38H330.125ZM330.16 38V36.565H328.16V38H330.16ZM329.16 35.565H325.675V37.565H329.16V35.565ZM326.675 36.565V35.72H324.675V36.565H326.675ZM326.558 36.1895L329.068 31.4695L327.302 30.5305L324.792 35.2505L326.558 36.1895ZM328.185 32H329.325V30H328.185V32ZM328.443 30.5286L325.968 35.1586L327.732 36.1014L330.207 31.4714L328.443 30.5286ZM326.85 36.63H329.16V34.63H326.85V36.63ZM330.16 35.63V34.075H328.16V35.63H330.16ZM329.16 35.075H330.125V33.075H329.16V35.075ZM329.125 34.075V35.63H331.125V34.075H329.125ZM330.125 36.63H331.205V34.63H330.125V36.63ZM330.205 35.63V36.565H332.205V35.63H330.205ZM331.205 35.565H330.125V37.565H331.205V35.565ZM329.125 36.565V38H331.125V36.565H329.125ZM330.125 37H329.16V39H330.125V37Z" fill="#557FFE" mask="url(#path-35-outside-4_2197_27408)"/>
<line opacity="0.5" x1="248.5" y1="33" x2="306.5" y2="33" stroke="#557FFE" stroke-width="2" stroke-linecap="round"/>
<line x1="248.5" y1="33" x2="271.5" y2="33" stroke="#557FFE" stroke-width="2" stroke-linecap="round"/>
<line x1="249.5" y1="33" x2="307.5" y2="33" stroke="#557FFE" stroke-width="2" stroke-linecap="round"/>
<path d="M221.52 79.15C221.003 79.15 220.542 79.0317 220.135 78.795C219.732 78.555 219.415 78.2367 219.185 77.84C218.955 77.44 218.84 77.0017 218.84 76.525C218.84 76.1717 218.905 75.8383 219.035 75.525C219.168 75.2083 219.355 74.9283 219.595 74.685C219.838 74.4417 220.123 74.25 220.45 74.11C220.777 73.97 221.135 73.9 221.525 73.9C222.042 73.9 222.502 74.02 222.905 74.26C223.312 74.4967 223.63 74.815 223.86 75.215C224.09 75.6117 224.205 76.0483 224.205 76.525C224.205 76.875 224.138 77.2083 224.005 77.525C223.875 77.8417 223.69 78.1217 223.45 78.365C223.21 78.6083 222.927 78.8 222.6 78.94C222.273 79.08 221.913 79.15 221.52 79.15ZM221.52 78.175C221.827 78.175 222.098 78.1083 222.335 77.975C222.575 77.8383 222.763 77.6467 222.9 77.4C223.037 77.1533 223.105 76.8617 223.105 76.525C223.105 76.1883 223.037 75.8967 222.9 75.65C222.763 75.4 222.575 75.2083 222.335 75.075C222.098 74.9417 221.827 74.875 221.52 74.875C221.213 74.875 220.94 74.9417 220.7 75.075C220.463 75.2083 220.277 75.4 220.14 75.65C220.007 75.8967 219.94 76.1883 219.94 76.525C219.94 76.8617 220.008 77.1533 220.145 77.4C220.282 77.6467 220.468 77.8383 220.705 77.975C220.945 78.1083 221.217 78.175 221.52 78.175ZM227.22 79.15C226.777 79.15 226.41 79.0617 226.12 78.885C225.833 78.705 225.618 78.4683 225.475 78.175C225.332 77.8817 225.26 77.5617 225.26 77.215V74.05H226.36V77.01C226.36 77.35 226.46 77.6233 226.66 77.83C226.863 78.0333 227.143 78.135 227.5 78.135C227.733 78.135 227.942 78.0833 228.125 77.98C228.308 77.8733 228.453 77.725 228.56 77.535C228.67 77.345 228.725 77.125 228.725 76.875V74.05H229.825V79H228.835V78.415C228.642 78.6483 228.412 78.83 228.145 78.96C227.882 79.0867 227.573 79.15 227.22 79.15ZM233.435 79.15C232.952 79.15 232.565 79.01 232.275 78.73C231.985 78.45 231.84 78.0217 231.84 77.445V72.605H232.94V74.05H234.315V74.96H232.94V77.205C232.94 77.5517 233.005 77.7967 233.135 77.94C233.268 78.08 233.455 78.15 233.695 78.15C233.812 78.15 233.922 78.1367 234.025 78.11C234.128 78.0833 234.222 78.0483 234.305 78.005L234.5 78.895C234.357 78.9683 234.192 79.0283 234.005 79.075C233.822 79.125 233.632 79.15 233.435 79.15ZM230.755 74.96V74.05H231.985V74.96H230.755ZM238.588 79V73.24C238.588 72.7467 238.73 72.3583 239.013 72.075C239.3 71.7917 239.695 71.65 240.198 71.65C240.381 71.65 240.548 71.67 240.698 71.71C240.851 71.7467 240.993 71.8 241.123 71.87L240.918 72.74C240.821 72.6867 240.728 72.65 240.638 72.63C240.548 72.61 240.46 72.6 240.373 72.6C240.17 72.6 240.003 72.6517 239.873 72.755C239.746 72.8583 239.683 73.035 239.683 73.285V74.05H240.983V74.96H239.683V79H238.588ZM237.593 74.96V74.05H238.733V74.96H237.593ZM244.186 79.15C243.669 79.15 243.208 79.0317 242.801 78.795C242.398 78.555 242.081 78.2367 241.851 77.84C241.621 77.44 241.506 77.0017 241.506 76.525C241.506 76.1717 241.571 75.8383 241.701 75.525C241.834 75.2083 242.021 74.9283 242.261 74.685C242.504 74.4417 242.789 74.25 243.116 74.11C243.443 73.97 243.801 73.9 244.191 73.9C244.708 73.9 245.168 74.02 245.571 74.26C245.978 74.4967 246.296 74.815 246.526 75.215C246.756 75.6117 246.871 76.0483 246.871 76.525C246.871 76.875 246.804 77.2083 246.671 77.525C246.541 77.8417 246.356 78.1217 246.116 78.365C245.876 78.6083 245.593 78.8 245.266 78.94C244.939 79.08 244.579 79.15 244.186 79.15ZM244.186 78.175C244.493 78.175 244.764 78.1083 245.001 77.975C245.241 77.8383 245.429 77.6467 245.566 77.4C245.703 77.1533 245.771 76.8617 245.771 76.525C245.771 76.1883 245.703 75.8967 245.566 75.65C245.429 75.4 245.241 75.2083 245.001 75.075C244.764 74.9417 244.493 74.875 244.186 74.875C243.879 74.875 243.606 74.9417 243.366 75.075C243.129 75.2083 242.943 75.4 242.806 75.65C242.673 75.8967 242.606 76.1883 242.606 76.525C242.606 76.8617 242.674 77.1533 242.811 77.4C242.948 77.6467 243.134 77.8383 243.371 77.975C243.611 78.1083 243.883 78.175 244.186 78.175ZM247.976 79V74.05H249.076V74.735C249.263 74.425 249.489 74.2083 249.756 74.085C250.023 73.9583 250.309 73.895 250.616 73.895C250.716 73.895 250.811 73.9 250.901 73.91C250.991 73.92 251.078 73.935 251.161 73.955L251.016 75.09C250.916 75.06 250.814 75.0367 250.711 75.02C250.608 75.0033 250.504 74.995 250.401 74.995C250.018 74.995 249.701 75.1133 249.451 75.35C249.201 75.5833 249.076 75.9017 249.076 76.305V79H247.976ZM256.584 79.15C256.1 79.15 255.672 79.0367 255.299 78.81C254.925 78.58 254.632 78.2683 254.419 77.875C254.209 77.4783 254.104 77.0283 254.104 76.525C254.104 76.1617 254.164 75.8217 254.284 75.505C254.404 75.185 254.574 74.905 254.794 74.665C255.017 74.425 255.28 74.2383 255.584 74.105C255.89 73.9683 256.229 73.9 256.599 73.9C257.049 73.9 257.439 73.99 257.769 74.17C258.099 74.35 258.374 74.6 258.594 74.92L258.364 75.165V71.8H259.464V79H258.474V77.81L258.634 78.06C258.454 78.3733 258.195 78.6333 257.859 78.84C257.525 79.0467 257.1 79.15 256.584 79.15ZM256.784 78.175C257.09 78.175 257.362 78.1083 257.599 77.975C257.839 77.8383 258.027 77.6467 258.164 77.4C258.3 77.1533 258.369 76.8617 258.369 76.525C258.369 76.1883 258.3 75.8967 258.164 75.65C258.027 75.4 257.839 75.2083 257.599 75.075C257.362 74.9417 257.09 74.875 256.784 74.875C256.477 74.875 256.205 74.9417 255.969 75.075C255.732 75.2083 255.545 75.4 255.409 75.65C255.272 75.8967 255.204 76.1883 255.204 76.525C255.204 76.8617 255.272 77.1533 255.409 77.4C255.545 77.6467 255.732 77.8383 255.969 77.975C256.209 78.1083 256.48 78.175 256.784 78.175ZM263.254 79.15C262.72 79.15 262.252 79.0417 261.849 78.825C261.445 78.605 261.13 78.2983 260.904 77.905C260.68 77.5117 260.569 77.055 260.569 76.535C260.569 76.155 260.634 75.805 260.764 75.485C260.894 75.1617 261.077 74.8817 261.314 74.645C261.55 74.4083 261.827 74.225 262.144 74.095C262.464 73.965 262.812 73.9 263.189 73.9C263.599 73.9 263.964 73.9733 264.284 74.12C264.604 74.2633 264.869 74.465 265.079 74.725C265.292 74.985 265.442 75.29 265.529 75.64C265.619 75.9867 265.634 76.3633 265.574 76.77H261.624C261.617 77.0667 261.682 77.3267 261.819 77.55C261.955 77.77 262.15 77.9417 262.404 78.065C262.66 78.1883 262.962 78.25 263.309 78.25C263.589 78.25 263.859 78.2083 264.119 78.125C264.382 78.0383 264.62 77.9117 264.834 77.745L265.259 78.535C265.099 78.665 264.905 78.7767 264.679 78.87C264.452 78.96 264.215 79.0283 263.969 79.075C263.722 79.125 263.484 79.15 263.254 79.15ZM261.689 75.96H264.494C264.484 75.5867 264.364 75.2933 264.134 75.08C263.907 74.8667 263.584 74.76 263.164 74.76C262.757 74.76 262.419 74.8667 262.149 75.08C261.882 75.2933 261.729 75.5867 261.689 75.96ZM266.716 79V71.8H267.816V79H266.716ZM269.343 79V74.05H270.443V79H269.343ZM269.893 73.165C269.696 73.165 269.526 73.1017 269.383 72.975C269.24 72.8483 269.168 72.6817 269.168 72.475C269.168 72.2717 269.24 72.1067 269.383 71.98C269.526 71.85 269.696 71.785 269.893 71.785C270.09 71.785 270.26 71.85 270.403 71.98C270.546 72.1067 270.618 72.2717 270.618 72.475C270.618 72.6817 270.546 72.8483 270.403 72.975C270.26 73.1017 270.09 73.165 269.893 73.165ZM273.2 79L271.35 74.05H272.555L273.925 78.055H273.76L275.105 74.05H276.275L274.46 79H273.2ZM279.396 79.15C278.863 79.15 278.394 79.0417 277.991 78.825C277.588 78.605 277.273 78.2983 277.046 77.905C276.823 77.5117 276.711 77.055 276.711 76.535C276.711 76.155 276.776 75.805 276.906 75.485C277.036 75.1617 277.219 74.8817 277.456 74.645C277.693 74.4083 277.969 74.225 278.286 74.095C278.606 73.965 278.954 73.9 279.331 73.9C279.741 73.9 280.106 73.9733 280.426 74.12C280.746 74.2633 281.011 74.465 281.221 74.725C281.434 74.985 281.584 75.29 281.671 75.64C281.761 75.9867 281.776 76.3633 281.716 76.77H277.766C277.759 77.0667 277.824 77.3267 277.961 77.55C278.098 77.77 278.293 77.9417 278.546 78.065C278.803 78.1883 279.104 78.25 279.451 78.25C279.731 78.25 280.001 78.2083 280.261 78.125C280.524 78.0383 280.763 77.9117 280.976 77.745L281.401 78.535C281.241 78.665 281.048 78.7767 280.821 78.87C280.594 78.96 280.358 79.0283 280.111 79.075C279.864 79.125 279.626 79.15 279.396 79.15ZM277.831 75.96H280.636C280.626 75.5867 280.506 75.2933 280.276 75.08C280.049 74.8667 279.726 74.76 279.306 74.76C278.899 74.76 278.561 74.8667 278.291 75.08C278.024 75.2933 277.871 75.5867 277.831 75.96ZM282.859 79V74.05H283.959V74.735C284.145 74.425 284.372 74.2083 284.639 74.085C284.905 73.9583 285.192 73.895 285.499 73.895C285.599 73.895 285.694 73.9 285.784 73.91C285.874 73.92 285.96 73.935 286.044 73.955L285.899 75.09C285.799 75.06 285.697 75.0367 285.594 75.02C285.49 75.0033 285.387 74.995 285.284 74.995C284.9 74.995 284.584 75.1133 284.334 75.35C284.084 75.5833 283.959 75.9017 283.959 76.305V79H282.859ZM287.522 81.24C287.342 81.24 287.165 81.22 286.992 81.18C286.819 81.14 286.649 81.0717 286.482 80.975L286.732 80.035C286.835 80.1017 286.949 80.1517 287.072 80.185C287.195 80.2183 287.305 80.235 287.402 80.235C287.635 80.235 287.819 80.18 287.952 80.07C288.085 79.96 288.19 79.79 288.267 79.56L288.432 79.08L286.482 74.05H287.687L289.057 77.89L290.392 74.05H291.557L289.417 79.715C289.264 80.1117 289.092 80.42 288.902 80.64C288.712 80.8633 288.502 81.0183 288.272 81.105C288.042 81.195 287.792 81.24 287.522 81.24Z" fill="#557FFE"/>
</svg>
