<svg width="410" height="106" viewBox="0 0 410 106" fill="none" xmlns="http://www.w3.org/2000/svg">
<rect x="0.5" width="409" height="106" rx="15" fill="white"/>
<path d="M24.324 65.21C23.5867 65.21 22.903 65.0817 22.273 64.825C21.6477 64.5637 21.1017 64.202 20.635 63.74C20.173 63.278 19.8113 62.7367 19.55 62.116C19.2933 61.4953 19.165 60.8233 19.165 60.1C19.165 59.372 19.2933 58.6977 19.55 58.077C19.8113 57.4563 20.173 56.915 20.635 56.453C21.1017 55.991 21.6477 55.6317 22.273 55.375C22.903 55.1183 23.5867 54.99 24.324 54.99C25.0567 54.99 25.7357 55.1207 26.361 55.382C26.9863 55.6433 27.5323 56.0073 27.999 56.474C28.4657 56.9407 28.8273 57.4843 29.084 58.105C29.3453 58.721 29.476 59.386 29.476 60.1C29.476 60.8233 29.3453 61.4953 29.084 62.116C28.8273 62.7367 28.4657 63.278 27.999 63.74C27.5323 64.202 26.9863 64.5637 26.361 64.825C25.7357 65.0817 25.0567 65.21 24.324 65.21ZM24.324 63.726C24.8187 63.726 25.2783 63.642 25.703 63.474C26.1323 63.3013 26.5057 63.0563 26.823 62.739C27.1403 62.417 27.3877 62.0343 27.565 61.591C27.747 61.143 27.838 60.646 27.838 60.1C27.838 59.3673 27.6817 58.7303 27.369 58.189C27.061 57.643 26.641 57.2207 26.109 56.922C25.577 56.6233 24.982 56.474 24.324 56.474C23.8293 56.474 23.3673 56.5603 22.938 56.733C22.5133 56.901 22.14 57.1437 21.818 57.461C21.5007 57.7783 21.251 58.161 21.069 58.609C20.8917 59.0523 20.803 59.5493 20.803 60.1C20.803 60.8327 20.9593 61.472 21.272 62.018C21.5847 62.5593 22.0047 62.9793 22.532 63.278C23.064 63.5767 23.6613 63.726 24.324 63.726ZM31.2058 65V58.07H32.7458V59.029C33.0071 58.595 33.3244 58.2917 33.6978 58.119C34.0711 57.9417 34.4724 57.853 34.9018 57.853C35.0418 57.853 35.1748 57.86 35.3008 57.874C35.4268 57.888 35.5481 57.909 35.6648 57.937L35.4618 59.526C35.3218 59.484 35.1794 59.4513 35.0348 59.428C34.8901 59.4047 34.7454 59.393 34.6008 59.393C34.0641 59.393 33.6208 59.5587 33.2708 59.89C32.9208 60.2167 32.7458 60.6623 32.7458 61.227V65H31.2058ZM39.6882 65.21C39.0116 65.21 38.4119 65.0513 37.8892 64.734C37.3666 64.412 36.9559 63.9757 36.6572 63.425C36.3632 62.8697 36.2162 62.2397 36.2162 61.535C36.2162 61.0263 36.3002 60.5503 36.4682 60.107C36.6362 59.659 36.8742 59.267 37.1822 58.931C37.4949 58.595 37.8636 58.3337 38.2882 58.147C38.7176 57.9557 39.1912 57.86 39.7092 57.86C40.3392 57.86 40.8852 57.986 41.3472 58.238C41.8092 58.49 42.1942 58.84 42.5022 59.288L42.1802 59.631V54.92H43.7202V65H42.3342V63.334L42.5582 63.684C42.3062 64.1227 41.9446 64.4867 41.4732 64.776C41.0066 65.0653 40.4116 65.21 39.6882 65.21ZM39.9682 63.845C40.3976 63.845 40.7779 63.7517 41.1092 63.565C41.4452 63.3737 41.7089 63.1053 41.9002 62.76C42.0916 62.4147 42.1872 62.0063 42.1872 61.535C42.1872 61.0637 42.0916 60.6553 41.9002 60.31C41.7089 59.96 41.4452 59.6917 41.1092 59.505C40.7779 59.3183 40.3976 59.225 39.9682 59.225C39.5389 59.225 39.1586 59.3183 38.8272 59.505C38.4959 59.6917 38.2346 59.96 38.0432 60.31C37.8519 60.6553 37.7562 61.0637 37.7562 61.535C37.7562 62.0063 37.8519 62.4147 38.0432 62.76C38.2346 63.1053 38.4959 63.3737 38.8272 63.565C39.1632 63.7517 39.5436 63.845 39.9682 63.845ZM49.026 65.21C48.2793 65.21 47.6237 65.0583 47.059 64.755C46.4943 64.447 46.0533 64.0177 45.736 63.467C45.4233 62.9163 45.267 62.277 45.267 61.549C45.267 61.017 45.358 60.527 45.54 60.079C45.722 59.6263 45.9787 59.2343 46.31 58.903C46.6413 58.5717 47.0287 58.315 47.472 58.133C47.92 57.951 48.4077 57.86 48.935 57.86C49.509 57.86 50.02 57.9627 50.468 58.168C50.916 58.3687 51.287 58.651 51.581 59.015C51.8797 59.379 52.0897 59.806 52.211 60.296C52.337 60.7813 52.358 61.3087 52.274 61.878H46.744C46.7347 62.2933 46.8257 62.6573 47.017 62.97C47.2083 63.278 47.4813 63.5183 47.836 63.691C48.1953 63.8637 48.6177 63.95 49.103 63.95C49.495 63.95 49.873 63.8917 50.237 63.775C50.6057 63.6537 50.9393 63.4763 51.238 63.243L51.833 64.349C51.609 64.531 51.3383 64.6873 51.021 64.818C50.7037 64.944 50.3723 65.0397 50.027 65.105C49.6817 65.175 49.348 65.21 49.026 65.21ZM46.835 60.744H50.762C50.748 60.2213 50.58 59.8107 50.258 59.512C49.9407 59.2133 49.488 59.064 48.9 59.064C48.3307 59.064 47.857 59.2133 47.479 59.512C47.1057 59.8107 46.891 60.2213 46.835 60.744ZM53.8737 65V58.07H55.4137V59.029C55.6751 58.595 55.9924 58.2917 56.3657 58.119C56.7391 57.9417 57.1404 57.853 57.5697 57.853C57.7097 57.853 57.8427 57.86 57.9687 57.874C58.0947 57.888 58.2161 57.909 58.3327 57.937L58.1297 59.526C57.9897 59.484 57.8474 59.4513 57.7027 59.428C57.5581 59.4047 57.4134 59.393 57.2687 59.393C56.7321 59.393 56.2887 59.5587 55.9387 59.89C55.5887 60.2167 55.4137 60.6623 55.4137 61.227V65H53.8737ZM62.6432 65.21C61.8965 65.21 61.2409 65.0583 60.6762 64.755C60.1115 64.447 59.6705 64.0177 59.3532 63.467C59.0405 62.9163 58.8842 62.277 58.8842 61.549C58.8842 61.017 58.9752 60.527 59.1572 60.079C59.3392 59.6263 59.5959 59.2343 59.9272 58.903C60.2585 58.5717 60.6459 58.315 61.0892 58.133C61.5372 57.951 62.0249 57.86 62.5522 57.86C63.1262 57.86 63.6372 57.9627 64.0852 58.168C64.5332 58.3687 64.9042 58.651 65.1982 59.015C65.4969 59.379 65.7069 59.806 65.8282 60.296C65.9542 60.7813 65.9752 61.3087 65.8912 61.878H60.3612C60.3519 62.2933 60.4429 62.6573 60.6342 62.97C60.8255 63.278 61.0985 63.5183 61.4532 63.691C61.8125 63.8637 62.2349 63.95 62.7202 63.95C63.1122 63.95 63.4902 63.8917 63.8542 63.775C64.2229 63.6537 64.5565 63.4763 64.8552 63.243L65.4502 64.349C65.2262 64.531 64.9555 64.6873 64.6382 64.818C64.3209 64.944 63.9895 65.0397 63.6442 65.105C63.2989 65.175 62.9652 65.21 62.6432 65.21ZM60.4522 60.744H64.3792C64.3652 60.2213 64.1972 59.8107 63.8752 59.512C63.5579 59.2133 63.1052 59.064 62.5172 59.064C61.9479 59.064 61.4742 59.2133 61.0962 59.512C60.7229 59.8107 60.5082 60.2213 60.4522 60.744ZM70.4363 65.21C69.7596 65.21 69.1599 65.0513 68.6373 64.734C68.1146 64.412 67.7039 63.9757 67.4053 63.425C67.1113 62.8697 66.9643 62.2397 66.9643 61.535C66.9643 61.0263 67.0483 60.5503 67.2163 60.107C67.3843 59.659 67.6223 59.267 67.9303 58.931C68.2429 58.595 68.6116 58.3337 69.0363 58.147C69.4656 57.9557 69.9393 57.86 70.4573 57.86C71.0873 57.86 71.6333 57.986 72.0953 58.238C72.5573 58.49 72.9423 58.84 73.2503 59.288L72.9283 59.631V54.92H74.4683V65H73.0823V63.334L73.3063 63.684C73.0543 64.1227 72.6926 64.4867 72.2213 64.776C71.7546 65.0653 71.1596 65.21 70.4363 65.21ZM70.7163 63.845C71.1456 63.845 71.5259 63.7517 71.8573 63.565C72.1933 63.3737 72.4569 63.1053 72.6483 62.76C72.8396 62.4147 72.9353 62.0063 72.9353 61.535C72.9353 61.0637 72.8396 60.6553 72.6483 60.31C72.4569 59.96 72.1933 59.6917 71.8573 59.505C71.5259 59.3183 71.1456 59.225 70.7163 59.225C70.2869 59.225 69.9066 59.3183 69.5753 59.505C69.2439 59.6917 68.9826 59.96 68.7913 60.31C68.5999 60.6553 68.5043 61.0637 68.5043 61.535C68.5043 62.0063 68.5999 62.4147 68.7913 62.76C68.9826 63.1053 69.2439 63.3737 69.5753 63.565C69.9113 63.7517 70.2916 63.845 70.7163 63.845Z" fill="#323232"/>
<path d="M19.865 79.15L19.48 78.29C19.9833 78.23 20.43 78.1183 20.82 77.955C21.21 77.7917 21.545 77.5883 21.825 77.345C22.1083 77.0983 22.3383 76.8267 22.515 76.53C22.695 76.23 22.825 75.9167 22.905 75.59C22.7283 75.8333 22.5017 76.0267 22.225 76.17C21.9517 76.31 21.6517 76.38 21.325 76.38C20.885 76.38 20.4883 76.285 20.135 76.095C19.785 75.905 19.5067 75.6417 19.3 75.305C19.0967 74.965 18.995 74.5767 18.995 74.14C18.995 73.7067 19.1033 73.3183 19.32 72.975C19.54 72.6283 19.8417 72.355 20.225 72.155C20.6117 71.9517 21.0533 71.85 21.55 71.85C22.0633 71.85 22.5183 71.9617 22.915 72.185C23.315 72.405 23.6283 72.725 23.855 73.145C24.085 73.5617 24.2 74.0667 24.2 74.66C24.2 75.26 24.09 75.8133 23.87 76.32C23.6533 76.8233 23.3483 77.27 22.955 77.66C22.565 78.05 22.1067 78.3717 21.58 78.625C21.0533 78.8783 20.4817 79.0533 19.865 79.15ZM21.55 75.47C21.83 75.47 22.08 75.4117 22.3 75.295C22.52 75.1783 22.695 75.0183 22.825 74.815C22.955 74.6117 23.02 74.3833 23.02 74.13C23.02 73.87 22.9567 73.64 22.83 73.44C22.7067 73.24 22.5333 73.0833 22.31 72.97C22.09 72.8567 21.8367 72.8 21.55 72.8C21.2667 72.8 21.0133 72.8567 20.79 72.97C20.5667 73.0833 20.3917 73.24 20.265 73.44C20.1383 73.64 20.075 73.87 20.075 74.13C20.075 74.3833 20.14 74.6117 20.27 74.815C20.4033 75.0183 20.58 75.1783 20.8 75.295C21.0233 75.4117 21.2733 75.47 21.55 75.47ZM27.6341 79.15C27.1507 79.15 26.7641 79.01 26.4741 78.73C26.1841 78.45 26.0391 78.0217 26.0391 77.445V72.605H27.1391V74.05H28.5141V74.96H27.1391V77.205C27.1391 77.5517 27.2041 77.7967 27.3341 77.94C27.4674 78.08 27.6541 78.15 27.8941 78.15C28.0107 78.15 28.1207 78.1367 28.2241 78.11C28.3274 78.0833 28.4207 78.0483 28.5041 78.005L28.6991 78.895C28.5557 78.9683 28.3907 79.0283 28.2041 79.075C28.0207 79.125 27.8307 79.15 27.6341 79.15ZM24.9541 74.96V74.05H26.1841V74.96H24.9541ZM29.8509 79V71.8H30.9509V75.06L30.7259 74.815C30.9459 74.5083 31.2109 74.28 31.5209 74.13C31.8309 73.9767 32.1576 73.9 32.5009 73.9C32.9509 73.9 33.3259 73.9917 33.6259 74.175C33.9259 74.355 34.1509 74.5883 34.3009 74.875C34.4509 75.1617 34.5259 75.46 34.5259 75.77V79H33.4259V76.085C33.4259 75.7383 33.3176 75.4567 33.1009 75.24C32.8843 75.0233 32.5893 74.9133 32.2159 74.91C31.9693 74.91 31.7509 74.965 31.5609 75.075C31.3709 75.1817 31.2209 75.3333 31.1109 75.53C31.0043 75.7267 30.9509 75.955 30.9509 76.215V79H29.8509ZM40.8795 79.15C40.3961 79.15 39.9228 79.0817 39.4595 78.945C38.9995 78.805 38.6111 78.605 38.2945 78.345L38.8445 77.49C39.0111 77.6333 39.2045 77.7567 39.4245 77.86C39.6478 77.9633 39.8845 78.0433 40.1345 78.1C40.3845 78.1533 40.6345 78.18 40.8845 78.18C41.3411 78.18 41.7095 78.0933 41.9895 77.92C42.2728 77.7467 42.4145 77.4933 42.4145 77.16C42.4145 76.91 42.3178 76.6983 42.1245 76.525C41.9345 76.3517 41.5811 76.1917 41.0645 76.045L40.3445 75.835C39.6845 75.645 39.2028 75.3933 38.8995 75.08C38.5995 74.7667 38.4495 74.3767 38.4495 73.91C38.4495 73.6 38.5111 73.32 38.6345 73.07C38.7611 72.82 38.9378 72.6033 39.1645 72.42C39.3945 72.2367 39.6645 72.0967 39.9745 72C40.2845 71.9033 40.6245 71.855 40.9945 71.855C41.4645 71.855 41.9011 71.9233 42.3045 72.06C42.7078 72.1967 43.0411 72.38 43.3045 72.61L42.7345 73.44C42.5911 73.31 42.4228 73.1983 42.2295 73.105C42.0395 73.0117 41.8345 72.94 41.6145 72.89C41.3945 72.84 41.1711 72.815 40.9445 72.815C40.6645 72.815 40.4161 72.8567 40.1995 72.94C39.9861 73.02 39.8195 73.1367 39.6995 73.29C39.5795 73.4433 39.5195 73.63 39.5195 73.85C39.5195 74.01 39.5595 74.15 39.6395 74.27C39.7195 74.39 39.8561 74.5 40.0495 74.6C40.2461 74.6967 40.5161 74.795 40.8595 74.895L41.6195 75.12C42.2661 75.31 42.7395 75.5583 43.0395 75.865C43.3395 76.1683 43.4895 76.5633 43.4895 77.05C43.4895 77.4667 43.3861 77.8333 43.1795 78.15C42.9761 78.4633 42.6795 78.7083 42.2895 78.885C41.8995 79.0617 41.4295 79.15 40.8795 79.15ZM46.9938 79.15C46.4604 79.15 45.9921 79.0417 45.5888 78.825C45.1854 78.605 44.8704 78.2983 44.6438 77.905C44.4204 77.5117 44.3088 77.055 44.3088 76.535C44.3088 76.155 44.3738 75.805 44.5038 75.485C44.6338 75.1617 44.8171 74.8817 45.0538 74.645C45.2904 74.4083 45.5671 74.225 45.8838 74.095C46.2038 73.965 46.5521 73.9 46.9288 73.9C47.3388 73.9 47.7038 73.9733 48.0238 74.12C48.3438 74.2633 48.6088 74.465 48.8188 74.725C49.0321 74.985 49.1821 75.29 49.2688 75.64C49.3588 75.9867 49.3738 76.3633 49.3138 76.77H45.3638C45.3571 77.0667 45.4221 77.3267 45.5588 77.55C45.6954 77.77 45.8904 77.9417 46.1438 78.065C46.4004 78.1883 46.7021 78.25 47.0488 78.25C47.3288 78.25 47.5988 78.2083 47.8588 78.125C48.1221 78.0383 48.3604 77.9117 48.5738 77.745L48.9988 78.535C48.8388 78.665 48.6454 78.7767 48.4188 78.87C48.1921 78.96 47.9554 79.0283 47.7088 79.075C47.4621 79.125 47.2238 79.15 46.9938 79.15ZM45.4288 75.96H48.2338C48.2238 75.5867 48.1038 75.2933 47.8738 75.08C47.6471 74.8667 47.3238 74.76 46.9038 74.76C46.4971 74.76 46.1588 74.8667 45.8888 75.08C45.6221 75.2933 45.4688 75.5867 45.4288 75.96ZM50.4564 81.1V74.05H51.4464V74.745C51.6431 74.495 51.8947 74.2917 52.2014 74.135C52.5081 73.9783 52.8864 73.9 53.3364 73.9C53.8197 73.9 54.2481 74.015 54.6214 74.245C54.9981 74.4717 55.2914 74.7833 55.5014 75.18C55.7114 75.5733 55.8164 76.0217 55.8164 76.525C55.8164 76.8883 55.7564 77.23 55.6364 77.55C55.5164 77.8667 55.3447 78.145 55.1214 78.385C54.9014 78.625 54.6381 78.8133 54.3314 78.95C54.0281 79.0833 53.6914 79.15 53.3214 79.15C52.9347 79.15 52.5947 79.08 52.3014 78.94C52.0081 78.8 51.7581 78.6117 51.5514 78.375V81.1H50.4564ZM53.1364 78.175C53.4431 78.175 53.7147 78.1083 53.9514 77.975C54.1914 77.8383 54.3781 77.6467 54.5114 77.4C54.6481 77.1533 54.7164 76.8617 54.7164 76.525C54.7164 76.1883 54.6481 75.8967 54.5114 75.65C54.3747 75.4 54.1864 75.2083 53.9464 75.075C53.7097 74.9417 53.4397 74.875 53.1364 74.875C52.8297 74.875 52.5564 74.9417 52.3164 75.075C52.0797 75.2083 51.8931 75.4 51.7564 75.65C51.6197 75.8967 51.5514 76.1883 51.5514 76.525C51.5514 76.8617 51.6197 77.1533 51.7564 77.4C51.8931 77.6467 52.0797 77.8383 52.3164 77.975C52.5564 78.1083 52.8297 78.175 53.1364 78.175ZM56.7786 80.51L56.3936 80C56.6436 79.88 56.8636 79.735 57.0536 79.565C57.2469 79.3983 57.3786 79.2333 57.4486 79.07C57.2953 79.08 57.1569 79.0567 57.0336 79C56.9103 78.9467 56.8119 78.8683 56.7386 78.765C56.6653 78.6583 56.6286 78.5333 56.6286 78.39C56.6286 78.1767 56.6986 78.0033 56.8386 77.87C56.9819 77.7333 57.1619 77.665 57.3786 77.665C57.6286 77.665 57.8286 77.7483 57.9786 77.915C58.1319 78.0783 58.2086 78.3033 58.2086 78.59C58.2086 78.81 58.1553 79.0317 58.0486 79.255C57.9419 79.4817 57.7819 79.7 57.5686 79.91C57.3586 80.1233 57.0953 80.3233 56.7786 80.51ZM61.7903 79V78.2L63.3053 76.815C63.7853 76.375 64.172 75.9967 64.4653 75.68C64.7586 75.36 64.972 75.0717 65.1053 74.815C65.2386 74.5583 65.3053 74.2983 65.3053 74.035C65.3053 73.6517 65.1736 73.3533 64.9103 73.14C64.6503 72.9233 64.287 72.815 63.8203 72.815C63.5103 72.815 63.2136 72.8683 62.9303 72.975C62.647 73.0817 62.4053 73.2367 62.2053 73.44L61.7953 72.625C62.0786 72.3717 62.4053 72.18 62.7753 72.05C63.1453 71.9167 63.5336 71.85 63.9403 71.85C64.4236 71.85 64.8453 71.9367 65.2053 72.11C65.5686 72.28 65.8503 72.5217 66.0503 72.835C66.2536 73.145 66.3553 73.5083 66.3553 73.925C66.3553 74.215 66.297 74.505 66.1803 74.795C66.067 75.0817 65.862 75.405 65.5653 75.765C65.272 76.125 64.8553 76.5567 64.3153 77.06L63.2403 78.05H66.5303V79H61.7903ZM69.7335 79.15C69.4435 79.15 69.1568 79.12 68.8735 79.06C68.5935 79 68.3352 78.9183 68.0985 78.815C67.8652 78.7083 67.6735 78.5867 67.5235 78.45L67.8985 77.53C68.1085 77.7267 68.3752 77.8833 68.6985 78C69.0218 78.1167 69.3435 78.175 69.6635 78.175C69.9802 78.175 70.2552 78.1217 70.4885 78.015C70.7218 77.9083 70.9018 77.7583 71.0285 77.565C71.1585 77.3717 71.2235 77.1433 71.2235 76.88C71.2235 76.48 71.0768 76.1683 70.7835 75.945C70.4935 75.7217 70.1068 75.61 69.6235 75.61C69.4935 75.61 69.3585 75.62 69.2185 75.64C69.0785 75.6567 68.9368 75.6817 68.7935 75.715L68.4685 74.98L70.6585 72.94H67.5785V72H71.9885V72.865L69.9035 74.89C70.3202 74.8833 70.7118 74.955 71.0785 75.105C71.4452 75.255 71.7402 75.4833 71.9635 75.79C72.1902 76.0933 72.3035 76.4767 72.3035 76.94C72.3035 77.38 72.1935 77.7667 71.9735 78.1C71.7535 78.43 71.4502 78.6883 71.0635 78.875C70.6768 79.0583 70.2335 79.15 69.7335 79.15Z" fill="#557FFE"/>
<path d="M119.265 81.1V74.05H120.255V74.745C120.452 74.495 120.703 74.2917 121.01 74.135C121.317 73.9783 121.695 73.9 122.145 73.9C122.628 73.9 123.057 74.015 123.43 74.245C123.807 74.4717 124.1 74.7833 124.31 75.18C124.52 75.5733 124.625 76.0217 124.625 76.525C124.625 76.8883 124.565 77.23 124.445 77.55C124.325 77.8667 124.153 78.145 123.93 78.385C123.71 78.625 123.447 78.8133 123.14 78.95C122.837 79.0833 122.5 79.15 122.13 79.15C121.743 79.15 121.403 79.08 121.11 78.94C120.817 78.8 120.567 78.6117 120.36 78.375V81.1H119.265ZM121.945 78.175C122.252 78.175 122.523 78.1083 122.76 77.975C123 77.8383 123.187 77.6467 123.32 77.4C123.457 77.1533 123.525 76.8617 123.525 76.525C123.525 76.1883 123.457 75.8967 123.32 75.65C123.183 75.4 122.995 75.2083 122.755 75.075C122.518 74.9417 122.248 74.875 121.945 74.875C121.638 74.875 121.365 74.9417 121.125 75.075C120.888 75.2083 120.702 75.4 120.565 75.65C120.428 75.8967 120.36 76.1883 120.36 76.525C120.36 76.8617 120.428 77.1533 120.565 77.4C120.702 77.6467 120.888 77.8383 121.125 77.975C121.365 78.1083 121.638 78.175 121.945 78.175ZM125.73 79V74.05H126.83V74.735C127.017 74.425 127.243 74.2083 127.51 74.085C127.777 73.9583 128.063 73.895 128.37 73.895C128.47 73.895 128.565 73.9 128.655 73.91C128.745 73.92 128.832 73.935 128.915 73.955L128.77 75.09C128.67 75.06 128.568 75.0367 128.465 75.02C128.362 75.0033 128.258 74.995 128.155 74.995C127.772 74.995 127.455 75.1133 127.205 75.35C126.955 75.5833 126.83 75.9017 126.83 76.305V79H125.73ZM131.989 79.15C131.472 79.15 131.01 79.0317 130.604 78.795C130.2 78.555 129.884 78.2367 129.654 77.84C129.424 77.44 129.309 77.0017 129.309 76.525C129.309 76.1717 129.374 75.8383 129.504 75.525C129.637 75.2083 129.824 74.9283 130.064 74.685C130.307 74.4417 130.592 74.25 130.919 74.11C131.245 73.97 131.604 73.9 131.994 73.9C132.51 73.9 132.97 74.02 133.374 74.26C133.78 74.4967 134.099 74.815 134.329 75.215C134.559 75.6117 134.674 76.0483 134.674 76.525C134.674 76.875 134.607 77.2083 134.474 77.525C134.344 77.8417 134.159 78.1217 133.919 78.365C133.679 78.6083 133.395 78.8 133.069 78.94C132.742 79.08 132.382 79.15 131.989 79.15ZM131.989 78.175C132.295 78.175 132.567 78.1083 132.804 77.975C133.044 77.8383 133.232 77.6467 133.369 77.4C133.505 77.1533 133.574 76.8617 133.574 76.525C133.574 76.1883 133.505 75.8967 133.369 75.65C133.232 75.4 133.044 75.2083 132.804 75.075C132.567 74.9417 132.295 74.875 131.989 74.875C131.682 74.875 131.409 74.9417 131.169 75.075C130.932 75.2083 130.745 75.4 130.609 75.65C130.475 75.8967 130.409 76.1883 130.409 76.525C130.409 76.8617 130.477 77.1533 130.614 77.4C130.75 77.6467 130.937 77.8383 131.174 77.975C131.414 78.1083 131.685 78.175 131.989 78.175ZM138.098 79.15C137.578 79.15 137.114 79.0367 136.708 78.81C136.301 78.58 135.981 78.2683 135.748 77.875C135.518 77.4783 135.403 77.0283 135.403 76.525C135.403 76.145 135.471 75.7967 135.608 75.48C135.744 75.16 135.938 74.8817 136.188 74.645C136.438 74.4083 136.731 74.225 137.068 74.095C137.408 73.965 137.776 73.9 138.173 73.9C138.506 73.9 138.814 73.945 139.098 74.035C139.384 74.1217 139.648 74.2567 139.888 74.44L139.358 75.28C139.204 75.1433 139.028 75.0417 138.828 74.975C138.631 74.9083 138.421 74.875 138.198 74.875C137.851 74.875 137.553 74.94 137.303 75.07C137.053 75.2 136.858 75.3883 136.718 75.635C136.581 75.8783 136.513 76.1733 136.513 76.52C136.513 77.0367 136.663 77.4417 136.963 77.735C137.266 78.0283 137.678 78.175 138.198 78.175C138.444 78.175 138.678 78.13 138.898 78.04C139.118 77.9467 139.301 77.825 139.448 77.675L139.973 78.51C139.709 78.71 139.416 78.8667 139.093 78.98C138.769 79.0933 138.438 79.15 138.098 79.15ZM143.146 79.15C142.613 79.15 142.144 79.0417 141.741 78.825C141.338 78.605 141.023 78.2983 140.796 77.905C140.573 77.5117 140.461 77.055 140.461 76.535C140.461 76.155 140.526 75.805 140.656 75.485C140.786 75.1617 140.969 74.8817 141.206 74.645C141.443 74.4083 141.719 74.225 142.036 74.095C142.356 73.965 142.704 73.9 143.081 73.9C143.491 73.9 143.856 73.9733 144.176 74.12C144.496 74.2633 144.761 74.465 144.971 74.725C145.184 74.985 145.334 75.29 145.421 75.64C145.511 75.9867 145.526 76.3633 145.466 76.77H141.516C141.509 77.0667 141.574 77.3267 141.711 77.55C141.848 77.77 142.043 77.9417 142.296 78.065C142.553 78.1883 142.854 78.25 143.201 78.25C143.481 78.25 143.751 78.2083 144.011 78.125C144.274 78.0383 144.513 77.9117 144.726 77.745L145.151 78.535C144.991 78.665 144.798 78.7767 144.571 78.87C144.344 78.96 144.108 79.0283 143.861 79.075C143.614 79.125 143.376 79.15 143.146 79.15ZM141.581 75.96H144.386C144.376 75.5867 144.256 75.2933 144.026 75.08C143.799 74.8667 143.476 74.76 143.056 74.76C142.649 74.76 142.311 74.8667 142.041 75.08C141.774 75.2933 141.621 75.5867 141.581 75.96ZM148.279 79.145C147.869 79.145 147.485 79.0867 147.129 78.97C146.772 78.8533 146.472 78.6967 146.229 78.5L146.644 77.695C146.874 77.875 147.132 78.0167 147.419 78.12C147.709 78.2233 147.994 78.275 148.274 78.275C148.597 78.275 148.849 78.2183 149.029 78.105C149.209 77.9917 149.299 77.8333 149.299 77.63C149.299 77.4367 149.22 77.295 149.064 77.205C148.91 77.1117 148.617 77.015 148.184 76.915C147.56 76.785 147.107 76.6017 146.824 76.365C146.544 76.125 146.404 75.7933 146.404 75.37C146.404 75.0733 146.485 74.8117 146.649 74.585C146.815 74.355 147.044 74.175 147.334 74.045C147.624 73.915 147.959 73.85 148.339 73.85C148.709 73.85 149.057 73.9033 149.384 74.01C149.71 74.1133 149.994 74.26 150.234 74.45L149.844 75.26C149.72 75.15 149.577 75.055 149.414 74.975C149.25 74.895 149.077 74.8333 148.894 74.79C148.714 74.7433 148.534 74.72 148.354 74.72C148.074 74.72 147.845 74.775 147.669 74.885C147.495 74.9917 147.409 75.14 147.409 75.33C147.409 75.5267 147.492 75.6717 147.659 75.765C147.825 75.8583 148.112 75.9517 148.519 76.045C149.159 76.185 149.617 76.3717 149.894 76.605C150.17 76.8383 150.309 77.1617 150.309 77.575C150.309 77.8917 150.224 78.1683 150.054 78.405C149.884 78.6383 149.645 78.82 149.339 78.95C149.035 79.08 148.682 79.145 148.279 79.145ZM153.123 79.145C152.713 79.145 152.329 79.0867 151.972 78.97C151.616 78.8533 151.316 78.6967 151.073 78.5L151.488 77.695C151.718 77.875 151.976 78.0167 152.263 78.12C152.553 78.2233 152.838 78.275 153.118 78.275C153.441 78.275 153.693 78.2183 153.873 78.105C154.053 77.9917 154.143 77.8333 154.143 77.63C154.143 77.4367 154.064 77.295 153.908 77.205C153.754 77.1117 153.461 77.015 153.028 76.915C152.404 76.785 151.951 76.6017 151.668 76.365C151.388 76.125 151.248 75.7933 151.248 75.37C151.248 75.0733 151.329 74.8117 151.493 74.585C151.659 74.355 151.888 74.175 152.178 74.045C152.468 73.915 152.803 73.85 153.183 73.85C153.553 73.85 153.901 73.9033 154.228 74.01C154.554 74.1133 154.838 74.26 155.078 74.45L154.688 75.26C154.564 75.15 154.421 75.055 154.258 74.975C154.094 74.895 153.921 74.8333 153.738 74.79C153.558 74.7433 153.378 74.72 153.198 74.72C152.918 74.72 152.689 74.775 152.513 74.885C152.339 74.9917 152.253 75.14 152.253 75.33C152.253 75.5267 152.336 75.6717 152.503 75.765C152.669 75.8583 152.956 75.9517 153.363 76.045C154.003 76.185 154.461 76.3717 154.738 76.605C155.014 76.8383 155.153 77.1617 155.153 77.575C155.153 77.8917 155.068 78.1683 154.898 78.405C154.728 78.6383 154.489 78.82 154.183 78.95C153.879 79.08 153.526 79.145 153.123 79.145ZM156.394 79V74.05H157.494V79H156.394ZM156.944 73.165C156.747 73.165 156.577 73.1017 156.434 72.975C156.291 72.8483 156.219 72.6817 156.219 72.475C156.219 72.2717 156.291 72.1067 156.434 71.98C156.577 71.85 156.747 71.785 156.944 71.785C157.141 71.785 157.311 71.85 157.454 71.98C157.597 72.1067 157.669 72.2717 157.669 72.475C157.669 72.6817 157.597 72.8483 157.454 72.975C157.311 73.1017 157.141 73.165 156.944 73.165ZM159.021 79V74.05H160.121V74.68C160.328 74.4033 160.568 74.205 160.841 74.085C161.114 73.9617 161.398 73.9 161.691 73.9C162.144 73.9 162.519 73.99 162.816 74.17C163.113 74.35 163.333 74.5817 163.476 74.865C163.623 75.1483 163.696 75.44 163.696 75.74V79H162.596V76.08C162.596 75.7267 162.489 75.4433 162.276 75.23C162.066 75.0167 161.773 74.91 161.396 74.91C161.149 74.91 160.929 74.965 160.736 75.075C160.546 75.185 160.396 75.3383 160.286 75.535C160.176 75.7283 160.121 75.955 160.121 76.215V79H159.021ZM167.333 81.25C167.003 81.25 166.677 81.2183 166.353 81.155C166.033 81.0917 165.728 80.985 165.438 80.835L165.713 79.925C165.967 80.0483 166.225 80.1383 166.488 80.195C166.755 80.2517 167.018 80.28 167.278 80.28C167.852 80.28 168.288 80.1433 168.588 79.87C168.888 79.6 169.038 79.2383 169.038 78.785V77.705L169.188 77.94C169.025 78.2667 168.78 78.5317 168.453 78.735C168.13 78.935 167.725 79.035 167.238 79.035C166.738 79.035 166.3 78.9233 165.923 78.7C165.55 78.4733 165.258 78.1667 165.048 77.78C164.842 77.39 164.738 76.9533 164.738 76.47C164.738 76.1067 164.798 75.77 164.918 75.46C165.038 75.1467 165.208 74.8733 165.428 74.64C165.648 74.4067 165.912 74.225 166.218 74.095C166.525 73.965 166.865 73.9 167.238 73.9C167.725 73.9 168.13 74.0017 168.453 74.205C168.78 74.405 169.025 74.6683 169.188 74.995L169.038 75.23V74.045H170.063V78.54C170.063 79.3967 169.833 80.0617 169.373 80.535C168.913 81.0117 168.233 81.25 167.333 81.25ZM167.403 78.08C167.707 78.08 167.977 78.0133 168.213 77.88C168.45 77.7467 168.635 77.56 168.768 77.32C168.902 77.08 168.968 76.7967 168.968 76.47C168.968 76.1433 168.902 75.8583 168.768 75.615C168.635 75.3717 168.45 75.185 168.213 75.055C167.977 74.9217 167.707 74.855 167.403 74.855C167.097 74.855 166.825 74.9217 166.588 75.055C166.355 75.185 166.172 75.3717 166.038 75.615C165.905 75.8583 165.838 76.1433 165.838 76.47C165.838 76.7967 165.905 77.08 166.038 77.32C166.172 77.56 166.355 77.7467 166.588 77.88C166.825 78.0133 167.097 78.08 167.403 78.08Z" fill="#557FFE"/>
<path d="M219.265 81.1V74.05H220.255V74.745C220.452 74.495 220.703 74.2917 221.01 74.135C221.317 73.9783 221.695 73.9 222.145 73.9C222.628 73.9 223.057 74.015 223.43 74.245C223.807 74.4717 224.1 74.7833 224.31 75.18C224.52 75.5733 224.625 76.0217 224.625 76.525C224.625 76.8883 224.565 77.23 224.445 77.55C224.325 77.8667 224.153 78.145 223.93 78.385C223.71 78.625 223.447 78.8133 223.14 78.95C222.837 79.0833 222.5 79.15 222.13 79.15C221.743 79.15 221.403 79.08 221.11 78.94C220.817 78.8 220.567 78.6117 220.36 78.375V81.1H219.265ZM221.945 78.175C222.252 78.175 222.523 78.1083 222.76 77.975C223 77.8383 223.187 77.6467 223.32 77.4C223.457 77.1533 223.525 76.8617 223.525 76.525C223.525 76.1883 223.457 75.8967 223.32 75.65C223.183 75.4 222.995 75.2083 222.755 75.075C222.518 74.9417 222.248 74.875 221.945 74.875C221.638 74.875 221.365 74.9417 221.125 75.075C220.888 75.2083 220.702 75.4 220.565 75.65C220.428 75.8967 220.36 76.1883 220.36 76.525C220.36 76.8617 220.428 77.1533 220.565 77.4C220.702 77.6467 220.888 77.8383 221.125 77.975C221.365 78.1083 221.638 78.175 221.945 78.175ZM228.039 79.15C227.505 79.15 227.037 79.0417 226.634 78.825C226.23 78.605 225.915 78.2983 225.689 77.905C225.465 77.5117 225.354 77.055 225.354 76.535C225.354 76.155 225.419 75.805 225.549 75.485C225.679 75.1617 225.862 74.8817 226.099 74.645C226.335 74.4083 226.612 74.225 226.929 74.095C227.249 73.965 227.597 73.9 227.974 73.9C228.384 73.9 228.749 73.9733 229.069 74.12C229.389 74.2633 229.654 74.465 229.864 74.725C230.077 74.985 230.227 75.29 230.314 75.64C230.404 75.9867 230.419 76.3633 230.359 76.77H226.409C226.402 77.0667 226.467 77.3267 226.604 77.55C226.74 77.77 226.935 77.9417 227.189 78.065C227.445 78.1883 227.747 78.25 228.094 78.25C228.374 78.25 228.644 78.2083 228.904 78.125C229.167 78.0383 229.405 77.9117 229.619 77.745L230.044 78.535C229.884 78.665 229.69 78.7767 229.464 78.87C229.237 78.96 229 79.0283 228.754 79.075C228.507 79.125 228.269 79.15 228.039 79.15ZM226.474 75.96H229.279C229.269 75.5867 229.149 75.2933 228.919 75.08C228.692 74.8667 228.369 74.76 227.949 74.76C227.542 74.76 227.204 74.8667 226.934 75.08C226.667 75.2933 226.514 75.5867 226.474 75.96ZM231.501 79V74.05H232.601V74.68C232.808 74.4033 233.048 74.205 233.321 74.085C233.595 73.9617 233.878 73.9 234.171 73.9C234.625 73.9 235 73.99 235.296 74.17C235.593 74.35 235.813 74.5817 235.956 74.865C236.103 75.1483 236.176 75.44 236.176 75.74V79H235.076V76.08C235.076 75.7267 234.97 75.4433 234.756 75.23C234.546 75.0167 234.253 74.91 233.876 74.91C233.63 74.91 233.41 74.965 233.216 75.075C233.026 75.185 232.876 75.3383 232.766 75.535C232.656 75.7283 232.601 75.955 232.601 76.215V79H231.501ZM239.709 79.15C239.225 79.15 238.797 79.0367 238.424 78.81C238.05 78.58 237.757 78.2683 237.544 77.875C237.334 77.4783 237.229 77.0283 237.229 76.525C237.229 76.1617 237.289 75.8217 237.409 75.505C237.529 75.185 237.699 74.905 237.919 74.665C238.142 74.425 238.405 74.2383 238.709 74.105C239.015 73.9683 239.354 73.9 239.724 73.9C240.174 73.9 240.564 73.99 240.894 74.17C241.224 74.35 241.499 74.6 241.719 74.92L241.489 75.165V71.8H242.589V79H241.599V77.81L241.759 78.06C241.579 78.3733 241.32 78.6333 240.984 78.84C240.65 79.0467 240.225 79.15 239.709 79.15ZM239.909 78.175C240.215 78.175 240.487 78.1083 240.724 77.975C240.964 77.8383 241.152 77.6467 241.289 77.4C241.425 77.1533 241.494 76.8617 241.494 76.525C241.494 76.1883 241.425 75.8967 241.289 75.65C241.152 75.4 240.964 75.2083 240.724 75.075C240.487 74.9417 240.215 74.875 239.909 74.875C239.602 74.875 239.33 74.9417 239.094 75.075C238.857 75.2083 238.67 75.4 238.534 75.65C238.397 75.8967 238.329 76.1883 238.329 76.525C238.329 76.8617 238.397 77.1533 238.534 77.4C238.67 77.6467 238.857 77.8383 239.094 77.975C239.334 78.1083 239.605 78.175 239.909 78.175ZM244.119 79V74.05H245.219V79H244.119ZM244.669 73.165C244.472 73.165 244.302 73.1017 244.159 72.975C244.015 72.8483 243.944 72.6817 243.944 72.475C243.944 72.2717 244.015 72.1067 244.159 71.98C244.302 71.85 244.472 71.785 244.669 71.785C244.865 71.785 245.035 71.85 245.179 71.98C245.322 72.1067 245.394 72.2717 245.394 72.475C245.394 72.6817 245.322 72.8483 245.179 72.975C245.035 73.1017 244.865 73.165 244.669 73.165ZM246.745 79V74.05H247.845V74.68C248.052 74.4033 248.292 74.205 248.565 74.085C248.839 73.9617 249.122 73.9 249.415 73.9C249.869 73.9 250.244 73.99 250.54 74.17C250.837 74.35 251.057 74.5817 251.2 74.865C251.347 75.1483 251.42 75.44 251.42 75.74V79H250.32V76.08C250.32 75.7267 250.214 75.4433 250 75.23C249.79 75.0167 249.497 74.91 249.12 74.91C248.874 74.91 248.654 74.965 248.46 75.075C248.27 75.185 248.12 75.3383 248.01 75.535C247.9 75.7283 247.845 75.955 247.845 76.215V79H246.745ZM255.058 81.25C254.728 81.25 254.401 81.2183 254.078 81.155C253.758 81.0917 253.453 80.985 253.163 80.835L253.438 79.925C253.691 80.0483 253.949 80.1383 254.213 80.195C254.479 80.2517 254.743 80.28 255.003 80.28C255.576 80.28 256.013 80.1433 256.313 79.87C256.613 79.6 256.763 79.2383 256.763 78.785V77.705L256.913 77.94C256.749 78.2667 256.504 78.5317 256.178 78.735C255.854 78.935 255.449 79.035 254.963 79.035C254.463 79.035 254.024 78.9233 253.648 78.7C253.274 78.4733 252.983 78.1667 252.773 77.78C252.566 77.39 252.463 76.9533 252.463 76.47C252.463 76.1067 252.523 75.77 252.643 75.46C252.763 75.1467 252.933 74.8733 253.153 74.64C253.373 74.4067 253.636 74.225 253.943 74.095C254.249 73.965 254.589 73.9 254.963 73.9C255.449 73.9 255.854 74.0017 256.178 74.205C256.504 74.405 256.749 74.6683 256.913 74.995L256.763 75.23V74.045H257.788V78.54C257.788 79.3967 257.558 80.0617 257.098 80.535C256.638 81.0117 255.958 81.25 255.058 81.25ZM255.128 78.08C255.431 78.08 255.701 78.0133 255.938 77.88C256.174 77.7467 256.359 77.56 256.493 77.32C256.626 77.08 256.693 76.7967 256.693 76.47C256.693 76.1433 256.626 75.8583 256.493 75.615C256.359 75.3717 256.174 75.185 255.938 75.055C255.701 74.9217 255.431 74.855 255.128 74.855C254.821 74.855 254.549 74.9217 254.313 75.055C254.079 75.185 253.896 75.3717 253.763 75.615C253.629 75.8583 253.563 76.1433 253.563 76.47C253.563 76.7967 253.629 77.08 253.763 77.32C253.896 77.56 254.079 77.7467 254.313 77.88C254.549 78.0133 254.821 78.08 255.128 78.08Z" fill="#666666" fill-opacity="0.81"/>
<path d="M319.265 81.1V74.05H320.255V74.745C320.452 74.495 320.703 74.2917 321.01 74.135C321.317 73.9783 321.695 73.9 322.145 73.9C322.628 73.9 323.057 74.015 323.43 74.245C323.807 74.4717 324.1 74.7833 324.31 75.18C324.52 75.5733 324.625 76.0217 324.625 76.525C324.625 76.8883 324.565 77.23 324.445 77.55C324.325 77.8667 324.153 78.145 323.93 78.385C323.71 78.625 323.447 78.8133 323.14 78.95C322.837 79.0833 322.5 79.15 322.13 79.15C321.743 79.15 321.403 79.08 321.11 78.94C320.817 78.8 320.567 78.6117 320.36 78.375V81.1H319.265ZM321.945 78.175C322.252 78.175 322.523 78.1083 322.76 77.975C323 77.8383 323.187 77.6467 323.32 77.4C323.457 77.1533 323.525 76.8617 323.525 76.525C323.525 76.1883 323.457 75.8967 323.32 75.65C323.183 75.4 322.995 75.2083 322.755 75.075C322.518 74.9417 322.248 74.875 321.945 74.875C321.638 74.875 321.365 74.9417 321.125 75.075C320.888 75.2083 320.702 75.4 320.565 75.65C320.428 75.8967 320.36 76.1883 320.36 76.525C320.36 76.8617 320.428 77.1533 320.565 77.4C320.702 77.6467 320.888 77.8383 321.125 77.975C321.365 78.1083 321.638 78.175 321.945 78.175ZM328.039 79.15C327.505 79.15 327.037 79.0417 326.634 78.825C326.23 78.605 325.915 78.2983 325.689 77.905C325.465 77.5117 325.354 77.055 325.354 76.535C325.354 76.155 325.419 75.805 325.549 75.485C325.679 75.1617 325.862 74.8817 326.099 74.645C326.335 74.4083 326.612 74.225 326.929 74.095C327.249 73.965 327.597 73.9 327.974 73.9C328.384 73.9 328.749 73.9733 329.069 74.12C329.389 74.2633 329.654 74.465 329.864 74.725C330.077 74.985 330.227 75.29 330.314 75.64C330.404 75.9867 330.419 76.3633 330.359 76.77H326.409C326.402 77.0667 326.467 77.3267 326.604 77.55C326.74 77.77 326.935 77.9417 327.189 78.065C327.445 78.1883 327.747 78.25 328.094 78.25C328.374 78.25 328.644 78.2083 328.904 78.125C329.167 78.0383 329.405 77.9117 329.619 77.745L330.044 78.535C329.884 78.665 329.69 78.7767 329.464 78.87C329.237 78.96 329 79.0283 328.754 79.075C328.507 79.125 328.269 79.15 328.039 79.15ZM326.474 75.96H329.279C329.269 75.5867 329.149 75.2933 328.919 75.08C328.692 74.8667 328.369 74.76 327.949 74.76C327.542 74.76 327.204 74.8667 326.934 75.08C326.667 75.2933 326.514 75.5867 326.474 75.96ZM331.501 79V74.05H332.601V74.68C332.808 74.4033 333.048 74.205 333.321 74.085C333.595 73.9617 333.878 73.9 334.171 73.9C334.625 73.9 335 73.99 335.296 74.17C335.593 74.35 335.813 74.5817 335.956 74.865C336.103 75.1483 336.176 75.44 336.176 75.74V79H335.076V76.08C335.076 75.7267 334.97 75.4433 334.756 75.23C334.546 75.0167 334.253 74.91 333.876 74.91C333.63 74.91 333.41 74.965 333.216 75.075C333.026 75.185 332.876 75.3383 332.766 75.535C332.656 75.7283 332.601 75.955 332.601 76.215V79H331.501ZM339.709 79.15C339.225 79.15 338.797 79.0367 338.424 78.81C338.05 78.58 337.757 78.2683 337.544 77.875C337.334 77.4783 337.229 77.0283 337.229 76.525C337.229 76.1617 337.289 75.8217 337.409 75.505C337.529 75.185 337.699 74.905 337.919 74.665C338.142 74.425 338.405 74.2383 338.709 74.105C339.015 73.9683 339.354 73.9 339.724 73.9C340.174 73.9 340.564 73.99 340.894 74.17C341.224 74.35 341.499 74.6 341.719 74.92L341.489 75.165V71.8H342.589V79H341.599V77.81L341.759 78.06C341.579 78.3733 341.32 78.6333 340.984 78.84C340.65 79.0467 340.225 79.15 339.709 79.15ZM339.909 78.175C340.215 78.175 340.487 78.1083 340.724 77.975C340.964 77.8383 341.152 77.6467 341.289 77.4C341.425 77.1533 341.494 76.8617 341.494 76.525C341.494 76.1883 341.425 75.8967 341.289 75.65C341.152 75.4 340.964 75.2083 340.724 75.075C340.487 74.9417 340.215 74.875 339.909 74.875C339.602 74.875 339.33 74.9417 339.094 75.075C338.857 75.2083 338.67 75.4 338.534 75.65C338.397 75.8967 338.329 76.1883 338.329 76.525C338.329 76.8617 338.397 77.1533 338.534 77.4C338.67 77.6467 338.857 77.8383 339.094 77.975C339.334 78.1083 339.605 78.175 339.909 78.175ZM344.119 79V74.05H345.219V79H344.119ZM344.669 73.165C344.472 73.165 344.302 73.1017 344.159 72.975C344.015 72.8483 343.944 72.6817 343.944 72.475C343.944 72.2717 344.015 72.1067 344.159 71.98C344.302 71.85 344.472 71.785 344.669 71.785C344.865 71.785 345.035 71.85 345.179 71.98C345.322 72.1067 345.394 72.2717 345.394 72.475C345.394 72.6817 345.322 72.8483 345.179 72.975C345.035 73.1017 344.865 73.165 344.669 73.165ZM346.745 79V74.05H347.845V74.68C348.052 74.4033 348.292 74.205 348.565 74.085C348.839 73.9617 349.122 73.9 349.415 73.9C349.869 73.9 350.244 73.99 350.54 74.17C350.837 74.35 351.057 74.5817 351.2 74.865C351.347 75.1483 351.42 75.44 351.42 75.74V79H350.32V76.08C350.32 75.7267 350.214 75.4433 350 75.23C349.79 75.0167 349.497 74.91 349.12 74.91C348.874 74.91 348.654 74.965 348.46 75.075C348.27 75.185 348.12 75.3383 348.01 75.535C347.9 75.7283 347.845 75.955 347.845 76.215V79H346.745ZM355.058 81.25C354.728 81.25 354.401 81.2183 354.078 81.155C353.758 81.0917 353.453 80.985 353.163 80.835L353.438 79.925C353.691 80.0483 353.949 80.1383 354.213 80.195C354.479 80.2517 354.743 80.28 355.003 80.28C355.576 80.28 356.013 80.1433 356.313 79.87C356.613 79.6 356.763 79.2383 356.763 78.785V77.705L356.913 77.94C356.749 78.2667 356.504 78.5317 356.178 78.735C355.854 78.935 355.449 79.035 354.963 79.035C354.463 79.035 354.024 78.9233 353.648 78.7C353.274 78.4733 352.983 78.1667 352.773 77.78C352.566 77.39 352.463 76.9533 352.463 76.47C352.463 76.1067 352.523 75.77 352.643 75.46C352.763 75.1467 352.933 74.8733 353.153 74.64C353.373 74.4067 353.636 74.225 353.943 74.095C354.249 73.965 354.589 73.9 354.963 73.9C355.449 73.9 355.854 74.0017 356.178 74.205C356.504 74.405 356.749 74.6683 356.913 74.995L356.763 75.23V74.045H357.788V78.54C357.788 79.3967 357.558 80.0617 357.098 80.535C356.638 81.0117 355.958 81.25 355.058 81.25ZM355.128 78.08C355.431 78.08 355.701 78.0133 355.938 77.88C356.174 77.7467 356.359 77.56 356.493 77.32C356.626 77.08 356.693 76.7967 356.693 76.47C356.693 76.1433 356.626 75.8583 356.493 75.615C356.359 75.3717 356.174 75.185 355.938 75.055C355.701 74.9217 355.431 74.855 355.128 74.855C354.821 74.855 354.549 74.9217 354.313 75.055C354.079 75.185 353.896 75.3717 353.763 75.615C353.629 75.8583 353.563 76.1433 353.563 76.47C353.563 76.7967 353.629 77.08 353.763 77.32C353.896 77.56 354.079 77.7467 354.313 77.88C354.549 78.0133 354.821 78.08 355.128 78.08Z" fill="#666666" fill-opacity="0.81"/>
<path d="M119.774 65V55.2H122.84C123.815 55.2 124.676 55.41 125.423 55.83C126.17 56.2453 126.753 56.8217 127.173 57.559C127.598 58.2963 127.81 59.1457 127.81 60.107C127.81 60.821 127.689 61.479 127.446 62.081C127.208 62.6783 126.867 63.194 126.424 63.628C125.981 64.062 125.456 64.4003 124.849 64.643C124.242 64.881 123.573 65 122.84 65H119.774ZM121.342 63.537H122.651C123.178 63.537 123.657 63.46 124.086 63.306C124.52 63.1473 124.891 62.9187 125.199 62.62C125.512 62.3213 125.752 61.962 125.92 61.542C126.088 61.1173 126.172 60.639 126.172 60.107C126.172 59.393 126.025 58.7793 125.731 58.266C125.442 57.748 125.033 57.3513 124.506 57.076C123.979 56.796 123.36 56.656 122.651 56.656H121.342V63.537ZM129.551 65V58.07H131.091V65H129.551ZM130.321 56.831C130.046 56.831 129.808 56.7423 129.607 56.565C129.407 56.3877 129.306 56.1543 129.306 55.865C129.306 55.5803 129.407 55.3493 129.607 55.172C129.808 54.99 130.046 54.899 130.321 54.899C130.597 54.899 130.835 54.99 131.035 55.172C131.236 55.3493 131.336 55.5803 131.336 55.865C131.336 56.1543 131.236 56.3877 131.035 56.565C130.835 56.7423 130.597 56.831 130.321 56.831ZM135.567 65.203C134.993 65.203 134.457 65.1213 133.957 64.958C133.458 64.7947 133.038 64.5753 132.697 64.3L133.278 63.173C133.6 63.425 133.962 63.6233 134.363 63.768C134.769 63.9127 135.168 63.985 135.56 63.985C136.013 63.985 136.365 63.9057 136.617 63.747C136.869 63.5883 136.995 63.3667 136.995 63.082C136.995 62.8113 136.886 62.613 136.666 62.487C136.452 62.3563 136.041 62.221 135.434 62.081C134.562 61.899 133.927 61.6423 133.53 61.311C133.138 60.975 132.942 60.5107 132.942 59.918C132.942 59.5027 133.057 59.1363 133.285 58.819C133.519 58.497 133.838 58.245 134.244 58.063C134.65 57.881 135.119 57.79 135.651 57.79C136.169 57.79 136.657 57.8647 137.114 58.014C137.572 58.1587 137.968 58.364 138.304 58.63L137.758 59.764C137.586 59.61 137.385 59.477 137.156 59.365C136.928 59.253 136.685 59.1667 136.428 59.106C136.176 59.0407 135.924 59.008 135.672 59.008C135.28 59.008 134.961 59.085 134.713 59.239C134.471 59.3883 134.349 59.596 134.349 59.862C134.349 60.1373 134.466 60.3403 134.699 60.471C134.933 60.6017 135.334 60.7323 135.903 60.863C136.799 61.059 137.441 61.3203 137.828 61.647C138.216 61.9737 138.409 62.4263 138.409 63.005C138.409 63.4483 138.29 63.8357 138.052 64.167C137.814 64.4937 137.481 64.748 137.051 64.93C136.627 65.112 136.132 65.203 135.567 65.203ZM140.147 67.94V58.07H141.533V59.043C141.809 58.693 142.161 58.4083 142.59 58.189C143.02 57.9697 143.549 57.86 144.179 57.86C144.856 57.86 145.456 58.021 145.978 58.343C146.506 58.6603 146.916 59.0967 147.21 59.652C147.504 60.2027 147.651 60.8303 147.651 61.535C147.651 62.0437 147.567 62.522 147.399 62.97C147.231 63.4133 146.991 63.803 146.678 64.139C146.37 64.475 146.002 64.7387 145.572 64.93C145.148 65.1167 144.676 65.21 144.158 65.21C143.617 65.21 143.141 65.112 142.73 64.916C142.32 64.72 141.97 64.4563 141.68 64.125V67.94H140.147ZM143.899 63.845C144.329 63.845 144.709 63.7517 145.04 63.565C145.376 63.3737 145.638 63.1053 145.824 62.76C146.016 62.4147 146.111 62.0063 146.111 61.535C146.111 61.0637 146.016 60.6553 145.824 60.31C145.633 59.96 145.369 59.6917 145.033 59.505C144.702 59.3183 144.324 59.225 143.899 59.225C143.47 59.225 143.087 59.3183 142.751 59.505C142.42 59.6917 142.159 59.96 141.967 60.31C141.776 60.6553 141.68 61.0637 141.68 61.535C141.68 62.0063 141.776 62.4147 141.967 62.76C142.159 63.1053 142.42 63.3737 142.751 63.565C143.087 63.7517 143.47 63.845 143.899 63.845ZM152.199 65.21C151.509 65.21 150.897 65.0513 150.365 64.734C149.838 64.412 149.423 63.9757 149.119 63.425C148.821 62.8697 148.671 62.2397 148.671 61.535C148.671 61.0077 148.758 60.52 148.93 60.072C149.103 59.624 149.346 59.2343 149.658 58.903C149.971 58.5717 150.344 58.315 150.778 58.133C151.212 57.951 151.686 57.86 152.199 57.86C152.881 57.86 153.45 58.0047 153.907 58.294C154.369 58.5833 154.722 58.9567 154.964 59.414L154.747 59.743V58.07H156.119V65H154.747V63.327L154.964 63.656C154.722 64.1133 154.369 64.4867 153.907 64.776C153.45 65.0653 152.881 65.21 152.199 65.21ZM152.402 63.845C152.822 63.845 153.198 63.7517 153.529 63.565C153.861 63.3737 154.12 63.1053 154.306 62.76C154.498 62.4147 154.593 62.0063 154.593 61.535C154.593 61.0637 154.498 60.6553 154.306 60.31C154.12 59.96 153.861 59.6917 153.529 59.505C153.198 59.3183 152.822 59.225 152.402 59.225C151.978 59.225 151.6 59.3183 151.268 59.505C150.942 59.6917 150.683 59.96 150.491 60.31C150.3 60.6553 150.204 61.0637 150.204 61.535C150.204 62.0063 150.3 62.4147 150.491 62.76C150.683 63.1053 150.942 63.3737 151.268 63.565C151.6 63.7517 151.978 63.845 152.402 63.845ZM161.174 65.21C160.498 65.21 159.956 65.014 159.55 64.622C159.144 64.23 158.941 63.6303 158.941 62.823V56.047H160.481V58.07H162.406V59.344H160.481V62.487C160.481 62.9723 160.572 63.3153 160.754 63.516C160.941 63.712 161.202 63.81 161.538 63.81C161.702 63.81 161.856 63.7913 162 63.754C162.145 63.7167 162.276 63.6677 162.392 63.607L162.665 64.853C162.465 64.9557 162.234 65.0397 161.972 65.105C161.716 65.175 161.45 65.21 161.174 65.21ZM157.422 59.344V58.07H159.144V59.344H157.422ZM167.415 65.21C166.687 65.21 166.038 65.0513 165.469 64.734C164.9 64.412 164.452 63.9757 164.125 63.425C163.803 62.8697 163.642 62.2397 163.642 61.535C163.642 61.003 163.738 60.5153 163.929 60.072C164.12 59.624 164.391 59.2343 164.741 58.903C165.091 58.5717 165.502 58.315 165.973 58.133C166.449 57.951 166.965 57.86 167.52 57.86C167.987 57.86 168.418 57.923 168.815 58.049C169.216 58.1703 169.585 58.3593 169.921 58.616L169.179 59.792C168.964 59.6007 168.717 59.4583 168.437 59.365C168.162 59.2717 167.868 59.225 167.555 59.225C167.07 59.225 166.652 59.316 166.302 59.498C165.952 59.68 165.679 59.9437 165.483 60.289C165.292 60.6297 165.196 61.0427 165.196 61.528C165.196 62.2513 165.406 62.8183 165.826 63.229C166.251 63.6397 166.827 63.845 167.555 63.845C167.9 63.845 168.227 63.782 168.535 63.656C168.843 63.5253 169.1 63.355 169.305 63.145L170.04 64.314C169.671 64.594 169.261 64.8133 168.808 64.972C168.355 65.1307 167.891 65.21 167.415 65.21ZM171.456 65V54.92H172.996V59.484L172.681 59.141C172.989 58.7117 173.36 58.392 173.794 58.182C174.228 57.9673 174.685 57.86 175.166 57.86C175.796 57.86 176.321 57.9883 176.741 58.245C177.161 58.497 177.476 58.8237 177.686 59.225C177.896 59.6263 178.001 60.044 178.001 60.478V65H176.461V60.919C176.461 60.4337 176.309 60.0393 176.006 59.736C175.702 59.4327 175.289 59.2787 174.767 59.274C174.421 59.274 174.116 59.351 173.85 59.505C173.584 59.6543 173.374 59.8667 173.22 60.142C173.07 60.4173 172.996 60.737 172.996 61.101V65H171.456Z" fill="#323232"/>
<path d="M217.647 65L221.455 55.2H223.156L227.062 65H225.291L224.388 62.662H220.237L219.369 65H217.647ZM220.643 61.311H223.968L222.274 57.041L220.643 61.311ZM228.278 65V58.07H229.818V59.029C230.079 58.595 230.397 58.2917 230.77 58.119C231.143 57.9417 231.545 57.853 231.974 57.853C232.114 57.853 232.247 57.86 232.373 57.874C232.499 57.888 232.62 57.909 232.737 57.937L232.534 59.526C232.394 59.484 232.252 59.4513 232.107 59.428C231.962 59.4047 231.818 59.393 231.673 59.393C231.136 59.393 230.693 59.5587 230.343 59.89C229.993 60.2167 229.818 60.6623 229.818 61.227V65H228.278ZM234.02 65V58.07H235.56V59.029C235.822 58.595 236.139 58.2917 236.512 58.119C236.886 57.9417 237.287 57.853 237.716 57.853C237.856 57.853 237.989 57.86 238.115 57.874C238.241 57.888 238.363 57.909 238.479 57.937L238.276 59.526C238.136 59.484 237.994 59.4513 237.849 59.428C237.705 59.4047 237.56 59.393 237.415 59.393C236.879 59.393 236.435 59.5587 236.085 59.89C235.735 60.2167 235.56 60.6623 235.56 61.227V65H234.02ZM239.762 65V58.07H241.302V65H239.762ZM240.532 56.831C240.257 56.831 240.019 56.7423 239.818 56.565C239.618 56.3877 239.517 56.1543 239.517 55.865C239.517 55.5803 239.618 55.3493 239.818 55.172C240.019 54.99 240.257 54.899 240.532 54.899C240.808 54.899 241.046 54.99 241.246 55.172C241.447 55.3493 241.547 55.5803 241.547 55.865C241.547 56.1543 241.447 56.3877 241.246 56.565C241.046 56.7423 240.808 56.831 240.532 56.831ZM245.162 65L242.572 58.07H244.259L246.177 63.677H245.946L247.829 58.07H249.467L246.926 65H245.162ZM253.606 65.21C252.915 65.21 252.304 65.0513 251.772 64.734C251.244 64.412 250.829 63.9757 250.526 63.425C250.227 62.8697 250.078 62.2397 250.078 61.535C250.078 61.0077 250.164 60.52 250.337 60.072C250.509 59.624 250.752 59.2343 251.065 58.903C251.377 58.5717 251.751 58.315 252.185 58.133C252.619 57.951 253.092 57.86 253.606 57.86C254.287 57.86 254.856 58.0047 255.314 58.294C255.776 58.5833 256.128 58.9567 256.371 59.414L256.154 59.743V58.07H257.526V65H256.154V63.327L256.371 63.656C256.128 64.1133 255.776 64.4867 255.314 64.776C254.856 65.0653 254.287 65.21 253.606 65.21ZM253.809 63.845C254.229 63.845 254.604 63.7517 254.936 63.565C255.267 63.3737 255.526 63.1053 255.713 62.76C255.904 62.4147 256 62.0063 256 61.535C256 61.0637 255.904 60.6553 255.713 60.31C255.526 59.96 255.267 59.6917 254.936 59.505C254.604 59.3183 254.229 59.225 253.809 59.225C253.384 59.225 253.006 59.3183 252.675 59.505C252.348 59.6917 252.089 59.96 251.898 60.31C251.706 60.6553 251.611 61.0637 251.611 61.535C251.611 62.0063 251.706 62.4147 251.898 62.76C252.089 63.1053 252.348 63.3737 252.675 63.565C253.006 63.7517 253.384 63.845 253.809 63.845ZM259.669 65V54.92H261.209V65H259.669Z" fill="#323232"/>
<path d="M318.774 65V55.2H321.84C322.815 55.2 323.676 55.41 324.423 55.83C325.17 56.2453 325.753 56.8217 326.173 57.559C326.598 58.2963 326.81 59.1457 326.81 60.107C326.81 60.821 326.689 61.479 326.446 62.081C326.208 62.6783 325.867 63.194 325.424 63.628C324.981 64.062 324.456 64.4003 323.849 64.643C323.242 64.881 322.573 65 321.84 65H318.774ZM320.342 63.537H321.651C322.178 63.537 322.657 63.46 323.086 63.306C323.52 63.1473 323.891 62.9187 324.199 62.62C324.512 62.3213 324.752 61.962 324.92 61.542C325.088 61.1173 325.172 60.639 325.172 60.107C325.172 59.393 325.025 58.7793 324.731 58.266C324.442 57.748 324.033 57.3513 323.506 57.076C322.979 56.796 322.36 56.656 321.651 56.656H320.342V63.537ZM331.715 65.21C330.969 65.21 330.313 65.0583 329.748 64.755C329.184 64.447 328.743 64.0177 328.425 63.467C328.113 62.9163 327.956 62.277 327.956 61.549C327.956 61.017 328.047 60.527 328.229 60.079C328.411 59.6263 328.668 59.2343 328.999 58.903C329.331 58.5717 329.718 58.315 330.161 58.133C330.609 57.951 331.097 57.86 331.624 57.86C332.198 57.86 332.709 57.9627 333.157 58.168C333.605 58.3687 333.976 58.651 334.27 59.015C334.569 59.379 334.779 59.806 334.9 60.296C335.026 60.7813 335.047 61.3087 334.963 61.878H329.433C329.424 62.2933 329.515 62.6573 329.706 62.97C329.898 63.278 330.171 63.5183 330.525 63.691C330.885 63.8637 331.307 63.95 331.792 63.95C332.184 63.95 332.562 63.8917 332.926 63.775C333.295 63.6537 333.629 63.4763 333.927 63.243L334.522 64.349C334.298 64.531 334.028 64.6873 333.71 64.818C333.393 64.944 333.062 65.0397 332.716 65.105C332.371 65.175 332.037 65.21 331.715 65.21ZM329.524 60.744H333.451C333.437 60.2213 333.269 59.8107 332.947 59.512C332.63 59.2133 332.177 59.064 331.589 59.064C331.02 59.064 330.546 59.2133 330.168 59.512C329.795 59.8107 329.58 60.2213 329.524 60.744ZM336.563 65V54.92H338.103V65H336.563ZM340.241 65V58.07H341.781V65H340.241ZM341.011 56.831C340.736 56.831 340.498 56.7423 340.297 56.565C340.096 56.3877 339.996 56.1543 339.996 55.865C339.996 55.5803 340.096 55.3493 340.297 55.172C340.498 54.99 340.736 54.899 341.011 54.899C341.286 54.899 341.524 54.99 341.725 55.172C341.926 55.3493 342.026 55.5803 342.026 55.865C342.026 56.1543 341.926 56.3877 341.725 56.565C341.524 56.7423 341.286 56.831 341.011 56.831ZM345.641 65L343.051 58.07H344.738L346.656 63.677H346.425L348.308 58.07H349.946L347.405 65H345.641ZM354.315 65.21C353.568 65.21 352.913 65.0583 352.348 64.755C351.783 64.447 351.342 64.0177 351.025 63.467C350.712 62.9163 350.556 62.277 350.556 61.549C350.556 61.017 350.647 60.527 350.829 60.079C351.011 59.6263 351.268 59.2343 351.599 58.903C351.93 58.5717 352.318 58.315 352.761 58.133C353.209 57.951 353.697 57.86 354.224 57.86C354.798 57.86 355.309 57.9627 355.757 58.168C356.205 58.3687 356.576 58.651 356.87 59.015C357.169 59.379 357.379 59.806 357.5 60.296C357.626 60.7813 357.647 61.3087 357.563 61.878H352.033C352.024 62.2933 352.115 62.6573 352.306 62.97C352.497 63.278 352.77 63.5183 353.125 63.691C353.484 63.8637 353.907 63.95 354.392 63.95C354.784 63.95 355.162 63.8917 355.526 63.775C355.895 63.6537 356.228 63.4763 356.527 63.243L357.122 64.349C356.898 64.531 356.627 64.6873 356.31 64.818C355.993 64.944 355.661 65.0397 355.316 65.105C354.971 65.175 354.637 65.21 354.315 65.21ZM352.124 60.744H356.051C356.037 60.2213 355.869 59.8107 355.547 59.512C355.23 59.2133 354.777 59.064 354.189 59.064C353.62 59.064 353.146 59.2133 352.768 59.512C352.395 59.8107 352.18 60.2213 352.124 60.744ZM359.163 65V58.07H360.703V59.029C360.964 58.595 361.281 58.2917 361.655 58.119C362.028 57.9417 362.429 57.853 362.859 57.853C362.999 57.853 363.132 57.86 363.258 57.874C363.384 57.888 363.505 57.909 363.622 57.937L363.419 59.526C363.279 59.484 363.136 59.4513 362.992 59.428C362.847 59.4047 362.702 59.393 362.558 59.393C362.021 59.393 361.578 59.5587 361.228 59.89C360.878 60.2167 360.703 60.6623 360.703 61.227V65H359.163ZM365.691 68.136C365.439 68.136 365.192 68.108 364.949 68.052C364.707 67.996 364.469 67.9003 364.235 67.765L364.585 66.449C364.73 66.5423 364.889 66.6123 365.061 66.659C365.234 66.7057 365.388 66.729 365.523 66.729C365.85 66.729 366.107 66.652 366.293 66.498C366.48 66.344 366.627 66.106 366.734 65.784L366.965 65.112L364.235 58.07H365.922L367.84 63.446L369.709 58.07H371.34L368.344 66.001C368.13 66.5563 367.889 66.988 367.623 67.296C367.357 67.6087 367.063 67.8257 366.741 67.947C366.419 68.073 366.069 68.136 365.691 68.136Z" fill="#323232"/>
<rect x="119" y="24.5" width="19" height="19" rx="9.5" stroke="#557FFE"/>
<rect x="121" y="26.5" width="15" height="15" rx="7.5" fill="#557FFE" stroke="#557FFE"/>
<mask id="path-12-outside-1_2197_27527" maskUnits="userSpaceOnUse" x="124.5" y="29" width="8" height="10" fill="black">
<rect fill="white" x="124.5" y="29" width="8" height="10"/>
<path d="M126.095 38V37.2L127.61 35.815C128.09 35.375 128.477 34.9967 128.77 34.68C129.063 34.36 129.277 34.0717 129.41 33.815C129.543 33.5583 129.61 33.2983 129.61 33.035C129.61 32.6517 129.478 32.3533 129.215 32.14C128.955 31.9233 128.592 31.815 128.125 31.815C127.815 31.815 127.518 31.8683 127.235 31.975C126.952 32.0817 126.71 32.2367 126.51 32.44L126.1 31.625C126.383 31.3717 126.71 31.18 127.08 31.05C127.45 30.9167 127.838 30.85 128.245 30.85C128.728 30.85 129.15 30.9367 129.51 31.11C129.873 31.28 130.155 31.5217 130.355 31.835C130.558 32.145 130.66 32.5083 130.66 32.925C130.66 33.215 130.602 33.505 130.485 33.795C130.372 34.0817 130.167 34.405 129.87 34.765C129.577 35.125 129.16 35.5567 128.62 36.06L127.545 37.05H130.835V38H126.095Z"/>
</mask>
<path d="M126.095 38V37.2L127.61 35.815C128.09 35.375 128.477 34.9967 128.77 34.68C129.063 34.36 129.277 34.0717 129.41 33.815C129.543 33.5583 129.61 33.2983 129.61 33.035C129.61 32.6517 129.478 32.3533 129.215 32.14C128.955 31.9233 128.592 31.815 128.125 31.815C127.815 31.815 127.518 31.8683 127.235 31.975C126.952 32.0817 126.71 32.2367 126.51 32.44L126.1 31.625C126.383 31.3717 126.71 31.18 127.08 31.05C127.45 30.9167 127.838 30.85 128.245 30.85C128.728 30.85 129.15 30.9367 129.51 31.11C129.873 31.28 130.155 31.5217 130.355 31.835C130.558 32.145 130.66 32.5083 130.66 32.925C130.66 33.215 130.602 33.505 130.485 33.795C130.372 34.0817 130.167 34.405 129.87 34.765C129.577 35.125 129.16 35.5567 128.62 36.06L127.545 37.05H130.835V38H126.095Z" fill="white"/>
<path d="M126.095 38H125.095V39H126.095V38ZM126.095 37.2L125.42 36.4619L125.095 36.7593V37.2H126.095ZM127.61 35.815L128.285 36.5531L128.286 36.5522L127.61 35.815ZM128.77 34.68L129.504 35.3596L129.507 35.3557L128.77 34.68ZM129.41 33.815L130.297 34.276L130.297 34.276L129.41 33.815ZM129.215 32.14L128.575 32.9083L128.586 32.917L129.215 32.14ZM127.235 31.975L127.587 32.9109L127.587 32.9109L127.235 31.975ZM126.51 32.44L125.617 32.8894L126.244 34.1365L127.223 33.1412L126.51 32.44ZM126.1 31.625L125.433 30.8795L124.862 31.3901L125.207 32.0744L126.1 31.625ZM127.08 31.05L127.411 31.9935L127.419 31.9908L127.08 31.05ZM129.51 31.11L129.076 32.0111L129.086 32.0158L129.51 31.11ZM130.355 31.835L129.512 32.3731L129.519 32.3835L130.355 31.835ZM130.485 33.795L129.557 33.4218L129.555 33.4273L130.485 33.795ZM129.87 34.765L129.098 34.129L129.095 34.1333L129.87 34.765ZM128.62 36.06L129.297 36.7956L129.302 36.7915L128.62 36.06ZM127.545 37.05L126.868 36.3144L124.983 38.05H127.545V37.05ZM130.835 37.05H131.835V36.05H130.835V37.05ZM130.835 38V39H131.835V38H130.835ZM127.095 38V37.2H125.095V38H127.095ZM126.77 37.9381L128.285 36.5531L126.935 35.0769L125.42 36.4619L126.77 37.9381ZM128.286 36.5522C128.777 36.102 129.185 35.7035 129.504 35.3596L128.036 34.0004C127.768 34.2898 127.403 34.648 126.934 35.0778L128.286 36.5522ZM129.507 35.3557C129.833 34.9999 130.109 34.6389 130.297 34.276L128.523 33.354C128.444 33.5044 128.293 33.7201 128.033 34.0043L129.507 35.3557ZM130.297 34.276C130.497 33.8912 130.61 33.4741 130.61 33.035H128.61C128.61 33.1225 128.589 33.2255 128.523 33.354L130.297 34.276ZM130.61 33.035C130.61 32.3947 130.375 31.7926 129.844 31.363L128.586 32.917C128.59 32.9206 128.593 32.9232 128.594 32.9247C128.596 32.9262 128.596 32.927 128.596 32.927C128.596 32.927 128.596 32.9268 128.596 32.9265C128.596 32.9263 128.596 32.9265 128.596 32.9275C128.597 32.9291 128.61 32.9583 128.61 33.035H130.61ZM129.855 31.3718C129.358 30.9572 128.737 30.815 128.125 30.815V32.815C128.446 32.815 128.552 32.8894 128.575 32.9082L129.855 31.3718ZM128.125 30.815C127.698 30.815 127.281 30.889 126.883 31.0391L127.587 32.9109C127.755 32.8476 127.932 32.815 128.125 32.815V30.815ZM126.883 31.0391C126.472 31.1937 126.105 31.4257 125.797 31.7388L127.223 33.1412C127.315 33.0477 127.431 32.9696 127.587 32.9109L126.883 31.0391ZM127.403 31.9906L126.993 31.1756L125.207 32.0744L125.617 32.8894L127.403 31.9906ZM126.767 32.3705C126.949 32.2072 127.161 32.0815 127.411 31.9935L126.749 30.1065C126.259 30.2785 125.818 30.5361 125.433 30.8795L126.767 32.3705ZM127.419 31.9908C127.677 31.898 127.95 31.85 128.245 31.85V29.85C127.727 29.85 127.223 29.9354 126.741 30.1092L127.419 31.9908ZM128.245 31.85C128.609 31.85 128.877 31.9151 129.076 32.011L129.944 30.209C129.423 29.9583 128.848 29.85 128.245 29.85V31.85ZM129.086 32.0158C129.292 32.112 129.422 32.2322 129.512 32.373L131.198 31.297C130.888 30.8111 130.455 30.448 129.934 30.2042L129.086 32.0158ZM129.519 32.3835C129.602 32.5108 129.66 32.6783 129.66 32.925H131.66C131.66 32.3384 131.514 31.7792 131.191 31.2865L129.519 32.3835ZM129.66 32.925C129.66 33.0774 129.63 33.2411 129.557 33.4218L131.413 34.1682C131.573 33.7689 131.66 33.3526 131.66 32.925H129.66ZM129.555 33.4273C129.494 33.5806 129.359 33.8127 129.098 34.129L130.642 35.401C130.974 34.9973 131.249 34.5828 131.415 34.1627L129.555 33.4273ZM129.095 34.1333C128.842 34.4436 128.462 34.8404 127.938 35.3285L129.302 36.7915C129.858 36.2729 130.311 35.8064 130.645 35.3967L129.095 34.1333ZM127.943 35.3244L126.868 36.3144L128.222 37.7856L129.297 36.7956L127.943 35.3244ZM127.545 38.05H130.835V36.05H127.545V38.05ZM129.835 37.05V38H131.835V37.05H129.835ZM130.835 37H126.095V39H130.835V37Z" fill="#557FFE" mask="url(#path-12-outside-1_2197_27527)"/>
<rect x="18.5" y="24" width="20" height="20" rx="10" fill="#557FFE"/>
<path d="M32.9876 30.8642C32.9256 30.8017 32.8519 30.7521 32.7707 30.7183C32.6894 30.6844 32.6023 30.667 32.5143 30.667C32.4263 30.667 32.3391 30.6844 32.2579 30.7183C32.1767 30.7521 32.1029 30.8017 32.041 30.8642L27.0743 35.8375L24.9876 33.7442C24.9233 33.682 24.8473 33.6332 24.7641 33.6004C24.6808 33.5676 24.592 33.5515 24.5025 33.553C24.4131 33.5546 24.3248 33.5737 24.2427 33.6094C24.1607 33.645 24.0864 33.6965 24.0243 33.7609C23.9621 33.8252 23.9133 33.9012 23.8805 33.9844C23.8476 34.0676 23.8316 34.1565 23.8331 34.246C23.8347 34.3354 23.8538 34.4237 23.8895 34.5058C23.9251 34.5878 23.9766 34.662 24.041 34.7242L26.601 37.2842C26.6629 37.3467 26.7367 37.3963 26.8179 37.4301C26.8991 37.464 26.9863 37.4814 27.0743 37.4814C27.1623 37.4814 27.2494 37.464 27.3307 37.4301C27.4119 37.3963 27.4856 37.3467 27.5476 37.2842L32.9876 31.8442C33.0553 31.7818 33.1093 31.706 33.1462 31.6217C33.1832 31.5373 33.2022 31.4463 33.2022 31.3542C33.2022 31.2621 33.1832 31.1711 33.1462 31.0867C33.1093 31.0024 33.0553 30.9266 32.9876 30.8642Z" fill="white"/>
<line x1="49.5" y1="33" x2="107.5" y2="33" stroke="#557FFE" stroke-width="2" stroke-linecap="round"/>
<line opacity="0.5" x1="149.5" y1="33" x2="207.5" y2="33" stroke="#557FFE" stroke-width="2" stroke-linecap="round"/>
<line x1="149.5" y1="33" x2="172.5" y2="33" stroke="#557FFE" stroke-width="2" stroke-linecap="round"/>
<line opacity="0.5" x1="249.5" y1="33" x2="307.5" y2="33" stroke="#557FFE" stroke-width="2" stroke-linecap="round"/>
<rect opacity="0.5" x="218.5" y="24" width="20" height="20" rx="10" fill="#557FFE"/>
<path d="M228.13 38.15C227.84 38.15 227.553 38.12 227.27 38.06C226.99 38 226.732 37.9183 226.495 37.815C226.262 37.7083 226.07 37.5867 225.92 37.45L226.295 36.53C226.505 36.7267 226.772 36.8833 227.095 37C227.418 37.1167 227.74 37.175 228.06 37.175C228.377 37.175 228.652 37.1217 228.885 37.015C229.118 36.9083 229.298 36.7583 229.425 36.565C229.555 36.3717 229.62 36.1433 229.62 35.88C229.62 35.48 229.473 35.1683 229.18 34.945C228.89 34.7217 228.503 34.61 228.02 34.61C227.89 34.61 227.755 34.62 227.615 34.64C227.475 34.6567 227.333 34.6817 227.19 34.715L226.865 33.98L229.055 31.94H225.975V31H230.385V31.865L228.3 33.89C228.717 33.8833 229.108 33.955 229.475 34.105C229.842 34.255 230.137 34.4833 230.36 34.79C230.587 35.0933 230.7 35.4767 230.7 35.94C230.7 36.38 230.59 36.7667 230.37 37.1C230.15 37.43 229.847 37.6883 229.46 37.875C229.073 38.0583 228.63 38.15 228.13 38.15Z" fill="white"/>
<rect opacity="0.5" x="318.5" y="24" width="20" height="20" rx="10" fill="#557FFE"/>
<path d="M329.16 38V36.565H325.675V35.72L328.185 31H329.325L326.85 35.63H329.16V34.075H330.125V35.63H331.205V36.565H330.125V38H329.16Z" fill="white"/>
</svg>
