<svg width="106" height="106" viewBox="0 0 106 106" fill="none" xmlns="http://www.w3.org/2000/svg">
    <g filter="url(#filter0_d_2128_26418)">
        <path fill-rule="evenodd" clip-rule="evenodd"
            d="M44.0513 15.6729C44.0513 15.7944 44.3112 16.2337 45.7592 18.5591C45.9484 18.8631 46.4426 19.6649 46.8572 20.3406C48.0701 22.3176 49.1573 24.0824 49.495 24.623C49.8401 25.1752 50.8997 26.8942 51.7408 28.2666C52.0373 28.7503 52.4094 29.3464 52.5675 29.5914C52.7258 29.8364 52.9235 30.1568 53.0071 30.3034C53.1375 30.532 53.5697 31.2358 55.6915 34.6742C56.5587 36.0794 56.7565 36.3985 57.1198 36.9775C57.3366 37.323 57.8814 38.2088 58.3308 38.9459C58.7802 39.683 59.3131 40.54 59.5147 40.8504C59.7166 41.1609 59.8818 41.436 59.8818 41.4622C59.8818 41.4884 60.025 41.7244 60.2001 41.9868C60.3752 42.2491 60.741 42.8354 61.0128 43.2896C61.2848 43.7438 61.5507 44.132 61.6037 44.1524C61.7186 44.1965 62.0805 44.037 64.9074 42.6945C65.345 42.4868 65.9858 42.1855 66.3313 42.0251C66.6768 41.8645 67.261 41.5908 67.6295 41.4168C67.9981 41.2428 68.6012 40.9597 68.9697 40.7877C69.3382 40.6158 69.9601 40.3252 70.3517 40.142C70.7433 39.9589 71.2946 39.7022 71.5769 39.5716C72.3144 39.2302 74.2019 38.3393 75.8135 37.5716C76.5114 37.2391 76.7294 36.9775 76.3083 36.9775C76.2312 36.9775 76.1137 36.9022 76.0474 36.81C75.981 36.7179 75.8679 36.6425 75.7961 36.6425C75.7243 36.6425 75.6112 36.5671 75.5448 36.475C75.4784 36.3828 75.3758 36.3075 75.317 36.3075C75.2579 36.3075 75.2098 36.2698 75.2098 36.2237C75.2098 36.1776 75.1532 36.1399 75.0841 36.1399C75.015 36.1399 74.9585 36.1022 74.9585 36.0562C74.9585 36.0101 74.9019 35.9724 74.8328 35.9724C74.7637 35.9724 74.7072 35.9347 74.7072 35.8887C74.7072 35.8426 74.6507 35.8049 74.5816 35.8049C74.5125 35.8049 74.4559 35.7672 74.4559 35.7211C74.4559 35.6751 74.4166 35.6374 74.3686 35.6374C74.3207 35.6374 74.2005 35.562 74.1016 35.4699C74.0028 35.3777 73.8723 35.3023 73.812 35.3023C73.7515 35.3023 73.7021 35.2693 73.7021 35.2289C73.7021 35.1882 73.589 35.1082 73.4508 35.0511C73.3126 34.9939 73.1995 34.9185 73.1995 34.8836C73.1995 34.8486 73.0865 34.7732 72.9483 34.716C72.8101 34.6589 72.697 34.5814 72.697 34.5439C72.697 34.5066 72.6218 34.4522 72.5299 34.4231C72.4382 34.394 72.3157 34.3253 72.2577 34.2706C72.0816 34.1044 71.4498 33.7109 71.3587 33.7109C71.3116 33.7109 71.2731 33.6732 71.2731 33.6272C71.2731 33.5811 71.2165 33.5434 71.1474 33.5434C71.0783 33.5434 71.0218 33.5057 71.0218 33.4596C71.0218 33.4136 70.9653 33.3759 70.8962 33.3759C70.8271 33.3759 70.7705 33.3445 70.7705 33.3064C70.7705 33.268 70.6669 33.1832 70.5402 33.1179C70.4135 33.0524 70.2368 32.933 70.1476 32.8524C70.0581 32.7718 69.9356 32.7058 69.8753 32.7058C69.8148 32.7058 69.7654 32.6744 69.7654 32.6363C69.7654 32.598 69.6618 32.5132 69.5351 32.4478C69.4084 32.3823 69.2316 32.2629 69.1424 32.1823C69.053 32.1017 68.9389 32.0357 68.8887 32.0357C68.8384 32.0357 68.7429 31.9604 68.6765 31.8682C68.6102 31.7761 68.5076 31.7007 68.4487 31.7007C68.3897 31.7007 68.3415 31.663 68.3415 31.6169C68.3415 31.5709 68.285 31.5332 68.2159 31.5332C68.1468 31.5332 68.0902 31.4955 68.0902 31.4494C68.0902 31.4034 68.0337 31.3657 67.9646 31.3657C67.8955 31.3657 67.8389 31.328 67.8389 31.2819C67.8389 31.2358 67.7918 31.1981 67.7342 31.1981C67.6767 31.1979 67.5213 31.1048 67.3889 30.991C67.2566 30.8771 67.0776 30.7618 66.9911 30.7341C66.9046 30.7067 66.8338 30.655 66.8338 30.6189C66.8338 30.5829 66.6831 30.4856 66.4988 30.4024C66.3145 30.3193 66.1638 30.2194 66.1638 30.1803C66.1638 30.1413 66.0968 30.1093 66.0147 30.1093C65.9328 30.1093 65.8113 30.0339 65.745 29.9418C65.6786 29.8496 65.5655 29.7742 65.4937 29.7742C65.4219 29.7742 65.3088 29.6989 65.2424 29.6067C65.176 29.5146 65.0734 29.4392 65.0146 29.4392C64.9555 29.4392 64.9074 29.4015 64.9074 29.3554C64.9074 29.3094 64.8508 29.2717 64.7817 29.2717C64.7126 29.2717 64.6561 29.234 64.6561 29.1879C64.6561 29.1419 64.5996 29.1042 64.5304 29.1042C64.4613 29.1042 64.4048 29.0728 64.4048 29.0346C64.4048 28.9963 64.3012 28.9115 64.1745 28.8462C64.0478 28.7806 63.8711 28.6613 63.7819 28.5807C63.6924 28.5 63.5699 28.4341 63.5096 28.4341C63.4491 28.4341 63.3997 28.4027 63.3997 28.3646C63.3997 28.3262 63.296 28.2414 63.1694 28.1761C63.0427 28.1106 62.8659 27.9912 62.7767 27.9106C62.6873 27.83 62.5648 27.764 62.5045 27.764C62.444 27.764 62.3946 27.7326 62.3946 27.6945C62.3946 27.6562 62.2909 27.5714 62.1642 27.506C62.0376 27.4407 61.9151 27.367 61.892 27.3421C61.8022 27.2445 60.6371 26.5076 60.573 26.5076C60.5358 26.5076 60.4507 26.4322 60.3844 26.3401C60.318 26.248 60.2049 26.1726 60.1331 26.1726C60.0613 26.1726 59.9482 26.0972 59.8818 26.0051C59.8154 25.9129 59.7024 25.8376 59.6305 25.8376C59.5587 25.8376 59.4456 25.7622 59.3793 25.67C59.3129 25.5779 59.1998 25.5025 59.128 25.5025C59.0562 25.5025 58.9431 25.4271 58.8767 25.335C58.8103 25.2429 58.7027 25.1675 58.6378 25.1675C58.5726 25.1675 58.4585 25.1013 58.384 25.0203C58.3094 24.9394 58.1448 24.8199 58.0182 24.755C57.8915 24.6898 57.7878 24.6052 57.7878 24.5669C57.7878 24.5288 57.7485 24.4974 57.7005 24.4974C57.6526 24.4974 57.5324 24.422 57.4335 24.3299C57.3347 24.2377 57.2042 24.1624 57.1439 24.1624C57.0834 24.1624 57.034 24.1307 57.034 24.092C57.034 24.0535 56.9383 23.9781 56.8215 23.9249C56.7046 23.8717 56.5633 23.7896 56.5074 23.7427C56.2722 23.5453 55.7625 23.241 55.6668 23.241C55.6099 23.241 55.5089 23.1656 55.4426 23.0735C55.3762 22.9814 55.2631 22.906 55.1913 22.906C55.1195 22.906 55.0064 22.8306 54.94 22.7385C54.8736 22.6463 54.771 22.5709 54.7122 22.5709C54.6531 22.5709 54.605 22.5332 54.605 22.4872C54.605 22.4411 54.5484 22.4034 54.4793 22.4034C54.4102 22.4034 54.3537 22.3657 54.3537 22.3197C54.3537 22.2736 54.2972 22.2359 54.2281 22.2359C54.159 22.2359 54.1024 22.2045 54.1024 22.1664C54.1024 22.1281 53.9988 22.0435 53.8721 21.9783C53.7454 21.9134 53.5808 21.7939 53.5063 21.713C53.4317 21.632 53.3176 21.5658 53.2525 21.5658C53.1876 21.5658 53.0799 21.4904 53.0135 21.3983C52.9472 21.3062 52.8341 21.2308 52.7623 21.2308C52.6904 21.2308 52.5774 21.1554 52.511 21.0633C52.4446 20.9711 52.3315 20.8958 52.2597 20.8958C52.1879 20.8958 52.0748 20.8204 52.0084 20.7282C51.9421 20.6361 51.8206 20.5607 51.7387 20.5607C51.6566 20.5607 51.5892 20.5324 51.589 20.4979C51.5886 20.4633 51.353 20.2847 51.0655 20.1011C50.7778 19.9172 50.5301 19.7382 50.5148 19.7032C50.4993 19.668 50.4229 19.6394 50.3448 19.6394C50.2667 19.6394 50.1483 19.564 50.082 19.4718C50.0156 19.3797 49.9025 19.3043 49.8307 19.3043C49.7589 19.3043 49.6458 19.2289 49.5794 19.1368C49.513 19.0447 49.4 18.9693 49.3281 18.9693C49.2563 18.9693 49.1432 18.8939 49.0769 18.8018C49.0105 18.7096 48.8974 18.6343 48.8256 18.6343C48.7538 18.6343 48.6407 18.5589 48.5743 18.4667C48.5079 18.3746 48.4003 18.2992 48.3354 18.2992C48.2703 18.2992 48.1561 18.233 48.0816 18.152C48.007 18.0712 47.8425 17.9516 47.7158 17.8867C47.5891 17.8216 47.4854 17.737 47.4854 17.6987C47.4854 17.6605 47.4461 17.6291 47.3981 17.6291C47.3502 17.6291 47.23 17.5538 47.1311 17.4616C47.0323 17.3695 46.9018 17.2941 46.8415 17.2941C46.781 17.2941 46.7316 17.2627 46.7316 17.2246C46.7316 17.1863 46.6279 17.1015 46.5013 17.0361C46.3746 16.9706 46.1978 16.8512 46.1086 16.7706C46.0192 16.69 45.8967 16.624 45.8364 16.624C45.7759 16.624 45.7265 16.592 45.7265 16.553C45.7265 16.5139 45.5757 16.414 45.3914 16.3309C45.2072 16.2477 45.0564 16.1479 45.0564 16.1087C45.0564 16.0698 44.9894 16.0377 44.9073 16.0377C44.8254 16.0377 44.704 15.9623 44.6376 15.8702C44.5712 15.7781 44.4498 15.7027 44.3679 15.7027C44.2858 15.7027 44.2188 15.665 44.2188 15.6189C44.2188 15.5728 44.1811 15.5352 44.1351 15.5352C44.089 15.5352 44.0513 15.5971 44.0513 15.6729ZM34.5852 37.2079C34.5844 37.6579 34.5591 37.8185 34.5027 37.7314C34.4341 37.6252 34.4213 37.6296 34.4202 37.7596C34.4196 37.8442 34.2992 38.0802 34.1528 38.284C33.8266 38.7382 33.6528 38.5426 35.7591 40.09C36.1046 40.3438 36.915 40.9404 37.56 41.4157C38.2049 41.8913 38.9478 42.4347 39.2108 42.6233L39.6891 42.9663L39.9798 43.8877C40.1395 44.3944 40.5579 45.7702 40.9095 46.9449C41.2611 48.1196 41.5814 49.175 41.6217 49.2901C41.6616 49.4053 41.7772 49.7822 41.8782 50.1277C41.9789 50.4733 42.1278 50.9632 42.2086 51.2166C42.2894 51.47 42.4389 51.96 42.5407 52.3055C42.9298 53.6253 42.8883 53.5592 43.6744 54.1189C46.3907 56.0533 46.6897 56.1944 47.2924 55.8271C48.2321 55.254 48.0904 54.3676 46.9339 53.5845C46.6535 53.3946 46.1292 53.0277 45.7686 52.7689C45.408 52.5103 45.0629 52.2705 45.0015 52.2364C44.9404 52.202 44.566 51.1012 44.1694 49.7898C43.773 48.4785 43.3737 47.1606 43.2824 46.8611C43.1909 46.5617 43.086 46.2036 43.0491 46.0654C43.0125 45.9272 42.9262 45.6445 42.8577 45.4372C42.7893 45.2299 42.6504 44.7776 42.5491 44.4321C42.4477 44.0866 42.3321 43.7097 42.2924 43.5945C42.2526 43.4793 42.1382 43.1024 42.0381 42.7569C41.6811 41.5242 41.8819 41.7439 39.5417 40.0276C33.9784 35.9479 34.5869 36.2941 34.5852 37.2079ZM57.5365 54.1329C57.5365 54.2167 57.5904 54.4711 57.6561 54.6983C57.7221 54.9255 57.9708 55.8653 58.2091 56.7866C58.7295 58.7983 58.9048 59.469 59.1347 60.3254C59.2304 60.6825 59.3405 61.1065 59.3793 61.2677C59.418 61.429 59.5311 61.8624 59.6305 62.231C59.73 62.5995 59.8435 63.033 59.8829 63.1942C59.9222 63.3554 59.9972 63.6381 60.0493 63.8224C60.1015 64.0067 60.1758 64.2893 60.2145 64.4506C60.2533 64.6118 60.3804 65.1018 60.497 65.5395C60.9012 67.0553 61.5549 69.602 61.5559 69.6646C61.5566 69.6991 66.7421 69.7274 73.0793 69.7274C80.9184 69.7274 84.654 69.7553 84.765 69.8147C85.0121 69.9471 85.0626 69.7021 84.8498 69.4033C84.7535 69.268 84.6746 69.1158 84.6746 69.0653C84.6746 69.0148 84.6369 68.9736 84.5908 68.9736C84.5447 68.9736 84.507 68.917 84.507 68.8479C84.507 68.7788 84.4694 68.7223 84.4233 68.7223C84.3772 68.7223 84.3395 68.6469 84.3395 68.5548C84.3395 68.4626 84.3018 68.3873 84.2558 68.3873C84.2097 68.3873 84.172 68.3119 84.172 68.2197C84.172 68.1276 84.1343 68.0522 84.0882 68.0522C84.0422 68.0522 84.0045 67.9768 84.0045 67.8847C84.0045 67.7926 83.9668 67.7172 83.9207 67.7172C83.8747 67.7172 83.837 67.6678 83.837 67.6073C83.837 67.547 83.7616 67.4165 83.6694 67.3177C83.5773 67.2188 83.5019 67.0798 83.5019 67.0088C83.5019 66.9378 83.4642 66.8796 83.4182 66.8796C83.3721 66.8796 83.3344 66.8042 83.3344 66.7121C83.3344 66.6199 83.2967 66.5446 83.2507 66.5446C83.2046 66.5446 83.1669 66.4692 83.1669 66.377C83.1669 66.2849 83.1363 66.2095 83.0988 66.2095C83.0614 66.2095 82.9789 66.0776 82.9156 65.9164C82.8524 65.7551 82.773 65.6232 82.7391 65.6232C82.7054 65.6232 82.6528 65.5101 82.6225 65.3719C82.5921 65.2337 82.5326 65.1207 82.4901 65.1207C82.4478 65.1207 82.4131 65.0453 82.4131 64.9531C82.4131 64.861 82.3754 64.7856 82.3293 64.7856C82.2832 64.7856 82.2455 64.7102 82.2455 64.6181C82.2455 64.526 82.2173 64.45 82.1827 64.4493C82.1482 64.4485 82.0278 64.26 81.9149 64.0305C81.8022 63.8008 81.6797 63.613 81.6427 63.613C81.6058 63.613 81.5755 63.5376 81.5755 63.4455C81.5755 63.3533 81.5378 63.278 81.4917 63.278C81.4456 63.278 81.408 63.2026 81.408 63.1104C81.408 63.0183 81.3703 62.9429 81.3242 62.9429C81.2781 62.9429 81.2404 62.8675 81.2404 62.7754C81.2404 62.6833 81.2099 62.6079 81.1724 62.6079C81.1349 62.6079 81.0524 62.476 80.9892 62.3147C80.9259 62.1535 80.8434 62.0216 80.8059 62.0216C80.7684 62.0216 80.7379 61.965 80.7379 61.8959C80.7379 61.8268 80.7002 61.7703 80.6541 61.7703C80.608 61.7703 80.5704 61.7137 80.5704 61.6446C80.5704 61.5755 80.5327 61.519 80.4866 61.519C80.4405 61.519 80.4028 61.4436 80.4028 61.3515C80.4028 61.2593 80.3651 61.184 80.3191 61.184C80.273 61.184 80.2353 61.1086 80.2353 61.0164C80.2353 60.9243 80.1976 60.8489 80.1516 60.8489C80.1055 60.8489 80.0678 60.7735 80.0678 60.6814C80.0678 60.5893 80.0301 60.5139 79.984 60.5139C79.938 60.5139 79.9003 60.4645 79.9003 60.404C79.9003 60.3437 79.8249 60.2132 79.7328 60.1144C79.6406 60.0155 79.5652 59.8765 79.5652 59.8055C79.5652 59.7345 79.5275 59.6763 79.4815 59.6763C79.4354 59.6763 79.3977 59.6009 79.3977 59.5088C79.3977 59.4166 79.36 59.3413 79.314 59.3413C79.2679 59.3413 79.2302 59.286 79.2302 59.2186C79.2302 59.1511 79.1299 58.9156 79.0074 58.6951C78.8849 58.4746 78.7436 58.2189 78.6933 58.1268C78.5612 57.8843 78.4699 57.8363 78.1376 57.8349C77.8787 57.8338 77.3234 57.7358 75.7961 57.4221C75.5888 57.3796 75.1742 57.3015 74.8747 57.2485C74.5753 57.1956 74.1795 57.1198 73.9953 57.0798C73.811 57.0398 73.4152 56.9644 73.1158 56.9122C72.8163 56.8601 72.4206 56.7847 72.2363 56.7447C72.052 56.7047 71.6563 56.6289 71.3568 56.576C71.0574 56.523 70.6428 56.4449 70.4355 56.4022C69.9038 56.2926 68.3938 56.0056 67.7971 55.9006C67.5207 55.8521 67.1437 55.7792 66.9595 55.739C66.7752 55.6988 66.4925 55.6433 66.3313 55.6154C66.0813 55.5725 64.3895 55.2526 60.3215 54.479C57.2926 53.903 57.5365 53.9331 57.5365 54.1329ZM39.2266 67.837C38.7424 68.0476 38.5946 68.3915 38.3592 69.8531C38.0401 71.8352 37.8583 72.8845 37.8148 72.9974C37.7874 73.0684 37.0779 73.4612 36.2384 73.8706C31.0983 76.376 31.1524 76.3469 31.1524 76.5994C31.1524 76.7278 31.1873 76.8455 31.2298 76.861C31.2726 76.8763 31.3197 76.9454 31.3345 77.0145C31.3754 77.2031 31.8704 77.6845 32.0235 77.6845C32.0972 77.6845 32.1575 77.7222 32.1575 77.7683C32.1575 77.8144 32.213 77.8521 32.2806 77.8521C32.3482 77.8521 32.5367 77.9268 32.6994 78.0181C32.8621 78.1094 32.9951 78.1473 32.9951 78.1025C32.9951 78.0386 37.1292 75.9535 39.1727 74.9865C39.8294 74.6759 39.9088 74.5105 40.1986 72.8474C40.5979 70.5568 40.8527 68.8038 40.8115 68.6337C40.6412 67.9348 39.8805 67.5522 39.2266 67.837Z"
            fill="#676767" />
        <path fill-rule="evenodd" clip-rule="evenodd"
            d="M75.4548 37.7576C74.9673 37.9965 74.2511 38.3399 73.8633 38.5209C73.4753 38.7016 72.7812 39.0272 72.3205 39.2441C70.4018 40.1481 67.48 41.5165 66.7505 41.8526C66.4511 41.9906 65.8291 42.284 65.3685 42.5047C64.9078 42.7254 64.1916 43.0638 63.777 43.2566C63.3624 43.4495 62.6982 43.7583 62.301 43.943L61.5788 44.2791L61.0517 45.5072C60.7617 46.1828 60.4179 46.9722 60.2872 47.2612C60.1565 47.5503 60.0498 47.8037 60.0498 47.8244C60.0498 47.8452 59.9367 48.109 59.7985 48.4108C59.6603 48.7125 59.5472 48.9776 59.5472 49C59.5472 49.0224 59.4737 49.2006 59.3839 49.3958C58.4711 51.3796 57.4867 53.8206 57.5715 53.8909C57.6247 53.9351 57.8932 54.009 58.1681 54.0549C58.4428 54.1009 59.7796 54.3501 61.1386 54.6087C62.4976 54.8675 63.798 55.1117 64.0283 55.1517C64.4771 55.2294 65.5483 55.4363 66.1642 55.564C66.3715 55.6071 66.7861 55.6855 67.0855 55.7384C67.385 55.7914 67.7807 55.8672 67.965 55.9072C68.1493 55.9472 68.545 56.0226 68.8445 56.0747C69.1439 56.1269 69.5397 56.2023 69.724 56.2422C69.9082 56.2822 70.304 56.3576 70.6034 56.4098C70.9029 56.4619 71.2986 56.5373 71.4829 56.5773C71.6672 56.6173 72.0629 56.6927 72.3624 56.7448C72.6618 56.7969 73.0576 56.8727 73.2418 56.9129C73.4261 56.9532 73.9915 57.0637 74.4982 57.1586C75.005 57.2536 76.0023 57.4442 76.7147 57.5824C77.4271 57.7206 78.1166 57.8337 78.2471 57.8337H78.4841L78.4345 57.1845C78.4071 56.8275 78.3652 56.1868 78.3413 55.7606C78.3174 55.3345 78.2626 54.9859 78.2199 54.9859C78.1769 54.9859 78.1418 54.6301 78.1418 54.1952C78.1418 53.7582 78.1043 53.3812 78.058 53.3525C77.933 53.2753 77.9535 53.0378 78.0789 53.1086C78.1627 53.1559 78.1627 53.1452 78.0789 53.055C78.0128 52.9836 77.9742 52.6881 77.9742 52.252C77.9742 51.8723 77.9365 51.5383 77.8905 51.5098C77.8438 51.4809 77.8067 51.0919 77.8067 50.6304C77.8067 50.1751 77.7734 49.7821 77.7328 49.757C77.6922 49.7318 77.6505 49.3244 77.6403 48.8515C77.63 48.3787 77.6193 47.9465 77.6164 47.891C77.6137 47.8353 77.5799 47.8094 77.5414 47.833C77.5031 47.8569 77.4717 47.4572 77.4717 46.945C77.4717 46.4328 77.4403 46.033 77.402 46.0569C77.3634 46.0806 77.332 46.0469 77.332 45.9817C77.332 45.9166 77.3634 45.8829 77.402 45.9066C77.4403 45.9304 77.4717 45.9099 77.4717 45.8611C77.4717 45.8123 77.434 45.7723 77.3879 45.7723C77.3387 45.7723 77.3042 45.4792 77.3042 45.0604C77.3042 44.6416 77.2696 44.3484 77.2204 44.3484C77.1697 44.3484 77.1367 43.9878 77.1367 43.434C77.1367 42.7771 77.1071 42.5097 77.032 42.4844C76.9522 42.4576 76.957 42.4123 77.0529 42.2938C77.1253 42.2044 77.1341 42.1652 77.0738 42.2015C76.9934 42.2498 76.9691 42.102 76.9691 41.5643C76.9691 41.1455 76.9302 40.8251 76.8722 40.7671C76.7987 40.6936 76.8037 40.635 76.8931 40.5248C76.9695 40.4306 76.9742 40.4017 76.9063 40.4425C76.8253 40.4911 76.8014 40.3102 76.8004 39.642C76.7995 39.0534 76.7731 38.8184 76.7179 38.9041C76.6525 39.0052 76.6364 38.9918 76.6354 38.8362C76.6345 38.7037 76.667 38.6626 76.7388 38.7058C76.8211 38.7552 76.8219 38.7422 76.743 38.6444C76.6877 38.5762 76.6312 38.2583 76.6173 37.9381C76.5857 37.2067 76.5807 37.2058 75.4548 37.7576ZM64.0654 69.7897L61.5899 69.8138L61.3991 71.0061C61.124 72.7263 61.0561 73.1478 60.9703 73.6642C60.9282 73.9176 60.8528 74.3887 60.8025 74.7112C60.6738 75.5389 60.5519 76.3106 60.4656 76.847C60.4248 77.1004 60.3507 77.5715 60.301 77.894C60.2514 78.2165 60.176 78.6876 60.1335 78.941C60.091 79.1944 60.0183 79.6467 59.9719 79.9461C59.9254 80.2456 59.8121 80.9617 59.7204 81.5376C59.6287 82.1134 59.494 82.9615 59.4211 83.4221C59.3483 83.8828 59.2337 84.599 59.1665 85.0136C58.6746 88.045 58.3896 90.0228 58.4294 90.1264C58.4824 90.2644 58.6258 90.2925 58.6258 90.1648C58.6258 90.1187 58.673 90.0802 58.7305 90.0791C58.7881 90.0781 58.9806 89.9464 59.1581 89.7864C59.3357 89.6264 59.5156 89.5171 59.5581 89.5433C59.6004 89.5694 59.6247 89.546 59.6121 89.4911C59.5993 89.4363 59.6509 89.3808 59.7267 89.368C59.8022 89.3552 59.9758 89.2277 60.1126 89.0847C60.2493 88.9417 60.4064 88.8246 60.4616 88.8246C60.5169 88.8246 60.5389 88.7869 60.5104 88.7409C60.482 88.6948 60.5272 88.6571 60.6109 88.6571C60.6947 88.6571 60.8103 88.5817 60.8679 88.4896C60.9255 88.3974 61.0498 88.3221 61.1443 88.3221C61.2387 88.3221 61.2927 88.2844 61.2643 88.2383C61.2358 88.1922 61.2617 88.1541 61.3221 88.1537C61.3824 88.1533 61.5208 88.0402 61.6297 87.9024C61.7386 87.7646 61.882 87.652 61.9488 87.652C62.0154 87.652 62.0466 87.6143 62.0181 87.5682C61.9896 87.5222 62.025 87.4845 62.0968 87.4845C62.1687 87.4845 62.2275 87.4468 62.2275 87.4007C62.2275 87.3546 62.2903 87.3169 62.3672 87.3169C62.4438 87.3169 62.4834 87.2937 62.4549 87.265C62.3806 87.1907 62.6099 86.9819 62.7659 86.9819C62.8383 86.9819 62.8976 86.9442 62.8976 86.8981C62.8976 86.8521 62.9577 86.8144 63.031 86.8144C63.1045 86.8144 63.1842 86.739 63.2083 86.6469C63.2324 86.5547 63.3042 86.4794 63.3679 86.4794C63.4315 86.4794 63.6225 86.3483 63.7925 86.1879C63.9624 86.0277 64.1173 85.9123 64.1366 85.9316C64.1755 85.9703 64.3424 85.8463 64.5554 85.6208C64.6314 85.5402 64.7367 85.4742 64.7891 85.4742C64.8414 85.4742 64.9551 85.38 65.0416 85.2648C65.1281 85.1497 65.2487 85.0554 65.3096 85.0554C65.3704 85.0554 65.403 85.0272 65.3823 84.9926C65.3614 84.9581 65.3967 84.8812 65.461 84.8218C65.5418 84.7472 65.5779 84.7434 65.5779 84.8098C65.5779 84.8624 65.6872 84.7887 65.8208 84.6454C65.9546 84.5024 66.1074 84.3854 66.1608 84.3854C66.2142 84.3854 66.2345 84.3477 66.2061 84.3016C66.1776 84.2555 66.2167 84.2179 66.2932 84.2179C66.3696 84.2179 66.5365 84.106 66.664 83.9695C66.7915 83.833 66.9189 83.7442 66.9469 83.772C66.975 83.8001 67.0217 83.7612 67.0506 83.6854C67.0797 83.6098 67.1559 83.5478 67.2202 83.5478C67.2843 83.5478 67.3368 83.5101 67.3368 83.464C67.3368 83.4179 67.4216 83.3773 67.5253 83.3736C67.6289 83.37 67.667 83.3482 67.6099 83.325C67.4731 83.2699 67.6861 83.0452 67.8752 83.0452C67.9476 83.0452 68.0069 83.0075 68.0069 82.9615C68.0069 82.9154 68.0657 82.8777 68.1376 82.8777C68.2094 82.8777 68.2508 82.8494 68.2301 82.8149C68.2092 82.7803 68.2446 82.7035 68.3088 82.644C68.3731 82.5848 68.4257 82.5565 68.4257 82.5812C68.4257 82.6243 68.487 82.5747 68.9643 82.1448C69.0794 82.0412 69.2231 81.9563 69.2836 81.9563C69.3443 81.9563 69.4467 81.8831 69.5114 81.7932C69.5759 81.7036 69.6597 81.6494 69.6974 81.6726C69.7351 81.6959 69.7658 81.654 69.7658 81.5794C69.7658 81.5049 69.8035 81.4672 69.8496 81.4957C69.8957 81.5242 69.9333 81.5053 69.9333 81.4538C69.9333 81.4023 69.9641 81.3792 70.0018 81.4025C70.0395 81.4257 70.1233 81.3715 70.1878 81.2819C70.2525 81.192 70.3819 81.1181 70.4753 81.1175C70.6158 81.1165 70.6235 81.102 70.5197 81.035C70.42 80.9705 70.4374 80.9533 70.6034 80.9512C70.7695 80.9491 70.7869 80.932 70.6872 80.8675C70.5816 80.7992 70.5867 80.786 70.7192 80.785C70.8059 80.7843 70.9445 80.7058 71.027 80.6108C71.1095 80.5155 71.2082 80.4307 71.2463 80.4223C71.2842 80.4137 71.306 80.3785 71.2944 80.344C71.2829 80.3094 71.3313 80.2812 71.4019 80.2812C71.4726 80.2812 71.6588 80.1587 71.8158 80.0089C72.536 79.3221 72.7812 79.1182 72.7812 79.2065C72.7812 79.2589 72.8509 79.2212 72.9363 79.1228C73.0216 79.0246 73.1112 78.9638 73.1355 78.9881C73.1598 79.0124 73.2944 78.9176 73.4347 78.7773C73.5748 78.637 73.7302 78.5222 73.7798 78.5222C73.8294 78.5222 73.87 78.4845 73.87 78.4385C73.87 78.3924 73.9289 78.3547 74.0007 78.3547C74.0725 78.3547 74.114 78.3264 74.0933 78.2919C74.0484 78.218 74.2049 78.0722 74.3669 78.0366C74.4293 78.0228 74.5793 77.9097 74.7001 77.7853C74.9742 77.5031 75.4246 77.1821 75.5467 77.1821C75.5974 77.1821 75.6156 77.1444 75.5871 77.0983C75.5586 77.0522 75.5963 77.0146 75.6709 77.0146C75.7454 77.0146 75.7831 76.9769 75.7546 76.9308C75.7261 76.8847 75.7454 76.847 75.7975 76.847C75.8497 76.847 75.9492 76.7901 76.0187 76.7206C76.0882 76.651 76.1805 76.6163 76.2241 76.6431C76.2677 76.6699 76.2978 76.6609 76.2913 76.623C76.2601 76.4437 76.3106 76.3445 76.4331 76.3445C76.5066 76.3445 76.6707 76.2333 76.7978 76.0972C76.9249 75.9613 77.0814 75.8388 77.1457 75.825C77.2097 75.8114 77.2818 75.7812 77.3054 75.7582C77.6055 75.4673 77.9035 75.2405 77.8553 75.3394C77.8218 75.4085 77.8536 75.3919 77.9261 75.3025C77.9987 75.2129 78.058 75.1626 78.058 75.1905C78.058 75.2185 78.1866 75.1277 78.3434 74.9886C78.5005 74.8496 78.6542 74.7422 78.6849 74.7499C78.7545 74.7675 79.0631 74.418 79.0631 74.3215C79.0631 74.2823 79.1125 74.2505 79.173 74.2505C79.2334 74.2505 79.3638 74.1751 79.4627 74.083C79.5615 73.9908 79.6792 73.9155 79.724 73.9155C79.769 73.9155 79.8295 73.8401 79.8588 73.7479C79.8881 73.6558 79.9765 73.5804 80.0555 73.5804C80.1342 73.5804 80.2531 73.505 80.3195 73.4129C80.3859 73.3208 80.4906 73.2454 80.5524 73.2454C80.6139 73.2454 80.6411 73.2077 80.6127 73.1616C80.5842 73.1156 80.6219 73.0779 80.6964 73.0779C80.771 73.0779 80.8087 73.0402 80.7802 72.9941C80.7517 72.948 80.8059 72.9103 80.9008 72.9103C80.9957 72.9103 81.0733 72.8752 81.0733 72.8322C81.0733 72.7893 81.1487 72.7303 81.2409 72.7009C81.333 72.6716 81.4113 72.5843 81.4151 72.5068C81.4186 72.4294 81.4398 72.4103 81.4618 72.4645C81.4867 72.5257 81.5939 72.4673 81.7428 72.3115C81.8751 72.1728 82.0412 72.0512 82.1115 72.0407C82.1819 72.0304 82.3069 71.9461 82.3894 71.8531C82.4717 71.7601 82.6051 71.6598 82.6857 71.6299C82.7663 71.5999 82.8323 71.5176 82.8323 71.4473C82.8323 71.3767 82.8938 71.3189 82.969 71.3189C83.0442 71.3189 83.1761 71.2377 83.2622 71.1386C83.3482 71.0394 83.4186 70.9887 83.4186 71.0258C83.4186 71.0628 83.494 71.0063 83.5861 70.9001C83.6783 70.794 83.7536 70.7332 83.7536 70.7655C83.7536 70.7977 83.8504 70.7274 83.9685 70.6093C84.0866 70.491 84.2244 70.4198 84.2746 70.4508C84.3293 70.4845 84.3418 70.4683 84.306 70.4105C84.2732 70.3574 84.2884 70.3138 84.34 70.3138C84.3915 70.3138 84.4067 70.2703 84.3739 70.2171C84.3395 70.1616 84.3506 70.1429 84.4 70.1735C84.5073 70.2399 84.8921 69.9168 84.8071 69.8316C84.7472 69.7717 69.1661 69.7403 64.0654 69.7897Z"
            fill="#323232" />
        <path fill-rule="evenodd" clip-rule="evenodd"
            d="M43.5692 15.6614C43.5116 15.7269 43.4645 15.8226 43.4645 15.8742C43.4645 15.9259 43.3137 16.1129 43.1295 16.29C42.9452 16.4672 42.7944 16.6336 42.7944 16.6602C42.7944 16.6868 42.6437 16.864 42.4594 17.0539C42.2751 17.2438 42.1244 17.4361 42.1244 17.4811C42.1244 17.5261 42.0192 17.6628 41.8909 17.7851C41.7623 17.9072 41.5651 18.139 41.4522 18.3002C41.247 18.5938 41.0016 18.8977 40.8052 19.1012C40.7476 19.1609 40.7005 19.253 40.7005 19.306C40.7005 19.359 40.5497 19.547 40.3654 19.7242C40.1812 19.9013 40.0304 20.0678 40.0304 20.0944C40.0304 20.121 39.8796 20.2981 39.6953 20.488C39.5111 20.678 39.3603 20.8664 39.3603 20.9068C39.3603 20.9472 39.2095 21.1357 39.0253 21.3256C38.841 21.5156 38.6902 21.704 38.6902 21.7444C38.6902 21.7848 38.5395 21.9733 38.3552 22.1632C38.1709 22.3531 38.0202 22.5429 38.0202 22.5849C38.0202 22.6268 37.8882 22.7933 37.727 22.9545C37.5658 23.1158 37.4338 23.2795 37.4338 23.3185C37.4338 23.3574 37.2831 23.5446 37.0988 23.7345C36.9145 23.9245 36.7638 24.1129 36.7638 24.1533C36.7638 24.1938 36.613 24.3822 36.4287 24.5721C36.2445 24.7621 36.0937 24.9491 36.0937 24.9878C36.0937 25.0265 35.9241 25.2376 35.7168 25.4571C35.5095 25.6765 35.3399 25.8886 35.3399 25.9284C35.3399 25.968 35.2174 26.1242 35.0676 26.2756C34.5825 26.7656 34.586 26.7248 34.586 31.8542C34.586 35.67 34.6068 36.5598 34.6953 36.5598C34.7984 36.5598 35.3263 36.9377 39.5412 40.0287C41.8815 41.7449 41.6807 41.5252 42.0377 42.758C42.1378 43.1035 42.2521 43.4804 42.2919 43.5956C42.3317 43.7107 42.4473 44.0876 42.5486 44.4331C42.65 44.7787 42.7888 45.231 42.8573 45.4383C42.9257 45.6456 43.012 45.9282 43.0487 46.0665C43.0855 46.2047 43.1904 46.5627 43.2819 46.8622C43.3732 47.1616 43.7725 48.4796 44.1689 49.7908C44.5655 51.1023 44.9399 52.2031 45.0011 52.2374C45.0624 52.2715 45.4075 52.5113 45.7681 52.7699C46.1287 53.0287 46.653 53.3956 46.9334 53.5855C48.0899 54.3687 48.2317 55.2551 47.2919 55.8282C46.6892 56.1955 46.3902 56.0543 43.6739 54.1199C42.8868 53.5593 42.9393 53.6502 42.454 52.0134C42.4129 51.8752 42.3078 51.5359 42.2203 51.2595C42.1327 50.9831 41.9784 50.4743 41.8777 50.1288C41.7768 49.7833 41.6612 49.4064 41.6212 49.2912C41.581 49.176 41.2606 48.1206 40.909 46.9459C40.5574 45.7712 40.1391 44.3955 39.9793 43.8887L39.6886 42.9674L39.2104 42.6244C38.9474 42.4357 38.2044 41.8923 37.5595 41.4168C36.9145 40.9414 36.1042 40.3449 35.7587 40.0911C34.55 39.2032 34.2083 38.9461 34.0983 38.8422C33.9308 38.6837 33.6647 38.8357 33.6647 39.0899C33.6647 39.1521 33.5893 39.2574 33.4972 39.3238C33.405 39.3902 33.3296 39.5033 33.3296 39.5751C33.3296 39.6469 33.2543 39.76 33.1621 39.8264C33.07 39.8928 32.9946 40.0058 32.9946 40.0777C32.9946 40.1495 32.9192 40.2626 32.8271 40.3289C32.735 40.3953 32.6596 40.5084 32.6596 40.5802C32.6596 40.652 32.5842 40.7651 32.492 40.8315C32.3999 40.8979 32.3245 41.0005 32.3245 41.0593C32.3245 41.1184 32.2868 41.1665 32.2408 41.1665C32.1947 41.1665 32.157 41.2231 32.157 41.2922C32.157 41.3613 32.1193 41.4178 32.0733 41.4178C32.0272 41.4178 31.9895 41.4572 31.9895 41.5051C31.9895 41.5531 31.9141 41.6733 31.822 41.7721C31.7298 41.8709 31.6545 42.0014 31.6545 42.0617C31.6545 42.1222 31.6214 42.1716 31.581 42.1716C31.5403 42.1716 31.4603 42.2847 31.4032 42.4229C31.346 42.5611 31.2706 42.6742 31.2357 42.6742C31.2007 42.6742 31.1253 42.7873 31.0681 42.9255C31.011 43.0637 30.9335 43.1768 30.896 43.1768C30.8587 43.1768 30.8056 43.2477 30.7781 43.3342C30.7507 43.4209 30.654 43.5775 30.5631 43.6822C30.4724 43.7867 30.3981 43.9337 30.3981 44.0087C30.3981 44.0837 30.3227 44.1992 30.2305 44.2656C30.1384 44.332 30.063 44.4346 30.063 44.4935C30.063 44.5525 30.0253 44.6007 29.9793 44.6007C29.9332 44.6007 29.8955 44.6572 29.8955 44.7263C29.8955 44.7954 29.8578 44.8519 29.8118 44.8519C29.7657 44.8519 29.728 44.9085 29.728 44.9776C29.728 45.0467 29.6966 45.1032 29.6585 45.1032C29.6202 45.1032 29.5353 45.2069 29.47 45.3336C29.4045 45.4602 29.2851 45.637 29.2045 45.7262C29.1239 45.8156 29.0579 45.9381 29.0579 45.9984C29.0579 46.0589 29.0265 46.1083 28.9884 46.1083C28.9501 46.1083 28.8653 46.212 28.7999 46.3387C28.7344 46.4654 28.615 46.6421 28.5344 46.7313C28.4538 46.8207 28.3878 46.9432 28.3878 47.0035C28.3878 47.064 28.3527 47.1134 28.3097 47.1134C28.2668 47.1134 28.2078 47.1886 28.1787 47.2805C28.1495 47.3723 28.0742 47.4989 28.0113 47.5618C27.8269 47.7462 26.7964 49.3471 26.7964 49.4491C26.7964 49.5004 26.765 49.5425 26.7269 49.5425C26.6886 49.5425 26.6038 49.6461 26.5384 49.7728C26.4729 49.8995 26.3535 50.0762 26.2729 50.1654C26.1923 50.2548 26.1263 50.36 26.1263 50.3993C26.1263 50.4387 26.051 50.5518 25.9588 50.6506C25.8667 50.7494 25.7913 50.8799 25.7913 50.9402C25.7913 51.0007 25.763 51.0503 25.7285 51.0505C25.6939 51.0508 25.5337 51.2579 25.3725 51.5108C25.2113 51.7638 25.0511 51.9709 25.0165 51.9711C24.982 51.9713 24.9537 52.0385 24.9537 52.1206C24.9537 52.2024 24.8783 52.3239 24.7862 52.3903C24.6941 52.4567 24.6187 52.5643 24.6187 52.6292C24.6187 52.6943 24.5525 52.8084 24.4715 52.883C24.3906 52.9575 24.2711 53.1221 24.2062 53.2488C24.141 53.3755 24.0564 53.4791 24.0181 53.4791C23.98 53.4791 23.9486 53.5286 23.9486 53.5891C23.9486 53.6494 23.8826 53.7719 23.802 53.8613C23.7214 53.9505 23.5801 54.1674 23.4879 54.3433C23.3958 54.5192 23.2544 54.7343 23.1738 54.8214C23.0932 54.9085 23.0272 55.0295 23.0272 55.0905C23.0272 55.1514 22.9519 55.2555 22.8597 55.3219C22.7676 55.3882 22.6922 55.5013 22.6922 55.5731C22.6922 55.645 22.6168 55.758 22.5247 55.8244C22.4326 55.8908 22.3572 56.0039 22.3572 56.0757C22.3572 56.1475 22.2818 56.2606 22.1897 56.327C22.0975 56.3933 22.0221 56.5064 22.0221 56.5782C22.0221 56.6501 21.9468 56.7631 21.8546 56.8295C21.7625 56.8959 21.6871 57.009 21.6871 57.0808C21.6871 57.1526 21.6117 57.2657 21.5196 57.3321C21.4274 57.3985 21.3521 57.5115 21.3521 57.5834C21.3521 57.6552 21.2767 57.7683 21.1845 57.8346C21.0091 57.9611 20.9569 58.1697 21.1008 58.1697C21.1469 58.1697 21.1845 58.2451 21.1845 58.3372C21.1845 58.4293 21.2222 58.5047 21.2683 58.5047C21.3144 58.5047 21.3521 58.5801 21.3521 58.6722C21.3521 58.7644 21.3898 58.8397 21.4358 58.8397C21.4819 58.8397 21.5196 58.912 21.5196 59.0004C21.5196 59.0885 21.5479 59.1733 21.5824 59.1888C21.6611 59.2238 21.9331 59.6698 21.9951 59.8658C22.0207 59.9464 22.0749 60.0124 22.1157 60.0124C22.1564 60.0124 22.1897 60.0878 22.1897 60.1799C22.1897 60.272 22.2273 60.3474 22.2734 60.3474C22.3195 60.3474 22.3572 60.4228 22.3572 60.5149C22.3572 60.6071 22.3877 60.6824 22.4252 60.6824C22.4627 60.6824 22.5452 60.8144 22.6085 60.9756C22.6717 61.1368 22.7542 61.2688 22.7917 61.2688C22.8292 61.2688 22.8597 61.3253 22.8597 61.3944C22.8597 61.4635 22.8974 61.52 22.9435 61.52C22.9896 61.52 23.0272 61.5766 23.0272 61.6457C23.0272 61.7148 23.0649 61.7713 23.111 61.7713C23.1571 61.7713 23.1948 61.8467 23.1948 61.9388C23.1948 62.031 23.2325 62.1064 23.2785 62.1064C23.3246 62.1064 23.3623 62.1642 23.3623 62.2347C23.3623 62.3955 23.7767 63.2273 23.8755 63.265C23.9157 63.2805 23.9486 63.3653 23.9486 63.4534C23.9486 63.5418 23.9863 63.614 24.0324 63.614C24.0784 63.614 24.1161 63.6863 24.1161 63.7746C24.1161 63.8628 24.1444 63.9476 24.1789 63.9631C24.2135 63.9784 24.336 64.1794 24.4509 64.4097C24.5661 64.6401 24.7263 64.9016 24.8069 64.9908C24.8878 65.0802 24.9537 65.2027 24.9537 65.263C24.9537 65.3236 24.9914 65.373 25.0375 65.373C25.0835 65.373 25.1212 65.4483 25.1212 65.5405C25.1212 65.6326 25.1589 65.708 25.205 65.708C25.2511 65.708 25.2887 65.7834 25.2887 65.8755C25.2887 65.9677 25.3264 66.043 25.3725 66.043C25.4186 66.043 25.4563 66.1184 25.4563 66.2106C25.4563 66.3027 25.494 66.3781 25.54 66.3781C25.5861 66.3781 25.6238 66.4363 25.6238 66.5073C25.6238 66.5783 25.6992 66.7173 25.7913 66.8161C25.8834 66.915 25.9588 67.0454 25.9588 67.1057C25.9588 67.1663 25.9965 67.2157 26.0426 67.2157C26.0887 67.2157 26.1263 67.2911 26.1263 67.3832C26.1263 67.4753 26.164 67.5507 26.2101 67.5507C26.2562 67.5507 26.2939 67.6261 26.2939 67.7182C26.2939 67.8104 26.3244 67.8857 26.3619 67.8857C26.3994 67.8857 26.4819 68.0177 26.5451 68.1789C26.6084 68.3401 26.6836 68.4721 26.7122 68.4721C26.7746 68.4721 27.0477 69.0741 27.0477 69.2121C27.0477 69.2657 27.0854 69.3097 27.1315 69.3097C27.1775 69.3097 27.2152 69.3819 27.2152 69.4703C27.2152 69.5584 27.2435 69.6432 27.278 69.6587C27.3126 69.674 27.4315 69.8656 27.5425 70.0844C27.6533 70.3032 27.7758 70.4823 27.8147 70.4823C27.8535 70.4823 27.8853 70.5577 27.8853 70.6498C27.8853 70.7419 27.923 70.8173 27.969 70.8173C28.0151 70.8173 28.0528 70.8927 28.0528 70.9848C28.0528 71.077 28.0905 71.1524 28.1366 71.1524C28.1826 71.1524 28.2203 71.2277 28.2203 71.3199C28.2203 71.412 28.2488 71.4874 28.2836 71.4874C28.3185 71.4874 28.4012 71.6099 28.4674 71.7596C28.5338 71.9093 28.6559 72.1049 28.7392 72.1941C28.8223 72.2835 28.8904 72.406 28.8904 72.4663C28.8904 72.5268 28.9281 72.5763 28.9742 72.5763C29.0202 72.5763 29.0579 72.6516 29.0579 72.7438C29.0579 72.8359 29.0956 72.9113 29.1417 72.9113C29.1877 72.9113 29.2254 72.9867 29.2254 73.0788C29.2254 73.171 29.2631 73.2463 29.3092 73.2463C29.3553 73.2463 29.393 73.3217 29.393 73.4139C29.393 73.506 29.4306 73.5814 29.4767 73.5814C29.5228 73.5814 29.5605 73.6396 29.5605 73.7106C29.5605 73.7816 29.6359 73.9206 29.728 74.0194C29.8201 74.1183 29.8955 74.2487 29.8955 74.309C29.8955 74.3695 29.9332 74.419 29.9793 74.419C30.0253 74.419 30.063 74.4944 30.063 74.5865C30.063 74.6786 30.1007 74.754 30.1468 74.754C30.1929 74.754 30.2305 74.8262 30.2305 74.9146C30.2305 75.0028 30.2588 75.0876 30.2934 75.1031C30.3279 75.1184 30.4492 75.3324 30.5627 75.5786C30.6764 75.8249 30.8357 76.1032 30.917 76.1968C30.9982 76.2904 31.0445 76.3999 31.0196 76.4401C30.9949 76.4801 31.0112 76.513 31.0562 76.513C31.1012 76.513 31.1504 76.4759 31.1659 76.4305C31.1915 76.3546 32.5329 75.6781 36.3222 73.8297C37.1158 73.4428 37.7873 73.0684 37.8145 72.9978C37.8581 72.8853 38.0401 71.8335 38.3588 69.8541C38.5342 68.7642 38.6268 68.431 38.8284 68.1607C39.3722 67.4322 40.5891 67.7233 40.811 68.6348C40.8523 68.8048 40.5974 70.5579 40.1981 72.8485C39.9083 74.5115 39.8289 74.677 39.1723 74.9875C37.6939 75.6871 32.9946 78.0311 32.9946 78.069C32.9946 78.1452 33.2268 78.3557 33.3108 78.3557C33.3531 78.3557 33.7003 78.5085 34.0824 78.6951C34.4644 78.8819 34.8848 79.0561 35.0166 79.0825C35.1483 79.1089 35.2561 79.1633 35.2561 79.2037C35.2561 79.2441 35.3315 79.277 35.4236 79.277C35.5158 79.277 35.5911 79.3147 35.5911 79.3608C35.5911 79.4068 35.6665 79.4445 35.7587 79.4445C35.8508 79.4445 35.9262 79.4822 35.9262 79.5283C35.9262 79.5744 36.0016 79.612 36.0937 79.612C36.1858 79.612 36.2612 79.6497 36.2612 79.6958C36.2612 79.7419 36.3366 79.7796 36.4287 79.7796C36.5209 79.7796 36.5963 79.8173 36.5963 79.8633C36.5963 79.9094 36.6716 79.9471 36.7638 79.9471C36.8559 79.9471 36.9313 79.9848 36.9313 80.0308C36.9313 80.0769 37.0035 80.1146 37.0919 80.1146C37.1801 80.1146 37.2649 80.1433 37.2804 80.1785C37.2956 80.2136 37.7228 80.4438 38.2296 80.6902C38.7363 80.9365 39.2958 81.2093 39.473 81.2964C39.6501 81.3836 39.848 81.4548 39.9127 81.4548C39.9774 81.4548 40.0304 81.4924 40.0304 81.5385C40.0304 81.5846 40.1058 81.6223 40.1979 81.6223C40.29 81.6223 40.3654 81.66 40.3654 81.706C40.3654 81.7521 40.4377 81.7898 40.526 81.7898C40.6142 81.7898 40.699 81.8199 40.7145 81.857C40.7528 81.9493 42.0086 82.5436 42.1652 82.5436C42.2349 82.5436 42.2919 82.5813 42.2919 82.6274C42.2919 82.6734 42.3673 82.7111 42.4594 82.7111C42.5515 82.7111 42.6269 82.7488 42.6269 82.7949C42.6269 82.841 42.7023 82.8787 42.7944 82.8787C42.8866 82.8787 42.962 82.9164 42.962 82.9624C42.962 83.0085 43.0373 83.0462 43.1295 83.0462C43.2216 83.0462 43.297 83.0839 43.297 83.1299C43.297 83.176 43.3724 83.2137 43.4645 83.2137C43.5567 83.2137 43.632 83.2514 43.632 83.2975C43.632 83.3435 43.6875 83.3812 43.7552 83.3812C43.8228 83.3812 44.0125 83.4566 44.1765 83.5487C44.3404 83.6409 44.5301 83.7163 44.5978 83.7163C44.6654 83.7163 44.7209 83.7539 44.7209 83.8C44.7209 83.8461 44.7963 83.8838 44.8884 83.8838C44.9806 83.8838 45.0559 83.9215 45.0559 83.9675C45.0559 84.0136 45.1313 84.0513 45.2235 84.0513C45.3156 84.0513 45.391 84.089 45.391 84.135C45.391 84.1811 45.4664 84.2188 45.5585 84.2188C45.6506 84.2188 45.726 84.2565 45.726 84.3026C45.726 84.3486 45.8014 84.3863 45.8935 84.3863C45.9857 84.3863 46.0611 84.424 46.0611 84.4701C46.0611 84.5162 46.1364 84.5538 46.2286 84.5538C46.3207 84.5538 46.3961 84.5915 46.3961 84.6376C46.3961 84.6837 46.4715 84.7214 46.5636 84.7214C46.6557 84.7214 46.7311 84.7591 46.7311 84.8051C46.7311 84.8512 46.8065 84.8889 46.8986 84.8889C46.9908 84.8889 47.0662 84.9266 47.0662 84.9726C47.0662 85.0187 47.1415 85.0564 47.2337 85.0564C47.3258 85.0564 47.4012 85.0941 47.4012 85.1402C47.4012 85.1862 47.4766 85.2239 47.5687 85.2239C47.6609 85.2239 47.7362 85.2616 47.7362 85.3077C47.7362 85.3537 47.7854 85.3914 47.8458 85.3914C47.9061 85.3914 48.2116 85.5204 48.5248 85.6781C48.8381 85.8356 49.26 86.0136 49.4623 86.0732C49.6646 86.1329 49.8302 86.2112 49.8302 86.2472C49.8302 86.2833 49.9056 86.3128 49.9977 86.3128C50.0899 86.3128 50.1653 86.3505 50.1653 86.3965C50.1653 86.4426 50.2406 86.4803 50.3328 86.4803C50.4249 86.4803 50.5003 86.518 50.5003 86.5641C50.5003 86.6101 50.5757 86.6478 50.6678 86.6478C50.76 86.6478 50.8353 86.6855 50.8353 86.7316C50.8353 86.7777 50.9107 86.8153 51.0029 86.8153C51.095 86.8153 51.1704 86.8459 51.1704 86.8834C51.1704 86.9209 51.3023 87.0034 51.4635 87.0666C51.6248 87.1299 51.7567 87.2124 51.7567 87.2498C51.7567 87.2873 51.8321 87.3179 51.9242 87.3179C52.0163 87.3179 52.0917 87.3556 52.0917 87.4017C52.0917 87.4477 52.1671 87.4854 52.2592 87.4854C52.3514 87.4854 52.4268 87.5231 52.4268 87.5692C52.4268 87.6152 52.5021 87.6529 52.5943 87.6529C52.6864 87.6529 52.7618 87.6906 52.7618 87.7367C52.7618 87.7828 52.8148 87.8205 52.8795 87.8205C52.9442 87.8205 53.1421 87.894 53.3192 87.984C53.9223 88.2901 54.3844 88.4905 54.4877 88.4905C54.5442 88.4905 54.603 88.5207 54.6185 88.5578C54.6581 88.6534 56.5758 89.5794 56.7343 89.5794C56.8067 89.5794 56.866 89.6171 56.866 89.6632C56.866 89.7092 56.9414 89.7469 57.0335 89.7469C57.1257 89.7469 57.201 89.7846 57.201 89.8307C57.201 89.8767 57.2764 89.9144 57.3686 89.9144C57.4607 89.9144 57.5361 89.9521 57.5361 89.9982C57.5361 90.0443 57.6115 90.082 57.7036 90.082C57.7957 90.082 57.8711 90.1197 57.8711 90.1657C57.8711 90.2118 58.007 90.2495 58.1733 90.2495C58.4034 90.2495 58.4641 90.2204 58.4285 90.1274C58.3885 90.0233 58.6783 88.0156 59.1692 84.9936C59.2385 84.5675 59.353 83.8513 59.4238 83.4022C59.4946 82.953 59.6278 82.1143 59.7195 81.5385C59.8112 80.9627 59.9245 80.2465 59.971 79.9471C60.0174 79.6476 60.0901 79.1953 60.1326 78.942C60.1751 78.6886 60.2505 78.2175 60.3001 77.895C60.3498 77.5725 60.4239 77.1014 60.4647 76.848C60.551 76.3115 60.6729 75.5399 60.8016 74.7121C60.8519 74.3897 60.9273 73.9185 60.9694 73.6651C61.0552 73.1488 61.1231 72.7272 61.3982 71.007L61.589 69.8147L64.0645 69.7913L66.5402 69.7678L64.0484 69.7481C62.6778 69.7372 61.5561 69.7002 61.5555 69.6656C61.5544 69.603 60.9007 67.0563 60.4966 65.5405C60.3799 65.1028 60.2528 64.6129 60.2141 64.4516C60.1753 64.2904 60.101 64.0077 60.0489 63.8234C59.9967 63.6392 59.9217 63.3565 59.8824 63.1952C59.843 63.034 59.7295 62.6005 59.6301 62.232C59.5306 61.8635 59.4175 61.43 59.3788 61.2688C59.34 61.1075 59.2328 60.6929 59.1405 60.3474C58.8714 59.34 58.5755 58.2132 58.2493 56.9552C58.0822 56.3102 57.8504 55.4278 57.7344 54.9944C57.6184 54.5609 57.5417 54.1369 57.5639 54.0521C57.5859 53.9675 57.5742 53.8797 57.5378 53.8571C57.4839 53.8238 58.7131 50.8527 59.383 49.3967C59.4728 49.2016 59.5463 49.0234 59.5463 49.001C59.5463 48.9786 59.6594 48.7135 59.7976 48.4117C59.9358 48.11 60.0489 47.8463 60.0489 47.8258C60.0489 47.8053 60.1391 47.5894 60.2493 47.3463C60.3594 47.103 60.7007 46.3209 61.0077 45.6079C61.3147 44.8951 61.6045 44.2878 61.6518 44.2585C61.7056 44.2252 61.6945 44.1884 61.6225 44.1607C61.5588 44.1364 61.2843 43.7449 61.0123 43.2907C60.7405 42.8365 60.3747 42.2502 60.1996 41.9878C60.0246 41.7254 59.8813 41.4894 59.8813 41.4632C59.8813 41.4371 59.7161 41.1619 59.5143 40.8514C59.3126 40.5411 58.7797 39.684 58.3303 38.9469C57.881 38.2098 57.3361 37.3241 57.1194 36.9786C56.9026 36.6331 56.5684 36.096 56.3768 35.785C56.1852 35.474 55.8827 34.984 55.7047 34.6961C54.2255 32.3044 53.1337 30.5272 53.0066 30.3044C52.923 30.1578 52.7254 29.8375 52.5671 29.5925C52.409 29.3475 52.0369 28.7513 51.7404 28.2676C50.8992 26.8952 49.8396 25.1763 49.4946 24.6241C49.1568 24.0834 48.0696 22.3186 46.8568 20.3417C46.4422 19.6659 45.948 18.8642 45.7587 18.5601C44.3107 16.2347 44.0508 15.7954 44.0508 15.674C44.0508 15.5021 43.7173 15.4933 43.5692 15.6614ZM34.4692 37.4464C34.4411 37.5194 34.4549 37.6419 34.4995 37.7186C34.5643 37.8296 34.5814 37.8023 34.5835 37.5858C34.5862 37.2878 34.5479 37.2412 34.4692 37.4464ZM76.8233 40.5844C76.8168 40.6724 76.8466 40.7662 76.8897 40.793C76.9328 40.8196 76.9682 40.766 76.9682 40.6738C76.9682 40.4554 76.8392 40.3756 76.8233 40.5844ZM77.4708 47.7366C77.4708 47.9232 77.6019 47.9603 77.6157 47.7777C77.6224 47.6889 77.5924 47.616 77.5493 47.616C77.5062 47.616 77.4708 47.6702 77.4708 47.7366ZM77.8058 51.3383C77.8058 51.4046 77.8435 51.4823 77.8896 51.5108C77.9356 51.5393 77.9733 51.4851 77.9733 51.3902C77.9733 51.2953 77.9356 51.2176 77.8896 51.2176C77.8435 51.2176 77.8058 51.2719 77.8058 51.3383ZM76.2326 76.5148C76.1346 76.6719 76.1392 76.6765 76.2963 76.5785C76.3895 76.5203 76.4657 76.4441 76.4657 76.4091C76.4657 76.2881 76.3382 76.3461 76.2326 76.5148ZM72.6337 79.2399C72.5104 79.374 72.5001 79.4445 72.6037 79.4445C72.6752 79.4445 72.809 79.1924 72.7612 79.1478C72.7486 79.1361 72.6913 79.1775 72.6337 79.2399Z"
            fill="#EEEEEE" />
    </g>
    <defs>
        <filter id="filter0_d_2128_26418" x="17.3624" y="8.22481" width="71.2771" height="82.0242"
            filterUnits="userSpaceOnUse" color-interpolation-filters="sRGB">
            <feFlood flood-opacity="0" result="BackgroundImageFix" />
            <feColorMatrix in="SourceAlpha" type="matrix"
                values="0 0 0 0 0 0 0 0 0 0 0 0 0 0 0 0 0 0 127 0" result="hardAlpha" />
            <feOffset dy="-3.65517" />
            <feGaussianBlur stdDeviation="1.82759" />
            <feComposite in2="hardAlpha" operator="out" />
            <feColorMatrix type="matrix" values="0 0 0 0 0 0 0 0 0 0 0 0 0 0 0 0 0 0 0.25 0" />
            <feBlend mode="normal" in2="BackgroundImageFix" result="effect1_dropShadow_2128_26418" />
            <feBlend mode="normal" in="SourceGraphic" in2="effect1_dropShadow_2128_26418"
                result="shape" />
        </filter>
    </defs>
</svg>