<svg width="116" height="116" viewBox="0 0 116 116" fill="none" xmlns="http://www.w3.org/2000/svg">
<g clip-path="url(#clip0_2431_31909)">
<g filter="url(#filter0_ddii_2431_31909)">
<path fill-rule="evenodd" clip-rule="evenodd" d="M58.2909 17.5858C57.5099 16.8047 56.2435 16.8047 55.4625 17.5858L46.2179 26.8304C45.4368 27.6115 45.4368 28.8778 46.2179 29.6588L57.3393 40.7803C58.1204 41.5614 59.3867 41.5614 60.1678 40.7803L69.4124 31.5357C70.1934 30.7546 70.1934 29.4883 69.4124 28.7073L58.2909 17.5858ZM30.8358 45.0421C30.0547 44.261 30.0547 42.9947 30.8358 42.2136L41.0257 32.0237C41.8068 31.2426 43.0731 31.2426 43.8542 32.0237L84.5311 72.7006C85.3122 73.4817 85.3122 74.748 84.5311 75.529L74.3411 85.719C73.5601 86.5001 72.2938 86.5001 71.5127 85.719L30.8358 45.0421ZM17.5858 58.2944C16.8047 57.5133 16.8047 56.247 17.5858 55.4659L25.6269 47.4248C26.408 46.6438 27.6743 46.6438 28.4553 47.4248L52.5889 71.5583C53.3699 72.3394 53.3699 73.6057 52.5889 74.3868L44.5477 82.4279C43.7667 83.2089 42.5004 83.2089 41.7193 82.4279L17.5858 58.2944ZM61.9118 45.4325C61.1307 44.6514 61.1307 43.3851 61.9118 42.604L71.1595 33.3563C71.9405 32.5753 73.2069 32.5753 73.9879 33.3563L98.8849 58.2533C99.6659 59.0343 99.6659 60.3007 98.8849 61.0817L89.6372 70.3294C88.8561 71.1105 87.5898 71.1105 86.8088 70.3294L61.9118 45.4325ZM57.8075 76.7493C57.0265 75.9682 55.7602 75.9682 54.9791 76.7493L46.9628 84.7656C46.1818 85.5466 46.1818 86.813 46.9628 87.594L58.2795 98.9107C59.0605 99.6917 60.3269 99.6917 61.1079 98.9107L69.1242 90.8944C69.9053 90.1133 69.9053 88.847 69.1242 88.0659L57.8075 76.7493Z" fill="url(#paint0_linear_2431_31909)"/>
</g>
</g>
<defs>
<filter id="filter0_ddii_2431_31909" x="5" y="11" width="106.471" height="106.496" filterUnits="userSpaceOnUse" color-interpolation-filters="sRGB">
<feFlood flood-opacity="0" result="BackgroundImageFix"/>
<feColorMatrix in="SourceAlpha" type="matrix" values="0 0 0 0 0 0 0 0 0 0 0 0 0 0 0 0 0 0 127 0" result="hardAlpha"/>
<feOffset dy="1"/>
<feGaussianBlur stdDeviation="1"/>
<feComposite in2="hardAlpha" operator="out"/>
<feColorMatrix type="matrix" values="0 0 0 0 0 0 0 0 0 0 0 0 0 0 0 0 0 0 0.25 0"/>
<feBlend mode="normal" in2="BackgroundImageFix" result="effect1_dropShadow_2431_31909"/>
<feColorMatrix in="SourceAlpha" type="matrix" values="0 0 0 0 0 0 0 0 0 0 0 0 0 0 0 0 0 0 127 0" result="hardAlpha"/>
<feOffset dy="6"/>
<feGaussianBlur stdDeviation="6"/>
<feComposite in2="hardAlpha" operator="out"/>
<feColorMatrix type="matrix" values="0 0 0 0 0 0 0 0 0 0 0 0 0 0 0 0 0 0 0.15 0"/>
<feBlend mode="normal" in2="effect1_dropShadow_2431_31909" result="effect2_dropShadow_2431_31909"/>
<feBlend mode="normal" in="SourceGraphic" in2="effect2_dropShadow_2431_31909" result="shape"/>
<feColorMatrix in="SourceAlpha" type="matrix" values="0 0 0 0 0 0 0 0 0 0 0 0 0 0 0 0 0 0 127 0" result="hardAlpha"/>
<feOffset dy="1"/>
<feGaussianBlur stdDeviation="0.5"/>
<feComposite in2="hardAlpha" operator="arithmetic" k2="-1" k3="1"/>
<feColorMatrix type="matrix" values="0 0 0 0 1 0 0 0 0 1 0 0 0 0 1 0 0 0 0.35 0"/>
<feBlend mode="normal" in2="shape" result="effect3_innerShadow_2431_31909"/>
<feColorMatrix in="SourceAlpha" type="matrix" values="0 0 0 0 0 0 0 0 0 0 0 0 0 0 0 0 0 0 127 0" result="hardAlpha"/>
<feOffset dy="6"/>
<feGaussianBlur stdDeviation="6"/>
<feComposite in2="hardAlpha" operator="arithmetic" k2="-1" k3="1"/>
<feColorMatrix type="matrix" values="0 0 0 0 1 0 0 0 0 1 0 0 0 0 1 0 0 0 0.15 0"/>
<feBlend mode="normal" in2="effect3_innerShadow_2431_31909" result="effect4_innerShadow_2431_31909"/>
</filter>
<linearGradient id="paint0_linear_2431_31909" x1="58" y1="99" x2="57" y2="17.5" gradientUnits="userSpaceOnUse">
<stop stop-color="#8D8D8D"/>
<stop offset="0.699548"/>
</linearGradient>
<clipPath id="clip0_2431_31909">
<rect width="116" height="116" fill="white"/>
</clipPath>
</defs>
</svg>
