<svg width="24" height="24" viewBox="0 0 24 24" fill="none" xmlns="http://www.w3.org/2000/svg">
<path fill-rule="evenodd" clip-rule="evenodd" d="M20.5949 8.45999C21.5421 8.71353 22.2865 9.45785 22.54 10.405C22.9982 12.12 23 15.7004 23 15.7004C23 15.7004 23 19.2807 22.54 20.9957C22.2865 21.9429 21.5421 22.6872 20.5949 22.9407C18.88 23.4007 12 23.4007 12 23.4007C12 23.4007 5.12001 23.4007 3.405 22.9407C2.45785 22.6872 1.71353 21.9429 1.45999 20.9957C1 19.2807 1 15.7004 1 15.7004C1 15.7004 1 12.12 1.45999 10.405C1.71353 9.45785 2.45785 8.71353 3.405 8.45999C5.12001 8 12 8 12 8C12 8 18.88 8 20.5949 8.45999ZM15.5134 15.7007L9.79788 19.0003V12.401L15.5134 15.7007Z" stroke="#676767" stroke-width="1.2" stroke-linejoin="round"/>
</svg>
